<svg width="265" height="264" viewBox="0 0 265 264" fill="none" xmlns="http://www.w3.org/2000/svg">
<g clip-path="url(#clip0_130_4725)">
<rect x="30" y="29" width="235" height="235" rx="18.8" fill="#F3F5F7"/>
<path d="M67.6001 80.7001C67.6001 72.9129 73.9129 66.6001 81.7001 66.6001H213.3C221.087 66.6001 227.4 72.9129 227.4 80.7001V264H67.6001V80.7001Z" fill="white"/>
<path d="M203.753 132.36H204.881V131.091C205.501 131.035 206.041 130.875 206.502 130.612C206.972 130.348 207.334 130.005 207.588 129.582C207.851 129.15 207.983 128.661 207.983 128.116C207.983 126.734 207.141 125.78 205.459 125.254L204.881 125.07V121.841C205.67 122.076 206.225 122.617 206.544 123.463L207.926 122.857C207.701 122.217 207.32 121.672 206.784 121.221C206.258 120.77 205.623 120.478 204.881 120.347V119.035H203.753V120.29C203.142 120.328 202.606 120.478 202.145 120.742C201.685 121.005 201.323 121.353 201.059 121.785C200.796 122.217 200.665 122.711 200.665 123.265C200.665 123.942 200.871 124.534 201.285 125.042C201.699 125.54 202.3 125.912 203.09 126.156L203.753 126.367V129.568C203.283 129.455 202.864 129.239 202.498 128.92C202.14 128.591 201.863 128.163 201.666 127.636L200.256 128.229C200.5 128.981 200.933 129.615 201.553 130.132C202.173 130.649 202.907 130.964 203.753 131.077V132.36ZM203.626 124.675C203.184 124.544 202.855 124.346 202.639 124.083C202.422 123.82 202.314 123.519 202.314 123.181C202.314 122.786 202.446 122.462 202.709 122.208C202.972 121.954 203.32 121.799 203.753 121.743V124.718L203.626 124.675ZM205.064 126.776C205.477 126.908 205.792 127.087 206.009 127.312C206.234 127.538 206.347 127.843 206.347 128.229C206.347 128.605 206.215 128.92 205.952 129.173C205.689 129.418 205.332 129.568 204.881 129.625V126.72L205.064 126.776Z" fill="#C3D4E9"/>
<path d="M203.753 159.385H204.881V158.116C205.501 158.06 206.041 157.9 206.502 157.637C206.972 157.373 207.334 157.03 207.588 156.607C207.851 156.175 207.983 155.686 207.983 155.141C207.983 153.759 207.141 152.805 205.459 152.279L204.881 152.095V148.866C205.67 149.101 206.225 149.642 206.544 150.488L207.926 149.882C207.701 149.242 207.32 148.697 206.784 148.246C206.258 147.795 205.623 147.503 204.881 147.372V146.061H203.753V147.315C203.142 147.353 202.606 147.503 202.145 147.767C201.685 148.03 201.323 148.378 201.059 148.81C200.796 149.242 200.665 149.736 200.665 150.291C200.665 150.967 200.871 151.56 201.285 152.067C201.699 152.565 202.3 152.937 203.09 153.181L203.753 153.393V156.593C203.283 156.48 202.864 156.264 202.498 155.945C202.14 155.616 201.863 155.188 201.666 154.662L200.256 155.254C200.5 156.006 200.933 156.64 201.553 157.157C202.173 157.674 202.907 157.989 203.753 158.102V159.385ZM203.626 151.701C203.184 151.569 202.855 151.372 202.639 151.108C202.422 150.845 202.314 150.544 202.314 150.206C202.314 149.811 202.446 149.487 202.709 149.233C202.972 148.979 203.32 148.824 203.753 148.768V151.743L203.626 151.701ZM205.064 153.801C205.477 153.933 205.792 154.112 206.009 154.337C206.234 154.563 206.347 154.868 206.347 155.254C206.347 155.63 206.215 155.945 205.952 156.198C205.689 156.443 205.332 156.593 204.881 156.65V153.745L205.064 153.801Z" fill="#C3D4E9"/>
<path d="M203.753 186.41H204.881V185.141C205.501 185.085 206.041 184.925 206.502 184.662C206.972 184.398 207.334 184.055 207.588 183.632C207.851 183.2 207.983 182.711 207.983 182.166C207.983 180.784 207.141 179.83 205.459 179.304L204.881 179.12V175.891C205.67 176.126 206.225 176.667 206.544 177.513L207.926 176.907C207.701 176.267 207.32 175.722 206.784 175.271C206.258 174.82 205.623 174.528 204.881 174.397V173.086H203.753V174.34C203.142 174.378 202.606 174.528 202.145 174.792C201.685 175.055 201.323 175.403 201.059 175.835C200.796 176.267 200.665 176.761 200.665 177.316C200.665 177.992 200.871 178.584 201.285 179.092C201.699 179.59 202.3 179.962 203.09 180.206L203.753 180.417V183.618C203.283 183.505 202.864 183.289 202.498 182.97C202.14 182.641 201.863 182.213 201.666 181.686L200.256 182.279C200.5 183.031 200.933 183.665 201.553 184.182C202.173 184.699 202.907 185.014 203.753 185.127V186.41ZM203.626 178.725C203.184 178.594 202.855 178.396 202.639 178.133C202.422 177.87 202.314 177.569 202.314 177.231C202.314 176.836 202.446 176.512 202.709 176.258C202.972 176.004 203.32 175.849 203.753 175.793V178.768L203.626 178.725ZM205.064 180.826C205.477 180.958 205.792 181.137 206.009 181.362C206.234 181.588 206.347 181.893 206.347 182.279C206.347 182.655 206.215 182.97 205.952 183.223C205.689 183.468 205.332 183.618 204.881 183.675V180.77L205.064 180.826Z" fill="#C3D4E9"/>
<path d="M203.753 213.435H204.881V212.166C205.501 212.11 206.041 211.95 206.502 211.687C206.972 211.423 207.334 211.08 207.588 210.657C207.851 210.225 207.983 209.736 207.983 209.191C207.983 207.809 207.141 206.855 205.459 206.329L204.881 206.145V202.916C205.67 203.151 206.225 203.692 206.544 204.538L207.926 203.932C207.701 203.292 207.32 202.747 206.784 202.296C206.258 201.845 205.623 201.553 204.881 201.422V200.11H203.753V201.365C203.142 201.403 202.606 201.553 202.145 201.817C201.685 202.08 201.323 202.428 201.059 202.86C200.796 203.292 200.665 203.786 200.665 204.34C200.665 205.017 200.871 205.609 201.285 206.117C201.699 206.615 202.3 206.987 203.09 207.231L203.753 207.442V210.643C203.283 210.53 202.864 210.314 202.498 209.995C202.14 209.666 201.863 209.238 201.666 208.711L200.256 209.304C200.5 210.056 200.933 210.69 201.553 211.207C202.173 211.724 202.907 212.039 203.753 212.152V213.435ZM203.626 205.75C203.184 205.619 202.855 205.421 202.639 205.158C202.422 204.895 202.314 204.594 202.314 204.256C202.314 203.861 202.446 203.537 202.709 203.283C202.972 203.029 203.32 202.874 203.753 202.818V205.793L203.626 205.75ZM205.064 207.851C205.477 207.983 205.792 208.162 206.009 208.387C206.234 208.613 206.347 208.918 206.347 209.304C206.347 209.68 206.215 209.995 205.952 210.248C205.689 210.493 205.332 210.643 204.881 210.7V207.795L205.064 207.851Z" fill="#C3D4E9"/>
<path d="M203.753 240.46H204.881V239.191C205.501 239.135 206.041 238.975 206.502 238.712C206.972 238.448 207.334 238.105 207.588 237.682C207.851 237.25 207.983 236.761 207.983 236.216C207.983 234.834 207.141 233.88 205.459 233.354L204.881 233.17V229.941C205.67 230.176 206.225 230.717 206.544 231.563L207.926 230.957C207.701 230.317 207.32 229.772 206.784 229.321C206.258 228.87 205.623 228.578 204.881 228.447V227.136H203.753V228.39C203.142 228.428 202.606 228.578 202.145 228.842C201.685 229.105 201.323 229.453 201.059 229.885C200.796 230.317 200.665 230.811 200.665 231.366C200.665 232.042 200.871 232.635 201.285 233.142C201.699 233.64 202.3 234.012 203.09 234.256L203.753 234.468V237.668C203.283 237.555 202.864 237.339 202.498 237.02C202.14 236.691 201.863 236.263 201.666 235.737L200.256 236.329C200.5 237.081 200.933 237.715 201.553 238.232C202.173 238.749 202.907 239.064 203.753 239.177V240.46ZM203.626 232.776C203.184 232.644 202.855 232.447 202.639 232.183C202.422 231.92 202.314 231.619 202.314 231.281C202.314 230.886 202.446 230.562 202.709 230.308C202.972 230.054 203.32 229.899 203.753 229.843V232.818L203.626 232.776ZM205.064 234.876C205.477 235.008 205.792 235.187 206.009 235.412C206.234 235.638 206.347 235.943 206.347 236.329C206.347 236.705 206.215 237.02 205.952 237.273C205.689 237.518 205.332 237.668 204.881 237.725V234.82L205.064 234.876Z" fill="#C3D4E9"/>
<path d="M117.124 100.4H124.047V98.9194H118.788V95.8738H123.765V94.3933H118.788V91.3759H124.047V89.8954H117.124V100.4ZM124.394 100.4H126.269L128.004 97.8478L129.724 100.4H131.599L128.934 96.5788L131.613 92.7718H129.738L128.004 95.2957L126.269 92.7718H124.394L127.059 96.5788L124.394 100.4ZM132.419 103.22H134.012V99.5116C134.294 99.85 134.652 100.113 135.084 100.301C135.516 100.48 135.986 100.569 136.494 100.569C137.227 100.569 137.881 100.395 138.454 100.047C139.027 99.6902 139.479 99.2108 139.808 98.6092C140.146 98.0076 140.315 97.3308 140.315 96.5788C140.315 95.8268 140.146 95.15 139.808 94.5484C139.479 93.9468 139.023 93.4721 138.44 93.1243C137.866 92.7765 137.218 92.6026 136.494 92.6026C135.949 92.6026 135.455 92.7013 135.014 92.8987C134.581 93.0961 134.224 93.3734 133.942 93.7306V92.7718H132.419V103.22ZM136.339 99.0886C135.897 99.0886 135.498 98.9805 135.14 98.7643C134.793 98.5481 134.515 98.252 134.309 97.876C134.111 97.4906 134.012 97.0582 134.012 96.5788C134.012 96.0994 134.111 95.6717 134.309 95.2957C134.515 94.9197 134.793 94.6236 135.14 94.4074C135.498 94.1912 135.897 94.0831 136.339 94.0831C136.79 94.0831 137.19 94.1912 137.537 94.4074C137.885 94.6236 138.158 94.9197 138.355 95.2957C138.562 95.6717 138.665 96.0994 138.665 96.5788C138.665 97.0582 138.562 97.4906 138.355 97.876C138.158 98.252 137.885 98.5481 137.537 98.7643C137.19 98.9805 136.79 99.0886 136.339 99.0886ZM145.164 100.569C145.945 100.569 146.621 100.391 147.195 100.033C147.778 99.6761 148.187 99.2249 148.422 98.6797L147.124 98.0452C146.936 98.3648 146.678 98.6327 146.349 98.8489C146.029 99.0557 145.639 99.1591 145.179 99.1591C144.577 99.1591 144.065 98.9711 143.642 98.5951C143.219 98.2097 142.984 97.6927 142.937 97.0441H148.605C148.633 96.9313 148.652 96.8091 148.661 96.6775C148.671 96.5459 148.675 96.419 148.675 96.2968C148.675 95.6388 148.53 95.0325 148.238 94.4779C147.956 93.9139 147.543 93.4627 146.997 93.1243C146.462 92.7765 145.808 92.6026 145.038 92.6026C144.323 92.6026 143.679 92.7765 143.106 93.1243C142.542 93.4627 142.095 93.9327 141.766 94.5343C141.437 95.1265 141.273 95.8033 141.273 96.5647C141.273 97.3167 141.437 97.9982 141.766 98.6092C142.105 99.2108 142.565 99.6902 143.148 100.047C143.731 100.395 144.403 100.569 145.164 100.569ZM145.038 93.9421C145.573 93.9421 146.025 94.1113 146.391 94.4497C146.758 94.7881 146.955 95.2299 146.983 95.7751H142.965C143.059 95.1923 143.299 94.7411 143.684 94.4215C144.069 94.1019 144.521 93.9421 145.038 93.9421ZM149.948 100.4H151.542V95.902C151.542 95.338 151.701 94.8962 152.021 94.5766C152.341 94.2476 152.745 94.0831 153.234 94.0831C153.732 94.0831 154.136 94.2476 154.446 94.5766C154.766 94.8962 154.926 95.338 154.926 95.902V100.4H156.505V95.4649C156.505 94.9009 156.378 94.4074 156.124 93.9844C155.88 93.552 155.541 93.2136 155.109 92.9692C154.677 92.7248 154.183 92.6026 153.628 92.6026C153.158 92.6026 152.735 92.6966 152.359 92.8846C151.983 93.0726 151.687 93.3452 151.471 93.7024V92.7718H149.948V100.4ZM160.748 100.569C161.312 100.569 161.806 100.475 162.229 100.287C162.661 100.09 162.995 99.8218 163.23 99.4834C163.465 99.1356 163.582 98.7361 163.582 98.2849C163.582 97.7585 163.413 97.3073 163.075 96.9313C162.736 96.5459 162.252 96.2639 161.622 96.0853L160.381 95.7187C160.146 95.6435 159.926 95.5401 159.719 95.4085C159.512 95.2769 159.409 95.0795 159.409 94.8163C159.409 94.5437 159.512 94.3275 159.719 94.1677C159.926 94.0079 160.203 93.928 160.551 93.928C160.955 93.928 161.317 94.0361 161.636 94.2523C161.965 94.4685 162.205 94.7599 162.355 95.1265L163.582 94.5484C163.357 93.9374 162.971 93.4627 162.426 93.1243C161.881 92.7765 161.26 92.6026 160.565 92.6026C160.048 92.6026 159.582 92.7013 159.169 92.8987C158.755 93.0867 158.431 93.3499 158.196 93.6883C157.961 94.0267 157.843 94.4262 157.843 94.8868C157.843 95.4038 158.003 95.8503 158.323 96.2263C158.652 96.6023 159.145 96.8843 159.803 97.0723L161.002 97.4107C161.246 97.4765 161.477 97.5799 161.693 97.7209C161.909 97.8525 162.017 98.0546 162.017 98.3272C162.017 98.6186 161.9 98.8489 161.665 99.0181C161.43 99.1873 161.124 99.2719 160.748 99.2719C160.306 99.2719 159.902 99.145 159.535 98.8912C159.178 98.6374 158.896 98.2943 158.689 97.8619L157.463 98.44C157.698 99.0886 158.107 99.6056 158.689 99.991C159.282 100.376 159.968 100.569 160.748 100.569ZM168.443 100.569C169.223 100.569 169.9 100.391 170.473 100.033C171.056 99.6761 171.465 99.2249 171.7 98.6797L170.403 98.0452C170.215 98.3648 169.956 98.6327 169.627 98.8489C169.307 99.0557 168.917 99.1591 168.457 99.1591C167.855 99.1591 167.343 98.9711 166.92 98.5951C166.497 98.2097 166.262 97.6927 166.215 97.0441H171.883C171.911 96.9313 171.93 96.8091 171.939 96.6775C171.949 96.5459 171.954 96.419 171.954 96.2968C171.954 95.6388 171.808 95.0325 171.516 94.4779C171.234 93.9139 170.821 93.4627 170.276 93.1243C169.74 92.7765 169.087 92.6026 168.316 92.6026C167.601 92.6026 166.957 92.7765 166.384 93.1243C165.82 93.4627 165.374 93.9327 165.045 94.5343C164.716 95.1265 164.551 95.8033 164.551 96.5647C164.551 97.3167 164.716 97.9982 165.045 98.6092C165.383 99.2108 165.844 99.6902 166.426 100.047C167.009 100.395 167.681 100.569 168.443 100.569ZM168.316 93.9421C168.852 93.9421 169.303 94.1113 169.669 94.4497C170.036 94.7881 170.233 95.2299 170.262 95.7751H166.243C166.337 95.1923 166.577 94.7411 166.962 94.4215C167.348 94.1019 167.799 93.9421 168.316 93.9421ZM176.047 100.569C176.611 100.569 177.104 100.475 177.527 100.287C177.959 100.09 178.293 99.8218 178.528 99.4834C178.763 99.1356 178.881 98.7361 178.881 98.2849C178.881 97.7585 178.711 97.3073 178.373 96.9313C178.035 96.5459 177.551 96.2639 176.921 96.0853L175.68 95.7187C175.445 95.6435 175.224 95.5401 175.017 95.4085C174.81 95.2769 174.707 95.0795 174.707 94.8163C174.707 94.5437 174.81 94.3275 175.017 94.1677C175.224 94.0079 175.501 93.928 175.849 93.928C176.253 93.928 176.615 94.0361 176.935 94.2523C177.264 94.4685 177.504 94.7599 177.654 95.1265L178.881 94.5484C178.655 93.9374 178.27 93.4627 177.724 93.1243C177.179 92.7765 176.559 92.6026 175.863 92.6026C175.346 92.6026 174.881 92.7013 174.467 92.8987C174.054 93.0867 173.729 93.3499 173.494 93.6883C173.259 94.0267 173.142 94.4262 173.142 94.8868C173.142 95.4038 173.302 95.8503 173.621 96.2263C173.95 96.6023 174.444 96.8843 175.102 97.0723L176.3 97.4107C176.545 97.4765 176.775 97.5799 176.991 97.7209C177.207 97.8525 177.316 98.0546 177.316 98.3272C177.316 98.6186 177.198 98.8489 176.963 99.0181C176.728 99.1873 176.423 99.2719 176.047 99.2719C175.605 99.2719 175.201 99.145 174.834 98.8912C174.477 98.6374 174.195 98.2943 173.988 97.8619L172.761 98.44C172.996 99.0886 173.405 99.6056 173.988 99.991C174.58 100.376 175.266 100.569 176.047 100.569Z" fill="#1A202C"/>
<rect x="86.3999" y="121.825" width="48.175" height="5.875" rx="2.9375" fill="#C3D4E9"/>
<rect x="86.3999" y="148.85" width="92.825" height="5.875" rx="2.9375" fill="#C3D4E9"/>
<rect x="86.3999" y="175.875" width="70.5" height="5.875" rx="2.9375" fill="#C3D4E9"/>
<rect x="86.3999" y="202.9" width="36.425" height="5.875" rx="2.9375" fill="#C3D4E9"/>
<rect x="127.525" y="202.9" width="36.425" height="5.875" rx="2.9375" fill="#C3D4E9"/>
<rect x="86.3999" y="229.925" width="88.125" height="5.875" rx="2.9375" fill="#C3D4E9"/>
</g>
<circle cx="30" cy="30" r="26.9333" fill="#7C5CFC" stroke="#0D121F" stroke-width="5.86667"/>
<path d="M24.2701 39.72H35.8861V37.3733H27.9309L32.1549 32.8677C33.3126 31.6161 34.1652 30.5445 34.7128 29.6528C35.276 28.7454 35.5576 27.8145 35.5576 26.8602C35.5576 25.8903 35.3229 25.0377 34.8536 24.3024C34.3999 23.5671 33.7585 22.9961 32.9293 22.5893C32.1002 22.1669 31.1302 21.9557 30.0195 21.9557C29.0651 21.9557 28.1812 22.1434 27.3677 22.5189C26.5542 22.8944 25.8659 23.4263 25.3027 24.1146C24.7395 24.7873 24.3562 25.5852 24.1528 26.5082L26.5933 27.2122C26.828 26.3049 27.2504 25.6165 27.8605 25.1472C28.4707 24.6622 29.1981 24.4197 30.0429 24.4197C30.8721 24.4197 31.537 24.6544 32.0376 25.1237C32.5539 25.593 32.812 26.2423 32.812 27.0714C32.812 27.5877 32.6947 28.0805 32.46 28.5498C32.2253 29.0192 31.8342 29.5667 31.2867 30.1925C30.7391 30.8026 29.996 31.6083 29.0573 32.6096L24.2701 37.7253V39.72Z" fill="white"/>
<defs>
<clipPath id="clip0_130_4725">
<rect x="30" y="29" width="235" height="235" rx="18.8" fill="white"/>
</clipPath>
</defs>
</svg>
