<svg width="265" height="264" viewBox="0 0 265 264" fill="none" xmlns="http://www.w3.org/2000/svg">
<g clipPath="url(#clip0_130_4720)">
<rect x="30" y="29" width="235" height="235" rx="18.8445" fill="#F3F5F7"/>
<path d="M67.6892 80.8223C67.6892 73.0167 74.0169 66.689 81.8225 66.689H265.556V264.556H67.6892V80.8223Z" fill="white"/>
<path d="M100.945 110.125C101.717 110.125 102.391 109.965 102.966 109.645C103.55 109.324 104.007 108.886 104.337 108.33C104.666 107.765 104.831 107.124 104.831 106.408V99.4262H103.432V106.38C103.432 106.86 103.324 107.289 103.107 107.666C102.9 108.033 102.608 108.321 102.231 108.528C101.863 108.735 101.435 108.839 100.945 108.839C100.455 108.839 100.021 108.735 99.6444 108.528C99.2769 108.321 98.9848 108.033 98.7681 107.666C98.5608 107.289 98.4572 106.86 98.4572 106.38V99.4262H97.058V106.408C97.058 107.124 97.2229 107.765 97.5526 108.33C97.8824 108.886 98.3394 109.324 98.9236 109.645C99.5077 109.965 100.181 110.125 100.945 110.125ZM109.397 110.125C109.944 110.125 110.424 110.031 110.839 109.842C111.253 109.654 111.578 109.395 111.814 109.065C112.05 108.726 112.167 108.34 112.167 107.906C112.167 107.379 111.993 106.926 111.644 106.549C111.296 106.173 110.815 105.895 110.203 105.716L108.959 105.348C108.808 105.301 108.653 105.244 108.493 105.178C108.332 105.103 108.196 104.999 108.083 104.868C107.97 104.726 107.913 104.547 107.913 104.33C107.913 104.029 108.026 103.784 108.252 103.596C108.488 103.407 108.794 103.313 109.171 103.313C109.586 103.313 109.962 103.431 110.302 103.666C110.65 103.892 110.909 104.203 111.079 104.599L112.153 104.104C111.927 103.492 111.545 103.016 111.008 102.677C110.481 102.338 109.882 102.168 109.213 102.168C108.714 102.168 108.262 102.262 107.857 102.451C107.461 102.639 107.145 102.903 106.91 103.242C106.684 103.572 106.57 103.963 106.57 104.415C106.57 104.905 106.726 105.339 107.037 105.716C107.357 106.083 107.861 106.361 108.549 106.549L109.694 106.874C109.854 106.912 110.019 106.973 110.189 107.058C110.368 107.134 110.518 107.242 110.641 107.383C110.773 107.515 110.839 107.694 110.839 107.92C110.839 108.241 110.702 108.5 110.429 108.698C110.156 108.896 109.812 108.994 109.397 108.994C108.935 108.994 108.516 108.867 108.139 108.613C107.762 108.349 107.466 107.986 107.249 107.525L106.203 108.033C106.439 108.674 106.839 109.183 107.404 109.56C107.97 109.937 108.634 110.125 109.397 110.125ZM117.11 110.125C117.892 110.125 118.571 109.941 119.146 109.574C119.72 109.206 120.125 108.759 120.361 108.231L119.259 107.666C119.042 108.033 118.759 108.335 118.411 108.57C118.062 108.806 117.633 108.924 117.124 108.924C116.7 108.924 116.305 108.83 115.937 108.641C115.579 108.443 115.282 108.165 115.047 107.807C114.821 107.449 114.698 107.025 114.679 106.535H120.502C120.549 106.281 120.573 106.045 120.573 105.829C120.573 105.197 120.432 104.604 120.149 104.048C119.866 103.492 119.456 103.04 118.919 102.691C118.392 102.342 117.751 102.168 116.997 102.168C116.291 102.168 115.659 102.338 115.103 102.677C114.547 103.016 114.105 103.487 113.775 104.09C113.454 104.684 113.294 105.362 113.294 106.125C113.294 106.889 113.459 107.572 113.789 108.175C114.119 108.778 114.571 109.254 115.146 109.602C115.721 109.951 116.375 110.125 117.11 110.125ZM116.997 103.341C117.384 103.341 117.737 103.431 118.057 103.61C118.378 103.779 118.637 104.02 118.835 104.33C119.032 104.641 119.136 104.999 119.146 105.405H114.708C114.802 104.764 115.066 104.26 115.499 103.892C115.933 103.525 116.432 103.341 116.997 103.341ZM122.004 109.956H123.318V105.419C123.318 104.806 123.483 104.335 123.813 104.005C124.143 103.666 124.576 103.497 125.113 103.497H125.778V102.253H125.311C124.84 102.253 124.435 102.338 124.096 102.507C123.757 102.667 123.488 102.912 123.29 103.242V102.338H122.004V109.956ZM126.663 109.956H127.977V105.447C127.977 104.825 128.151 104.335 128.5 103.977C128.849 103.619 129.291 103.44 129.828 103.44C130.366 103.44 130.804 103.619 131.143 103.977C131.482 104.326 131.652 104.816 131.652 105.447V109.956H132.98V105.023C132.98 104.477 132.853 103.991 132.599 103.567C132.354 103.134 132.014 102.795 131.581 102.55C131.157 102.295 130.672 102.168 130.125 102.168C129.654 102.168 129.23 102.267 128.853 102.465C128.476 102.653 128.175 102.922 127.949 103.27V102.338H126.663V109.956ZM136.811 110.125C137.367 110.125 137.867 110.022 138.31 109.814C138.752 109.598 139.11 109.315 139.384 108.966V109.956H140.67V104.783C140.67 104.265 140.543 103.812 140.288 103.426C140.043 103.03 139.699 102.724 139.256 102.507C138.814 102.281 138.3 102.168 137.716 102.168C137.264 102.168 136.83 102.248 136.416 102.408C136.001 102.569 135.638 102.79 135.327 103.073C135.016 103.346 134.79 103.657 134.649 104.005L135.794 104.599C135.954 104.241 136.199 103.949 136.529 103.723C136.859 103.497 137.245 103.384 137.688 103.384C138.187 103.384 138.587 103.515 138.889 103.779C139.2 104.034 139.355 104.368 139.355 104.783V105.136L136.755 105.56C135.897 105.701 135.266 105.989 134.861 106.422C134.465 106.846 134.267 107.36 134.267 107.963C134.267 108.603 134.503 109.126 134.974 109.532C135.455 109.927 136.067 110.125 136.811 110.125ZM135.652 107.92C135.652 107.591 135.761 107.313 135.978 107.086C136.204 106.86 136.562 106.705 137.052 106.62L139.355 106.238V106.719C139.355 107.143 139.256 107.529 139.059 107.878C138.861 108.227 138.583 108.505 138.225 108.712C137.867 108.91 137.447 109.009 136.967 109.009C136.59 109.009 136.274 108.905 136.02 108.698C135.775 108.49 135.652 108.231 135.652 107.92ZM142.425 109.956H143.74V105.447C143.74 104.825 143.909 104.335 144.248 103.977C144.588 103.619 145.012 103.44 145.52 103.44C146.039 103.44 146.458 103.619 146.778 103.977C147.108 104.326 147.273 104.816 147.273 105.447V109.956H148.601V105.447C148.601 104.825 148.766 104.335 149.096 103.977C149.435 103.619 149.864 103.44 150.382 103.44C150.891 103.44 151.31 103.619 151.64 103.977C151.97 104.326 152.135 104.816 152.135 105.447V109.956H153.463V105.023C153.463 104.477 153.336 103.991 153.082 103.567C152.827 103.134 152.483 102.795 152.05 102.55C151.626 102.295 151.15 102.168 150.622 102.168C150.114 102.168 149.647 102.286 149.223 102.521C148.809 102.757 148.479 103.101 148.234 103.553C148.008 103.129 147.678 102.795 147.245 102.55C146.821 102.295 146.349 102.168 145.831 102.168C145.379 102.168 144.964 102.267 144.588 102.465C144.22 102.653 143.928 102.927 143.711 103.285V102.338H142.425V109.956ZM158.552 110.125C159.335 110.125 160.013 109.941 160.588 109.574C161.162 109.206 161.568 108.759 161.803 108.231L160.701 107.666C160.484 108.033 160.201 108.335 159.853 108.57C159.504 108.806 159.075 108.924 158.567 108.924C158.143 108.924 157.747 108.83 157.379 108.641C157.021 108.443 156.725 108.165 156.489 107.807C156.263 107.449 156.14 107.025 156.122 106.535H161.944C161.992 106.281 162.015 106.045 162.015 105.829C162.015 105.197 161.874 104.604 161.591 104.048C161.308 103.492 160.899 103.04 160.362 102.691C159.834 102.342 159.193 102.168 158.439 102.168C157.733 102.168 157.101 102.338 156.546 102.677C155.99 103.016 155.547 103.487 155.217 104.09C154.897 104.684 154.736 105.362 154.736 106.125C154.736 106.889 154.901 107.572 155.231 108.175C155.561 108.778 156.013 109.254 156.588 109.602C157.163 109.951 157.818 110.125 158.552 110.125ZM158.439 103.341C158.826 103.341 159.179 103.431 159.499 103.61C159.82 103.779 160.079 104.02 160.277 104.33C160.475 104.641 160.578 104.999 160.588 105.405H156.15C156.244 104.764 156.508 104.26 156.941 103.892C157.375 103.525 157.874 103.341 158.439 103.341Z" fill="#1A202C"/>
<rect x="95.9556" y="122.044" width="169.6" height="35.3334" rx="2.35556" fill="#F3F5F7"/>
<path d="M111.333 149.398C111.832 149.398 112.256 149.295 112.605 149.087C112.953 148.889 113.241 148.626 113.467 148.296C113.703 147.966 113.896 147.617 114.046 147.25L117.509 138.713H116.336L113.863 144.96L111.389 138.713H110.245L113.269 146.289L113.001 146.939C112.765 147.485 112.525 147.853 112.28 148.041C112.035 148.239 111.681 148.338 111.22 148.338C111.069 148.338 110.918 148.324 110.768 148.296C110.626 148.277 110.508 148.263 110.414 148.253V149.243C110.565 149.299 110.716 149.337 110.866 149.356C111.027 149.384 111.182 149.398 111.333 149.398ZM122.023 146.458C122.73 146.458 123.37 146.289 123.945 145.95C124.529 145.61 124.996 145.144 125.344 144.55C125.693 143.947 125.867 143.26 125.867 142.487C125.867 141.724 125.698 141.045 125.358 140.452C125.029 139.858 124.572 139.392 123.987 139.053C123.413 138.713 122.758 138.544 122.023 138.544C121.288 138.544 120.628 138.718 120.044 139.067C119.469 139.406 119.012 139.872 118.673 140.466C118.334 141.059 118.164 141.733 118.164 142.487C118.164 143.25 118.334 143.933 118.673 144.536C119.022 145.13 119.488 145.601 120.072 145.95C120.657 146.289 121.307 146.458 122.023 146.458ZM122.023 145.398C121.514 145.398 121.052 145.271 120.638 145.017C120.233 144.762 119.908 144.414 119.663 143.971C119.418 143.528 119.295 143.033 119.295 142.487C119.295 141.94 119.418 141.451 119.663 141.017C119.908 140.584 120.233 140.24 120.638 139.985C121.052 139.731 121.514 139.604 122.023 139.604C122.532 139.604 122.989 139.731 123.394 139.985C123.808 140.24 124.133 140.584 124.369 141.017C124.614 141.451 124.736 141.94 124.736 142.487C124.736 143.033 124.614 143.528 124.369 143.971C124.133 144.414 123.808 144.762 123.394 145.017C122.989 145.271 122.532 145.398 122.023 145.398ZM130.281 146.458C130.752 146.458 131.176 146.359 131.553 146.162C131.929 145.964 132.231 145.695 132.457 145.356V146.289H133.517V138.713H132.457V143.222C132.457 143.9 132.269 144.433 131.892 144.819C131.524 145.205 131.048 145.398 130.464 145.398C129.89 145.398 129.418 145.215 129.051 144.847C128.684 144.47 128.5 143.976 128.5 143.363V138.713H127.44V143.49C127.44 144.075 127.562 144.593 127.807 145.045C128.062 145.488 128.406 145.837 128.839 146.091C129.272 146.336 129.753 146.458 130.281 146.458ZM135.556 146.289H136.616V141.625C136.616 141.003 136.781 140.522 137.11 140.183C137.44 139.844 137.878 139.674 138.425 139.674H139.089V138.614H138.609C138.147 138.614 137.746 138.695 137.407 138.855C137.077 139.015 136.814 139.241 136.616 139.533V138.713H135.556V146.289ZM140.148 147.278H146.508V146.289H140.148V147.278ZM151.181 146.458C151.652 146.458 152.076 146.359 152.453 146.162C152.83 145.964 153.131 145.695 153.357 145.356V146.289H154.417V138.713H153.357V143.222C153.357 143.9 153.169 144.433 152.792 144.819C152.425 145.205 151.949 145.398 151.365 145.398C150.79 145.398 150.319 145.215 149.951 144.847C149.584 144.47 149.4 143.976 149.4 143.363V138.713H148.34V143.49C148.34 144.075 148.462 144.593 148.707 145.045C148.962 145.488 149.306 145.837 149.739 146.091C150.173 146.336 150.653 146.458 151.181 146.458ZM159.085 146.458C159.612 146.458 160.079 146.369 160.484 146.19C160.889 146.001 161.205 145.742 161.431 145.413C161.666 145.083 161.784 144.711 161.784 144.296C161.784 143.787 161.61 143.344 161.261 142.967C160.922 142.591 160.446 142.313 159.834 142.134L158.576 141.766C158.444 141.728 158.289 141.672 158.11 141.597C157.94 141.521 157.789 141.408 157.657 141.257C157.525 141.107 157.459 140.904 157.459 140.65C157.459 140.32 157.587 140.047 157.841 139.83C158.095 139.613 158.435 139.505 158.859 139.505C159.292 139.505 159.683 139.627 160.032 139.872C160.39 140.108 160.663 140.438 160.851 140.862L161.756 140.438C161.539 139.844 161.167 139.382 160.639 139.053C160.121 138.713 159.542 138.544 158.901 138.544C158.43 138.544 158.001 138.633 157.615 138.812C157.229 138.991 156.922 139.246 156.696 139.575C156.47 139.905 156.357 140.292 156.357 140.734C156.357 141.206 156.512 141.62 156.823 141.978C157.134 142.336 157.638 142.614 158.336 142.812L159.424 143.123C159.575 143.161 159.749 143.222 159.947 143.307C160.145 143.391 160.319 143.514 160.47 143.674C160.621 143.825 160.696 144.032 160.696 144.296C160.696 144.654 160.54 144.946 160.23 145.172C159.919 145.389 159.537 145.497 159.085 145.497C158.614 145.497 158.18 145.361 157.784 145.087C157.398 144.814 157.097 144.447 156.88 143.985L155.99 144.409C156.235 145.04 156.63 145.54 157.177 145.907C157.723 146.275 158.359 146.458 159.085 146.458ZM166.954 146.458C167.472 146.458 167.943 146.374 168.367 146.204C168.801 146.025 169.173 145.794 169.484 145.511C169.795 145.219 170.026 144.904 170.176 144.565L169.272 144.084C169.036 144.48 168.73 144.81 168.353 145.073C167.976 145.337 167.51 145.469 166.954 145.469C166.502 145.469 166.078 145.361 165.682 145.144C165.286 144.927 164.961 144.626 164.707 144.239C164.462 143.844 164.33 143.373 164.311 142.826H170.275C170.294 142.704 170.308 142.586 170.318 142.473C170.327 142.35 170.332 142.242 170.332 142.148C170.332 141.695 170.252 141.257 170.092 140.833C169.931 140.4 169.701 140.014 169.399 139.674C169.098 139.326 168.73 139.053 168.297 138.855C167.873 138.647 167.387 138.544 166.841 138.544C166.153 138.544 165.531 138.713 164.975 139.053C164.429 139.392 163.995 139.858 163.675 140.452C163.355 141.036 163.195 141.71 163.195 142.473C163.195 143.236 163.359 143.919 163.689 144.522C164.019 145.125 164.467 145.601 165.032 145.95C165.607 146.289 166.247 146.458 166.954 146.458ZM166.841 139.533C167.265 139.533 167.651 139.632 168 139.83C168.358 140.028 168.641 140.301 168.848 140.65C169.065 140.989 169.178 141.385 169.187 141.837H164.339C164.396 141.366 164.542 140.961 164.778 140.621C165.022 140.273 165.324 140.004 165.682 139.816C166.04 139.627 166.426 139.533 166.841 139.533ZM172.06 146.289H173.12V141.625C173.12 141.003 173.284 140.522 173.614 140.183C173.944 139.844 174.382 139.674 174.929 139.674H175.593V138.614H175.112C174.651 138.614 174.25 138.695 173.911 138.855C173.581 139.015 173.317 139.241 173.12 139.533V138.713H172.06V146.289Z" fill="#1A202C"/>
<path d="M177.599 148.974H178.73V134.346H177.599V148.974Z" fill="#1A202C"/>
<path d="M97.1286 186.511H98.5137V182.483H100.846C101.543 182.483 102.155 182.351 102.683 182.087C103.211 181.824 103.621 181.447 103.913 180.957C104.214 180.467 104.365 179.892 104.365 179.233C104.365 178.564 104.214 177.989 103.913 177.508C103.621 177.018 103.211 176.641 102.683 176.378C102.155 176.114 101.543 175.982 100.846 175.982H97.1286V186.511ZM98.5137 181.211V177.254H100.888C101.519 177.254 102.023 177.433 102.4 177.791C102.777 178.14 102.966 178.62 102.966 179.233C102.966 179.836 102.777 180.316 102.4 180.674C102.023 181.032 101.519 181.211 100.888 181.211H98.5137ZM107.495 186.681C108.051 186.681 108.55 186.577 108.993 186.37C109.436 186.153 109.794 185.871 110.067 185.522V186.511H111.353V181.338C111.353 180.82 111.226 180.368 110.971 179.982C110.726 179.586 110.383 179.28 109.94 179.063C109.497 178.837 108.983 178.724 108.399 178.724C107.947 178.724 107.514 178.804 107.099 178.964C106.684 179.124 106.322 179.346 106.011 179.628C105.7 179.902 105.474 180.212 105.332 180.561L106.477 181.155C106.637 180.797 106.882 180.505 107.212 180.278C107.542 180.052 107.928 179.939 108.371 179.939C108.87 179.939 109.271 180.071 109.572 180.335C109.883 180.589 110.039 180.924 110.039 181.338V181.692L107.438 182.116C106.581 182.257 105.949 182.544 105.544 182.978C105.149 183.402 104.951 183.915 104.951 184.518C104.951 185.159 105.186 185.682 105.657 186.087C106.138 186.483 106.75 186.681 107.495 186.681ZM106.336 184.476C106.336 184.146 106.444 183.868 106.661 183.642C106.887 183.416 107.245 183.261 107.735 183.176L110.039 182.794V183.275C110.039 183.699 109.94 184.085 109.742 184.434C109.544 184.782 109.266 185.06 108.908 185.267C108.55 185.465 108.131 185.564 107.65 185.564C107.273 185.564 106.958 185.461 106.703 185.253C106.458 185.046 106.336 184.787 106.336 184.476ZM115.836 186.681C116.383 186.681 116.863 186.587 117.278 186.398C117.692 186.21 118.017 185.951 118.253 185.621C118.488 185.282 118.606 184.895 118.606 184.462C118.606 183.934 118.432 183.482 118.083 183.105C117.735 182.728 117.254 182.45 116.642 182.271L115.398 181.904C115.247 181.857 115.092 181.8 114.932 181.734C114.771 181.659 114.635 181.555 114.522 181.423C114.409 181.282 114.352 181.103 114.352 180.886C114.352 180.585 114.465 180.34 114.691 180.151C114.927 179.963 115.233 179.869 115.61 179.869C116.025 179.869 116.401 179.986 116.741 180.222C117.089 180.448 117.348 180.759 117.518 181.155L118.592 180.66C118.366 180.048 117.984 179.572 117.447 179.233C116.92 178.893 116.321 178.724 115.652 178.724C115.153 178.724 114.701 178.818 114.296 179.006C113.9 179.195 113.584 179.459 113.349 179.798C113.122 180.128 113.009 180.519 113.009 180.971C113.009 181.461 113.165 181.894 113.476 182.271C113.796 182.639 114.3 182.917 114.988 183.105L116.133 183.43C116.293 183.468 116.458 183.529 116.628 183.614C116.807 183.689 116.957 183.798 117.08 183.939C117.212 184.071 117.278 184.25 117.278 184.476C117.278 184.796 117.141 185.055 116.868 185.253C116.595 185.451 116.251 185.55 115.836 185.55C115.374 185.55 114.955 185.423 114.578 185.169C114.201 184.905 113.905 184.542 113.688 184.08L112.642 184.589C112.878 185.23 113.278 185.739 113.843 186.115C114.409 186.492 115.073 186.681 115.836 186.681ZM122.772 186.681C123.318 186.681 123.799 186.587 124.214 186.398C124.628 186.21 124.953 185.951 125.189 185.621C125.424 185.282 125.542 184.895 125.542 184.462C125.542 183.934 125.368 183.482 125.019 183.105C124.671 182.728 124.19 182.45 123.578 182.271L122.334 181.904C122.183 181.857 122.028 181.8 121.867 181.734C121.707 181.659 121.571 181.555 121.458 181.423C121.344 181.282 121.288 181.103 121.288 180.886C121.288 180.585 121.401 180.34 121.627 180.151C121.863 179.963 122.169 179.869 122.546 179.869C122.96 179.869 123.337 179.986 123.676 180.222C124.025 180.448 124.284 180.759 124.454 181.155L125.528 180.66C125.302 180.048 124.92 179.572 124.383 179.233C123.855 178.893 123.257 178.724 122.588 178.724C122.089 178.724 121.637 178.818 121.231 179.006C120.836 179.195 120.52 179.459 120.284 179.798C120.058 180.128 119.945 180.519 119.945 180.971C119.945 181.461 120.101 181.894 120.412 182.271C120.732 182.639 121.236 182.917 121.924 183.105L123.069 183.43C123.229 183.468 123.394 183.529 123.563 183.614C123.742 183.689 123.893 183.798 124.016 183.939C124.148 184.071 124.214 184.25 124.214 184.476C124.214 184.796 124.077 185.055 123.804 185.253C123.53 185.451 123.186 185.55 122.772 185.55C122.31 185.55 121.891 185.423 121.514 185.169C121.137 184.905 120.84 184.542 120.624 184.08L119.578 184.589C119.813 185.23 120.214 185.739 120.779 186.115C121.344 186.492 122.009 186.681 122.772 186.681ZM128.595 186.511H129.852L131.661 180.773L133.471 186.511H134.728L137.343 178.893H135.901L134.064 184.476L132.283 178.893H131.04L129.259 184.476L127.436 178.893H125.98L128.595 186.511ZM141.716 186.681C142.432 186.681 143.087 186.511 143.681 186.172C144.274 185.833 144.745 185.362 145.094 184.759C145.452 184.156 145.631 183.468 145.631 182.695C145.631 181.932 145.457 181.254 145.108 180.66C144.769 180.057 144.302 179.586 143.709 179.247C143.115 178.898 142.451 178.724 141.716 178.724C140.972 178.724 140.303 178.898 139.709 179.247C139.115 179.586 138.644 180.057 138.296 180.66C137.957 181.254 137.787 181.932 137.787 182.695C137.787 183.458 137.961 184.142 138.31 184.745C138.658 185.348 139.13 185.823 139.723 186.172C140.317 186.511 140.981 186.681 141.716 186.681ZM141.716 185.409C141.235 185.409 140.802 185.291 140.416 185.055C140.039 184.82 139.737 184.5 139.511 184.094C139.285 183.68 139.172 183.213 139.172 182.695C139.172 182.177 139.285 181.715 139.511 181.31C139.737 180.905 140.039 180.585 140.416 180.349C140.802 180.114 141.235 179.996 141.716 179.996C142.187 179.996 142.611 180.114 142.988 180.349C143.374 180.585 143.676 180.905 143.893 181.31C144.119 181.715 144.232 182.177 144.232 182.695C144.232 183.213 144.119 183.68 143.893 184.094C143.676 184.5 143.374 184.82 142.988 185.055C142.611 185.291 142.187 185.409 141.716 185.409ZM147.063 186.511H148.377V181.974C148.377 181.362 148.542 180.891 148.872 180.561C149.201 180.222 149.635 180.052 150.172 180.052H150.836V178.809H150.37C149.899 178.809 149.494 178.893 149.154 179.063C148.815 179.223 148.547 179.468 148.349 179.798V178.893H147.063V186.511ZM155.184 186.681C155.749 186.681 156.263 186.572 156.724 186.356C157.195 186.13 157.572 185.809 157.855 185.395V186.511H159.141V175.812H157.813V179.911C157.52 179.534 157.148 179.242 156.696 179.035C156.244 178.827 155.74 178.724 155.184 178.724C154.468 178.724 153.822 178.898 153.247 179.247C152.682 179.595 152.235 180.071 151.905 180.674C151.575 181.268 151.41 181.946 151.41 182.709C151.41 183.463 151.575 184.142 151.905 184.745C152.235 185.338 152.682 185.809 153.247 186.158C153.822 186.507 154.468 186.681 155.184 186.681ZM155.297 185.409C154.816 185.409 154.388 185.291 154.011 185.055C153.634 184.82 153.337 184.5 153.12 184.094C152.904 183.68 152.795 183.218 152.795 182.709C152.795 182.191 152.904 181.729 153.12 181.324C153.337 180.91 153.634 180.585 154.011 180.349C154.397 180.114 154.826 179.996 155.297 179.996C155.777 179.996 156.206 180.118 156.583 180.363C156.96 180.599 157.257 180.919 157.473 181.324C157.699 181.729 157.813 182.191 157.813 182.709C157.813 183.218 157.699 183.68 157.473 184.094C157.257 184.5 156.96 184.82 156.583 185.055C156.206 185.291 155.777 185.409 155.297 185.409Z" fill="#1A202C"/>
<rect x="95.9556" y="198.6" width="169.6" height="35.3334" rx="2.35556" fill="#F3F5F7"/>
<circle cx="113.034" cy="216.856" r="2.94445" fill="#1A202C"/>
<circle cx="125.989" cy="216.856" r="2.94445" fill="#1A202C"/>
<circle cx="138.945" cy="216.856" r="2.94445" fill="#1A202C"/>
<circle cx="151.9" cy="216.856" r="2.94445" fill="#1A202C"/>
<circle cx="164.856" cy="216.856" r="2.94445" fill="#1A202C"/>
<circle cx="177.811" cy="216.856" r="2.94445" fill="#1A202C"/>
<circle cx="190.767" cy="216.856" r="2.94445" fill="#1A202C"/>
<circle cx="203.723" cy="216.856" r="2.94445" fill="#1A202C"/>
<circle cx="216.678" cy="216.856" r="2.94445" fill="#1A202C"/>
</g>
<circle cx="30" cy="30" r="26.9333" fill="#7C5CFC" stroke="#0D121F" strokeWidth="5.86667"/>
<path d="M29.6446 39.72H32.3902V22.2373H26.2889V24.584H29.6446V39.72Z" fill="white"/>
<defs>
<clipPath id="clip0_130_4720">
<rect x="30" y="29" width="235" height="235" rx="18.8445" fill="white"/>
</clipPath>
</defs>
</svg>
