<svg width="319" height="211" viewBox="0 0 319 211" fill="none" xmlns="http://www.w3.org/2000/svg">
<rect width="319" height="211" rx="8" fill="#1A202C"/>
<path d="M26 43L26 95" stroke="#7C5CFC" strokeWidth="2"/>
<path d="M26 107L25.8308 185" stroke="#E7DEFE" strokeWidth="2" stroke-dasharray="8 8"/>
<circle cx="26" cy="32" r="16" fill="#7C5CFC"/>
<path d="M25.6828 38.0227H27.5548V26.1027H23.3948V27.7027H25.6828V38.0227Z" fill="white"/>
<path d="M55.6483 38H57.0203V34.01H59.3163L61.5703 38H63.1663L60.7443 33.772C61.379 33.5573 61.883 33.1933 62.2563 32.68C62.6296 32.1573 62.8163 31.5273 62.8163 30.79C62.8163 30.1273 62.667 29.558 62.3683 29.082C62.079 28.5967 61.673 28.2233 61.1503 27.962C60.6276 27.7007 60.021 27.57 59.3303 27.57H55.6483V38ZM57.0203 32.75V28.83H59.3723C59.9883 28.83 60.483 29.0073 60.8563 29.362C61.239 29.7073 61.4303 30.1833 61.4303 30.79C61.4303 31.3873 61.239 31.8633 60.8563 32.218C60.483 32.5727 59.9883 32.75 59.3723 32.75H57.0203ZM67.3406 38.168C68.1153 38.168 68.7873 37.986 69.3566 37.622C69.9259 37.258 70.3273 36.8147 70.5606 36.292L69.4686 35.732C69.2539 36.096 68.9739 36.3947 68.6286 36.628C68.2833 36.8613 67.8586 36.978 67.3546 36.978C66.9346 36.978 66.5426 36.8847 66.1786 36.698C65.8239 36.502 65.5299 36.2267 65.2966 35.872C65.0726 35.5173 64.9513 35.0973 64.9326 34.612H70.7006C70.7473 34.36 70.7706 34.1267 70.7706 33.912C70.7706 33.2867 70.6306 32.6987 70.3506 32.148C70.0706 31.5973 69.6646 31.1493 69.1326 30.804C68.6099 30.4587 67.9753 30.286 67.2286 30.286C66.5286 30.286 65.9033 30.454 65.3526 30.79C64.8019 31.126 64.3633 31.5927 64.0366 32.19C63.7193 32.778 63.5606 33.45 63.5606 34.206C63.5606 34.962 63.7239 35.6387 64.0506 36.236C64.3773 36.8333 64.8253 37.3047 65.3946 37.65C65.9639 37.9953 66.6126 38.168 67.3406 38.168ZM67.2286 31.448C67.6113 31.448 67.9613 31.5367 68.2786 31.714C68.5959 31.882 68.8526 32.12 69.0486 32.428C69.2446 32.736 69.3473 33.0907 69.3566 33.492H64.9606C65.0539 32.8573 65.3153 32.358 65.7446 31.994C66.1739 31.63 66.6686 31.448 67.2286 31.448ZM75.7862 41.08C76.4862 41.08 77.1069 40.9307 77.6482 40.632C78.1989 40.3427 78.6282 39.9413 78.9362 39.428C79.2442 38.9147 79.3982 38.3313 79.3982 37.678V30.454H78.1242V31.504C77.8255 31.1213 77.4569 30.8227 77.0182 30.608C76.5795 30.3933 76.0942 30.286 75.5622 30.286C74.8529 30.286 74.2182 30.454 73.6582 30.79C73.1075 31.1167 72.6735 31.5647 72.3562 32.134C72.0389 32.7033 71.8802 33.3427 71.8802 34.052C71.8802 34.7613 72.0389 35.4007 72.3562 35.97C72.6829 36.5393 73.1215 36.992 73.6722 37.328C74.2322 37.6547 74.8669 37.818 75.5762 37.818C76.0895 37.818 76.5655 37.7153 77.0042 37.51C77.4429 37.3047 77.8022 37.0107 78.0822 36.628V37.678C78.0822 38.1353 77.9749 38.5227 77.7602 38.84C77.5549 39.1667 77.2795 39.4093 76.9342 39.568C76.5889 39.736 76.2015 39.82 75.7722 39.82C75.2122 39.82 74.7455 39.694 74.3722 39.442C74.0082 39.1993 73.7609 38.9007 73.6302 38.546L72.4122 39.106C72.6642 39.694 73.0889 40.17 73.6862 40.534C74.2835 40.898 74.9835 41.08 75.7862 41.08ZM75.6882 36.558C75.2215 36.558 74.8015 36.446 74.4282 36.222C74.0642 35.998 73.7749 35.6993 73.5602 35.326C73.3549 34.9433 73.2522 34.5187 73.2522 34.052C73.2522 33.5853 73.3595 33.1653 73.5742 32.792C73.7889 32.4093 74.0782 32.106 74.4422 31.882C74.8155 31.658 75.2309 31.546 75.6882 31.546C76.1362 31.546 76.5422 31.658 76.9062 31.882C77.2702 32.106 77.5549 32.4093 77.7602 32.792C77.9749 33.1653 78.0822 33.5853 78.0822 34.052C78.0822 34.5093 77.9749 34.9293 77.7602 35.312C77.5549 35.6947 77.2702 35.998 76.9062 36.222C76.5422 36.446 76.1362 36.558 75.6882 36.558ZM81.1367 29.25H82.4387V27.57H81.1367V29.25ZM81.1367 38H82.4387V30.454H81.1367V38ZM86.881 38.168C87.4223 38.168 87.8983 38.0747 88.309 37.888C88.7196 37.7013 89.0416 37.4447 89.275 37.118C89.5083 36.782 89.625 36.3993 89.625 35.97C89.625 35.4473 89.4523 34.9993 89.107 34.626C88.7616 34.2527 88.2856 33.9773 87.679 33.8L86.447 33.436C86.2976 33.3893 86.1436 33.3333 85.985 33.268C85.8263 33.1933 85.691 33.0907 85.579 32.96C85.467 32.82 85.411 32.6427 85.411 32.428C85.411 32.1293 85.523 31.8867 85.747 31.7C85.9803 31.5133 86.2836 31.42 86.657 31.42C87.0676 31.42 87.441 31.5367 87.777 31.77C88.1223 31.994 88.379 32.302 88.547 32.694L89.611 32.204C89.387 31.5973 89.009 31.126 88.477 30.79C87.9543 30.454 87.3616 30.286 86.699 30.286C86.2043 30.286 85.7563 30.3793 85.355 30.566C84.963 30.7527 84.6503 31.014 84.417 31.35C84.193 31.6767 84.081 32.064 84.081 32.512C84.081 32.9973 84.235 33.4267 84.543 33.8C84.8603 34.164 85.3596 34.4393 86.041 34.626L87.175 34.948C87.3336 34.9853 87.497 35.046 87.665 35.13C87.8423 35.2047 87.9916 35.312 88.113 35.452C88.2436 35.5827 88.309 35.76 88.309 35.984C88.309 36.3013 88.1736 36.558 87.903 36.754C87.6323 36.95 87.2916 37.048 86.881 37.048C86.4236 37.048 86.0083 36.922 85.635 36.67C85.2616 36.4087 84.9676 36.0493 84.753 35.592L83.717 36.096C83.9503 36.7307 84.347 37.2347 84.907 37.608C85.467 37.9813 86.125 38.168 86.881 38.168ZM94.1154 38.084C94.218 38.084 94.344 38.0747 94.4934 38.056C94.6427 38.0467 94.778 38.028 94.8994 38V36.852C94.8154 36.8613 94.7267 36.8707 94.6334 36.88C94.54 36.8893 94.456 36.894 94.3814 36.894C93.924 36.894 93.5974 36.782 93.4014 36.558C93.2147 36.3247 93.1214 36.0167 93.1214 35.634V31.7H94.8154V30.454H93.1214V28.718H91.8194V29.334C91.8194 29.6793 91.7214 29.9547 91.5254 30.16C91.3294 30.356 91.0634 30.454 90.7274 30.454H90.4474V31.7H91.8194V35.676C91.8194 36.4413 92.0154 37.034 92.4074 37.454C92.8087 37.874 93.378 38.084 94.1154 38.084ZM99.5871 38.168C100.362 38.168 101.034 37.986 101.603 37.622C102.172 37.258 102.574 36.8147 102.807 36.292L101.715 35.732C101.5 36.096 101.22 36.3947 100.875 36.628C100.53 36.8613 100.105 36.978 99.6011 36.978C99.1811 36.978 98.7891 36.8847 98.4251 36.698C98.0704 36.502 97.7764 36.2267 97.5431 35.872C97.3191 35.5173 97.1977 35.0973 97.1791 34.612H102.947C102.994 34.36 103.017 34.1267 103.017 33.912C103.017 33.2867 102.877 32.6987 102.597 32.148C102.317 31.5973 101.911 31.1493 101.379 30.804C100.856 30.4587 100.222 30.286 99.4751 30.286C98.7751 30.286 98.1497 30.454 97.5991 30.79C97.0484 31.126 96.6097 31.5927 96.2831 32.19C95.9657 32.778 95.8071 33.45 95.8071 34.206C95.8071 34.962 95.9704 35.6387 96.2971 36.236C96.6237 36.8333 97.0717 37.3047 97.6411 37.65C98.2104 37.9953 98.8591 38.168 99.5871 38.168ZM99.4751 31.448C99.8577 31.448 100.208 31.5367 100.525 31.714C100.842 31.882 101.099 32.12 101.295 32.428C101.491 32.736 101.594 33.0907 101.603 33.492H97.2071C97.3004 32.8573 97.5617 32.358 97.9911 31.994C98.4204 31.63 98.9151 31.448 99.4751 31.448ZM104.435 38H105.737V33.506C105.737 32.8993 105.9 32.4327 106.227 32.106C106.553 31.77 106.983 31.602 107.515 31.602H108.173V30.37H107.711C107.244 30.37 106.843 30.454 106.507 30.622C106.171 30.7807 105.905 31.0233 105.709 31.35V30.454H104.435V38ZM111.595 41.08C112.09 41.08 112.51 40.982 112.855 40.786C113.21 40.59 113.508 40.324 113.751 39.988C114.003 39.6613 114.208 39.2973 114.367 38.896L117.769 30.454H116.327L114.045 36.348L111.749 30.454H110.335L113.331 38.014L113.107 38.56C112.902 39.0267 112.682 39.358 112.449 39.554C112.225 39.75 111.894 39.848 111.455 39.848C111.306 39.848 111.152 39.834 110.993 39.806C110.844 39.7873 110.718 39.7687 110.615 39.75V40.912C110.764 40.9773 110.923 41.0193 111.091 41.038C111.259 41.066 111.427 41.08 111.595 41.08ZM122.095 38.168C122.804 38.168 123.453 38 124.041 37.664C124.629 37.328 125.095 36.8613 125.441 36.264C125.795 35.6667 125.973 34.9853 125.973 34.22C125.973 33.464 125.8 32.792 125.455 32.204C125.119 31.6067 124.657 31.14 124.069 30.804C123.481 30.4587 122.823 30.286 122.095 30.286C121.357 30.286 120.695 30.4587 120.107 30.804C119.519 31.14 119.052 31.6067 118.707 32.204C118.371 32.792 118.203 33.464 118.203 34.22C118.203 34.976 118.375 35.6527 118.721 36.25C119.066 36.8473 119.533 37.3187 120.121 37.664C120.709 38 121.367 38.168 122.095 38.168ZM122.095 36.908C121.619 36.908 121.189 36.7913 120.807 36.558C120.433 36.3247 120.135 36.0073 119.911 35.606C119.687 35.1953 119.575 34.7333 119.575 34.22C119.575 33.7067 119.687 33.2493 119.911 32.848C120.135 32.4467 120.433 32.1293 120.807 31.896C121.189 31.6627 121.619 31.546 122.095 31.546C122.561 31.546 122.981 31.6627 123.355 31.896C123.737 32.1293 124.036 32.4467 124.251 32.848C124.475 33.2493 124.587 33.7067 124.587 34.22C124.587 34.7333 124.475 35.1953 124.251 35.606C124.036 36.0073 123.737 36.3247 123.355 36.558C122.981 36.7913 122.561 36.908 122.095 36.908ZM130.065 38.168C130.532 38.168 130.952 38.0747 131.325 37.888C131.698 37.692 131.997 37.4213 132.221 37.076V38H133.495V30.454H132.179V34.92C132.179 35.536 132.006 36.0213 131.661 36.376C131.325 36.7307 130.891 36.908 130.359 36.908C129.818 36.908 129.379 36.74 129.043 36.404C128.707 36.0587 128.539 35.6013 128.539 35.032V30.454H127.237V35.172C127.237 35.76 127.358 36.2827 127.601 36.74C127.844 37.188 128.175 37.538 128.595 37.79C129.024 38.042 129.514 38.168 130.065 38.168ZM135.232 38H136.534V33.506C136.534 32.8993 136.697 32.4327 137.024 32.106C137.351 31.77 137.78 31.602 138.312 31.602H138.97V30.37H138.508C138.041 30.37 137.64 30.454 137.304 30.622C136.968 30.7807 136.702 31.0233 136.506 31.35V30.454H135.232V38ZM145.724 38.168C146.406 38.168 147.003 38.0467 147.516 37.804C148.039 37.552 148.445 37.2067 148.734 36.768C149.033 36.3293 149.182 35.8253 149.182 35.256C149.182 33.8933 148.352 32.9553 146.69 32.442L144.94 31.924C144.446 31.7653 144.077 31.5367 143.834 31.238C143.592 30.93 143.47 30.5893 143.47 30.216C143.47 29.7307 143.643 29.348 143.988 29.068C144.334 28.7787 144.786 28.634 145.346 28.634C145.953 28.634 146.48 28.788 146.928 29.096C147.386 29.404 147.722 29.8473 147.936 30.426L149.112 29.936C148.954 29.46 148.692 29.0307 148.328 28.648C147.974 28.2653 147.54 27.962 147.026 27.738C146.522 27.514 145.958 27.402 145.332 27.402C144.707 27.402 144.147 27.528 143.652 27.78C143.167 28.0227 142.784 28.3633 142.504 28.802C142.234 29.2313 142.098 29.7307 142.098 30.3C142.098 30.9533 142.299 31.532 142.7 32.036C143.102 32.54 143.68 32.9087 144.436 33.142L146.354 33.73C146.821 33.87 147.18 34.066 147.432 34.318C147.684 34.57 147.81 34.9153 147.81 35.354C147.81 35.8393 147.619 36.2267 147.236 36.516C146.863 36.796 146.368 36.936 145.752 36.936C145.08 36.936 144.492 36.7587 143.988 36.404C143.484 36.04 143.111 35.522 142.868 34.85L141.678 35.34C141.846 35.872 142.122 36.3527 142.504 36.782C142.887 37.202 143.354 37.538 143.904 37.79C144.455 38.042 145.062 38.168 145.724 38.168ZM150.757 40.8H152.059V36.95C152.349 37.342 152.717 37.6453 153.165 37.86C153.623 38.0653 154.122 38.168 154.663 38.168C155.382 38.168 156.021 37.9953 156.581 37.65C157.151 37.3047 157.599 36.838 157.925 36.25C158.252 35.6527 158.415 34.9807 158.415 34.234C158.415 33.478 158.252 32.806 157.925 32.218C157.599 31.6207 157.155 31.1493 156.595 30.804C156.035 30.4587 155.396 30.286 154.677 30.286C154.108 30.286 153.595 30.398 153.137 30.622C152.689 30.8367 152.321 31.1353 152.031 31.518V30.454H150.757V40.8ZM154.565 36.908C154.099 36.908 153.674 36.7913 153.291 36.558C152.909 36.3247 152.605 36.0073 152.381 35.606C152.167 35.1953 152.059 34.738 152.059 34.234C152.059 33.7207 152.167 33.2633 152.381 32.862C152.605 32.4607 152.909 32.1433 153.291 31.91C153.674 31.6673 154.099 31.546 154.565 31.546C155.041 31.546 155.461 31.6627 155.825 31.896C156.199 32.1293 156.493 32.4513 156.707 32.862C156.922 33.2633 157.029 33.7207 157.029 34.234C157.029 34.738 156.922 35.1953 156.707 35.606C156.493 36.0073 156.199 36.3247 155.825 36.558C155.461 36.7913 155.041 36.908 154.565 36.908ZM163.314 38.168C164.089 38.168 164.761 37.986 165.33 37.622C165.9 37.258 166.301 36.8147 166.534 36.292L165.442 35.732C165.228 36.096 164.948 36.3947 164.602 36.628C164.257 36.8613 163.832 36.978 163.328 36.978C162.908 36.978 162.516 36.8847 162.152 36.698C161.798 36.502 161.504 36.2267 161.27 35.872C161.046 35.5173 160.925 35.0973 160.906 34.612H166.674C166.721 34.36 166.744 34.1267 166.744 33.912C166.744 33.2867 166.604 32.6987 166.324 32.148C166.044 31.5973 165.638 31.1493 165.106 30.804C164.584 30.4587 163.949 30.286 163.202 30.286C162.502 30.286 161.877 30.454 161.326 30.79C160.776 31.126 160.337 31.5927 160.01 32.19C159.693 32.778 159.534 33.45 159.534 34.206C159.534 34.962 159.698 35.6387 160.024 36.236C160.351 36.8333 160.799 37.3047 161.368 37.65C161.938 37.9953 162.586 38.168 163.314 38.168ZM163.202 31.448C163.585 31.448 163.935 31.5367 164.252 31.714C164.57 31.882 164.826 32.12 165.022 32.428C165.218 32.736 165.321 33.0907 165.33 33.492H160.934C161.028 32.8573 161.289 32.358 161.718 31.994C162.148 31.63 162.642 31.448 163.202 31.448ZM168.162 38H169.464V33.534C169.464 32.918 169.637 32.4327 169.982 32.078C170.327 31.7233 170.766 31.546 171.298 31.546C171.83 31.546 172.264 31.7233 172.6 32.078C172.936 32.4233 173.104 32.9087 173.104 33.534V38H174.42V33.114C174.42 32.5727 174.294 32.092 174.042 31.672C173.799 31.2427 173.463 30.9067 173.034 30.664C172.614 30.412 172.133 30.286 171.592 30.286C171.125 30.286 170.705 30.384 170.332 30.58C169.959 30.7667 169.66 31.0327 169.436 31.378V30.454H168.162V38ZM179.433 38.168C179.993 38.168 180.502 38.0607 180.959 37.846C181.426 37.622 181.799 37.3047 182.079 36.894V38H183.353V27.402H182.037V31.462C181.748 31.0887 181.379 30.7993 180.931 30.594C180.483 30.3887 179.984 30.286 179.433 30.286C178.724 30.286 178.084 30.4587 177.515 30.804C176.955 31.1493 176.512 31.6207 176.185 32.218C175.858 32.806 175.695 33.478 175.695 34.234C175.695 34.9807 175.858 35.6527 176.185 36.25C176.512 36.838 176.955 37.3047 177.515 37.65C178.084 37.9953 178.724 38.168 179.433 38.168ZM179.545 36.908C179.069 36.908 178.644 36.7913 178.271 36.558C177.898 36.3247 177.604 36.0073 177.389 35.606C177.174 35.1953 177.067 34.738 177.067 34.234C177.067 33.7207 177.174 33.2633 177.389 32.862C177.604 32.4513 177.898 32.1293 178.271 31.896C178.654 31.6627 179.078 31.546 179.545 31.546C180.021 31.546 180.446 31.6673 180.819 31.91C181.192 32.1433 181.486 32.4607 181.701 32.862C181.925 33.2633 182.037 33.7207 182.037 34.234C182.037 34.738 181.925 35.1953 181.701 35.606C181.486 36.0073 181.192 36.3247 180.819 36.558C180.446 36.7913 180.021 36.908 179.545 36.908ZM185.62 38H186.978V36.32H185.62V38ZM189.406 38H190.778V27.57H189.406V38ZM192.663 38H193.965V33.534C193.965 32.918 194.138 32.4327 194.483 32.078C194.828 31.7233 195.267 31.546 195.799 31.546C196.331 31.546 196.765 31.7233 197.101 32.078C197.437 32.4233 197.605 32.9087 197.605 33.534V38H198.921V33.114C198.921 32.5727 198.795 32.092 198.543 31.672C198.3 31.2427 197.964 30.9067 197.535 30.664C197.115 30.412 196.634 30.286 196.093 30.286C195.626 30.286 195.206 30.384 194.833 30.58C194.46 30.7667 194.161 31.0327 193.937 31.378V30.454H192.663V38ZM204.856 38.168C205.407 38.168 205.901 38.0653 206.34 37.86C206.779 37.6453 207.133 37.3653 207.404 37.02V38H208.678V32.876C208.678 32.3627 208.552 31.9147 208.3 31.532C208.057 31.14 207.717 30.8367 207.278 30.622C206.839 30.398 206.331 30.286 205.752 30.286C205.304 30.286 204.875 30.3653 204.464 30.524C204.053 30.6827 203.694 30.902 203.386 31.182C203.078 31.4527 202.854 31.7607 202.714 32.106L203.848 32.694C204.007 32.3393 204.249 32.05 204.576 31.826C204.903 31.602 205.285 31.49 205.724 31.49C206.219 31.49 206.615 31.6207 206.914 31.882C207.222 32.134 207.376 32.4653 207.376 32.876V33.226L204.8 33.646C203.951 33.786 203.325 34.0707 202.924 34.5C202.532 34.92 202.336 35.4287 202.336 36.026C202.336 36.6607 202.569 37.1787 203.036 37.58C203.512 37.972 204.119 38.168 204.856 38.168ZM203.708 35.984C203.708 35.6573 203.815 35.382 204.03 35.158C204.254 34.934 204.609 34.78 205.094 34.696L207.376 34.318V34.794C207.376 35.214 207.278 35.5967 207.082 35.942C206.886 36.2873 206.611 36.5627 206.256 36.768C205.901 36.964 205.486 37.062 205.01 37.062C204.637 37.062 204.324 36.9593 204.072 36.754C203.829 36.5487 203.708 36.292 203.708 35.984ZM213.917 38.168C214.412 38.168 214.874 38.0793 215.303 37.902C215.742 37.7247 216.12 37.482 216.437 37.174C216.754 36.866 216.992 36.5207 217.151 36.138L215.989 35.55C215.812 35.9607 215.541 36.292 215.177 36.544C214.822 36.7867 214.402 36.908 213.917 36.908C213.46 36.908 213.044 36.7913 212.671 36.558C212.307 36.3247 212.018 36.0073 211.803 35.606C211.588 35.1953 211.481 34.738 211.481 34.234C211.481 33.7113 211.588 33.2493 211.803 32.848C212.018 32.4467 212.307 32.1293 212.671 31.896C213.044 31.6627 213.46 31.546 213.917 31.546C214.393 31.546 214.813 31.672 215.177 31.924C215.541 32.1667 215.812 32.484 215.989 32.876L217.151 32.316C216.992 31.924 216.75 31.574 216.423 31.266C216.106 30.958 215.732 30.72 215.303 30.552C214.874 30.3747 214.412 30.286 213.917 30.286C213.18 30.286 212.522 30.4587 211.943 30.804C211.374 31.14 210.926 31.6067 210.599 32.204C210.272 32.792 210.109 33.464 210.109 34.22C210.109 34.9667 210.272 35.6387 210.599 36.236C210.926 36.8333 211.374 37.3047 211.943 37.65C212.522 37.9953 213.18 38.168 213.917 38.168ZM222.072 38.168C222.567 38.168 223.029 38.0793 223.458 37.902C223.897 37.7247 224.275 37.482 224.592 37.174C224.91 36.866 225.148 36.5207 225.306 36.138L224.144 35.55C223.967 35.9607 223.696 36.292 223.332 36.544C222.978 36.7867 222.558 36.908 222.072 36.908C221.615 36.908 221.2 36.7913 220.826 36.558C220.462 36.3247 220.173 36.0073 219.958 35.606C219.744 35.1953 219.636 34.738 219.636 34.234C219.636 33.7113 219.744 33.2493 219.958 32.848C220.173 32.4467 220.462 32.1293 220.826 31.896C221.2 31.6627 221.615 31.546 222.072 31.546C222.548 31.546 222.968 31.672 223.332 31.924C223.696 32.1667 223.967 32.484 224.144 32.876L225.306 32.316C225.148 31.924 224.905 31.574 224.578 31.266C224.261 30.958 223.888 30.72 223.458 30.552C223.029 30.3747 222.567 30.286 222.072 30.286C221.335 30.286 220.677 30.4587 220.098 30.804C219.529 31.14 219.081 31.6067 218.754 32.204C218.428 32.792 218.264 33.464 218.264 34.22C218.264 34.9667 218.428 35.6387 218.754 36.236C219.081 36.8333 219.529 37.3047 220.098 37.65C220.677 37.9953 221.335 38.168 222.072 38.168ZM230.312 38.168C231.021 38.168 231.67 38 232.258 37.664C232.846 37.328 233.313 36.8613 233.658 36.264C234.013 35.6667 234.19 34.9853 234.19 34.22C234.19 33.464 234.017 32.792 233.672 32.204C233.336 31.6067 232.874 31.14 232.286 30.804C231.698 30.4587 231.04 30.286 230.312 30.286C229.575 30.286 228.912 30.4587 228.324 30.804C227.736 31.14 227.269 31.6067 226.924 32.204C226.588 32.792 226.42 33.464 226.42 34.22C226.42 34.976 226.593 35.6527 226.938 36.25C227.283 36.8473 227.75 37.3187 228.338 37.664C228.926 38 229.584 38.168 230.312 38.168ZM230.312 36.908C229.836 36.908 229.407 36.7913 229.024 36.558C228.651 36.3247 228.352 36.0073 228.128 35.606C227.904 35.1953 227.792 34.7333 227.792 34.22C227.792 33.7067 227.904 33.2493 228.128 32.848C228.352 32.4467 228.651 32.1293 229.024 31.896C229.407 31.6627 229.836 31.546 230.312 31.546C230.779 31.546 231.199 31.6627 231.572 31.896C231.955 32.1293 232.253 32.4467 232.468 32.848C232.692 33.2493 232.804 33.7067 232.804 34.22C232.804 34.7333 232.692 35.1953 232.468 35.606C232.253 36.0073 231.955 36.3247 231.572 36.558C231.199 36.7913 230.779 36.908 230.312 36.908ZM238.282 38.168C238.749 38.168 239.169 38.0747 239.542 37.888C239.915 37.692 240.214 37.4213 240.438 37.076V38H241.712V30.454H240.396V34.92C240.396 35.536 240.223 36.0213 239.878 36.376C239.542 36.7307 239.108 36.908 238.576 36.908C238.035 36.908 237.596 36.74 237.26 36.404C236.924 36.0587 236.756 35.6013 236.756 35.032V30.454H235.454V35.172C235.454 35.76 235.575 36.2827 235.818 36.74C236.061 37.188 236.392 37.538 236.812 37.79C237.241 38.042 237.731 38.168 238.282 38.168ZM243.449 38H244.751V33.534C244.751 32.918 244.924 32.4327 245.269 32.078C245.615 31.7233 246.053 31.546 246.585 31.546C247.117 31.546 247.551 31.7233 247.887 32.078C248.223 32.4233 248.391 32.9087 248.391 33.534V38H249.707V33.114C249.707 32.5727 249.581 32.092 249.329 31.672C249.087 31.2427 248.751 30.9067 248.321 30.664C247.901 30.412 247.421 30.286 246.879 30.286C246.413 30.286 245.993 30.384 245.619 30.58C245.246 30.7667 244.947 31.0327 244.723 31.378V30.454H243.449V38ZM254.356 38.084C254.459 38.084 254.585 38.0747 254.734 38.056C254.884 38.0467 255.019 38.028 255.14 38V36.852C255.056 36.8613 254.968 36.8707 254.874 36.88C254.781 36.8893 254.697 36.894 254.622 36.894C254.165 36.894 253.838 36.782 253.642 36.558C253.456 36.3247 253.362 36.0167 253.362 35.634V31.7H255.056V30.454H253.362V28.718H252.06V29.334C252.06 29.6793 251.962 29.9547 251.766 30.16C251.57 30.356 251.304 30.454 250.968 30.454H250.688V31.7H252.06V35.676C252.06 36.4413 252.256 37.034 252.648 37.454C253.05 37.874 253.619 38.084 254.356 38.084ZM257.093 38H258.451V36.32H257.093V38ZM263.27 41.08C263.765 41.08 264.185 40.982 264.53 40.786C264.885 40.59 265.184 40.324 265.426 39.988C265.678 39.6613 265.884 39.2973 266.042 38.896L269.444 30.454H268.002L265.72 36.348L263.424 30.454H262.01L265.006 38.014L264.782 38.56C264.577 39.0267 264.358 39.358 264.124 39.554C263.9 39.75 263.569 39.848 263.13 39.848C262.981 39.848 262.827 39.834 262.668 39.806C262.519 39.7873 262.393 39.7687 262.29 39.75V40.912C262.44 40.9773 262.598 41.0193 262.766 41.038C262.934 41.066 263.102 41.08 263.27 41.08ZM273.77 38.168C274.479 38.168 275.128 38 275.716 37.664C276.304 37.328 276.771 36.8613 277.116 36.264C277.471 35.6667 277.648 34.9853 277.648 34.22C277.648 33.464 277.475 32.792 277.13 32.204C276.794 31.6067 276.332 31.14 275.744 30.804C275.156 30.4587 274.498 30.286 273.77 30.286C273.033 30.286 272.37 30.4587 271.782 30.804C271.194 31.14 270.727 31.6067 270.382 32.204C270.046 32.792 269.878 33.464 269.878 34.22C269.878 34.976 270.051 35.6527 270.396 36.25C270.741 36.8473 271.208 37.3187 271.796 37.664C272.384 38 273.042 38.168 273.77 38.168ZM273.77 36.908C273.294 36.908 272.865 36.7913 272.482 36.558C272.109 36.3247 271.81 36.0073 271.586 35.606C271.362 35.1953 271.25 34.7333 271.25 34.22C271.25 33.7067 271.362 33.2493 271.586 32.848C271.81 32.4467 272.109 32.1293 272.482 31.896C272.865 31.6627 273.294 31.546 273.77 31.546C274.237 31.546 274.657 31.6627 275.03 31.896C275.413 32.1293 275.711 32.4467 275.926 32.848C276.15 33.2493 276.262 33.7067 276.262 34.22C276.262 34.7333 276.15 35.1953 275.926 35.606C275.711 36.0073 275.413 36.3247 275.03 36.558C274.657 36.7913 274.237 36.908 273.77 36.908ZM281.74 38.168C282.207 38.168 282.627 38.0747 283 37.888C283.373 37.692 283.672 37.4213 283.896 37.076V38H285.17V30.454H283.854V34.92C283.854 35.536 283.681 36.0213 283.336 36.376C283 36.7307 282.566 36.908 282.034 36.908C281.493 36.908 281.054 36.74 280.718 36.404C280.382 36.0587 280.214 35.6013 280.214 35.032V30.454H278.912V35.172C278.912 35.76 279.033 36.2827 279.276 36.74C279.519 37.188 279.85 37.538 280.27 37.79C280.699 38.042 281.189 38.168 281.74 38.168ZM286.907 38H288.209V33.506C288.209 32.8993 288.373 32.4327 288.699 32.106C289.026 31.77 289.455 31.602 289.987 31.602H290.645V30.37H290.183C289.717 30.37 289.315 30.454 288.979 30.622C288.643 30.7807 288.377 31.0233 288.181 31.35V30.454H286.907V38Z" fill="white"/>
<path d="M55.3379 110H56.7099V105.464H61.4559V104.204H56.7099V100.83H61.9459V99.57H55.3379V110ZM63.066 101.25H64.368V99.57H63.066V101.25ZM63.066 110H64.368V102.454H63.066V110ZM66.1083 110H67.4103V99.402H66.1083V110ZM69.1505 110H70.4525V99.402H69.1505V110ZM74.3327 101.25H75.6347V99.57H74.3327V101.25ZM74.3327 110H75.6347V102.454H74.3327V110ZM77.375 110H78.677V105.534C78.677 104.918 78.8497 104.433 79.195 104.078C79.5403 103.723 79.979 103.546 80.511 103.546C81.043 103.546 81.477 103.723 81.813 104.078C82.149 104.423 82.317 104.909 82.317 105.534V110H83.633V105.114C83.633 104.573 83.507 104.092 83.255 103.672C83.0123 103.243 82.6763 102.907 82.247 102.664C81.827 102.412 81.3463 102.286 80.805 102.286C80.3383 102.286 79.9183 102.384 79.545 102.58C79.1717 102.767 78.873 103.033 78.649 103.378V102.454H77.375V110ZM90.422 110.084C90.5247 110.084 90.6507 110.075 90.8 110.056C90.9493 110.047 91.0847 110.028 91.206 110V108.852C91.122 108.861 91.0333 108.871 90.94 108.88C90.8467 108.889 90.7627 108.894 90.688 108.894C90.2307 108.894 89.904 108.782 89.708 108.558C89.5213 108.325 89.428 108.017 89.428 107.634V103.7H91.122V102.454H89.428V100.718H88.126V101.334C88.126 101.679 88.028 101.955 87.832 102.16C87.636 102.356 87.37 102.454 87.034 102.454H86.754V103.7H88.126V107.676C88.126 108.441 88.322 109.034 88.714 109.454C89.1153 109.874 89.6847 110.084 90.422 110.084ZM92.6268 110H93.9288V105.534C93.9288 104.918 94.1015 104.433 94.4468 104.078C94.8015 103.723 95.2401 103.546 95.7628 103.546C96.2855 103.546 96.7148 103.723 97.0508 104.078C97.3961 104.423 97.5688 104.909 97.5688 105.534V110H98.8848V105.114C98.8848 104.573 98.7588 104.092 98.5068 103.672C98.2641 103.243 97.9281 102.907 97.4988 102.664C97.0788 102.412 96.5981 102.286 96.0568 102.286C95.5995 102.286 95.1841 102.379 94.8108 102.566C94.4468 102.743 94.1528 103 93.9288 103.336V99.402H92.6268V110ZM103.94 110.168C104.715 110.168 105.387 109.986 105.956 109.622C106.525 109.258 106.927 108.815 107.16 108.292L106.068 107.732C105.853 108.096 105.573 108.395 105.228 108.628C104.883 108.861 104.458 108.978 103.954 108.978C103.534 108.978 103.142 108.885 102.778 108.698C102.423 108.502 102.129 108.227 101.896 107.872C101.672 107.517 101.551 107.097 101.532 106.612H107.3C107.347 106.36 107.37 106.127 107.37 105.912C107.37 105.287 107.23 104.699 106.95 104.148C106.67 103.597 106.264 103.149 105.732 102.804C105.209 102.459 104.575 102.286 103.828 102.286C103.128 102.286 102.503 102.454 101.952 102.79C101.401 103.126 100.963 103.593 100.636 104.19C100.319 104.778 100.16 105.45 100.16 106.206C100.16 106.962 100.323 107.639 100.65 108.236C100.977 108.833 101.425 109.305 101.994 109.65C102.563 109.995 103.212 110.168 103.94 110.168ZM103.828 103.448C104.211 103.448 104.561 103.537 104.878 103.714C105.195 103.882 105.452 104.12 105.648 104.428C105.844 104.736 105.947 105.091 105.956 105.492H101.56C101.653 104.857 101.915 104.358 102.344 103.994C102.773 103.63 103.268 103.448 103.828 103.448ZM110.927 110H112.229V99.402H110.927V110ZM113.97 101.25H115.272V99.57H113.97V101.25ZM113.97 110H115.272V102.454H113.97V110ZM119.714 110.168C120.255 110.168 120.731 110.075 121.142 109.888C121.553 109.701 121.875 109.445 122.108 109.118C122.341 108.782 122.458 108.399 122.458 107.97C122.458 107.447 122.285 106.999 121.94 106.626C121.595 106.253 121.119 105.977 120.512 105.8L119.28 105.436C119.131 105.389 118.977 105.333 118.818 105.268C118.659 105.193 118.524 105.091 118.412 104.96C118.3 104.82 118.244 104.643 118.244 104.428C118.244 104.129 118.356 103.887 118.58 103.7C118.813 103.513 119.117 103.42 119.49 103.42C119.901 103.42 120.274 103.537 120.61 103.77C120.955 103.994 121.212 104.302 121.38 104.694L122.444 104.204C122.22 103.597 121.842 103.126 121.31 102.79C120.787 102.454 120.195 102.286 119.532 102.286C119.037 102.286 118.589 102.379 118.188 102.566C117.796 102.753 117.483 103.014 117.25 103.35C117.026 103.677 116.914 104.064 116.914 104.512C116.914 104.997 117.068 105.427 117.376 105.8C117.693 106.164 118.193 106.439 118.874 106.626L120.008 106.948C120.167 106.985 120.33 107.046 120.498 107.13C120.675 107.205 120.825 107.312 120.946 107.452C121.077 107.583 121.142 107.76 121.142 107.984C121.142 108.301 121.007 108.558 120.736 108.754C120.465 108.95 120.125 109.048 119.714 109.048C119.257 109.048 118.841 108.922 118.468 108.67C118.095 108.409 117.801 108.049 117.586 107.592L116.55 108.096C116.783 108.731 117.18 109.235 117.74 109.608C118.3 109.981 118.958 110.168 119.714 110.168ZM126.948 110.084C127.051 110.084 127.177 110.075 127.326 110.056C127.476 110.047 127.611 110.028 127.732 110V108.852C127.648 108.861 127.56 108.871 127.466 108.88C127.373 108.889 127.289 108.894 127.214 108.894C126.757 108.894 126.43 108.782 126.234 108.558C126.048 108.325 125.954 108.017 125.954 107.634V103.7H127.648V102.454H125.954V100.718H124.652V101.334C124.652 101.679 124.554 101.955 124.358 102.16C124.162 102.356 123.896 102.454 123.56 102.454H123.28V103.7H124.652V107.676C124.652 108.441 124.848 109.034 125.24 109.454C125.642 109.874 126.211 110.084 126.948 110.084ZM134.877 110.168C135.586 110.168 136.235 110 136.823 109.664C137.411 109.328 137.878 108.861 138.223 108.264C138.578 107.667 138.755 106.985 138.755 106.22C138.755 105.464 138.582 104.792 138.237 104.204C137.901 103.607 137.439 103.14 136.851 102.804C136.263 102.459 135.605 102.286 134.877 102.286C134.14 102.286 133.477 102.459 132.889 102.804C132.301 103.14 131.834 103.607 131.489 104.204C131.153 104.792 130.985 105.464 130.985 106.22C130.985 106.976 131.158 107.653 131.503 108.25C131.848 108.847 132.315 109.319 132.903 109.664C133.491 110 134.149 110.168 134.877 110.168ZM134.877 108.908C134.401 108.908 133.972 108.791 133.589 108.558C133.216 108.325 132.917 108.007 132.693 107.606C132.469 107.195 132.357 106.733 132.357 106.22C132.357 105.707 132.469 105.249 132.693 104.848C132.917 104.447 133.216 104.129 133.589 103.896C133.972 103.663 134.401 103.546 134.877 103.546C135.344 103.546 135.764 103.663 136.137 103.896C136.52 104.129 136.818 104.447 137.033 104.848C137.257 105.249 137.369 105.707 137.369 106.22C137.369 106.733 137.257 107.195 137.033 107.606C136.818 108.007 136.52 108.325 136.137 108.558C135.764 108.791 135.344 108.908 134.877 108.908ZM140.725 110H142.041V103.7H143.833V102.454H142.041V101.922C142.041 101.437 142.176 101.096 142.447 100.9C142.727 100.695 143.082 100.592 143.511 100.592C143.567 100.592 143.646 100.597 143.749 100.606C143.861 100.606 143.95 100.615 144.015 100.634V99.472C143.931 99.4533 143.824 99.4393 143.693 99.43C143.572 99.4113 143.46 99.402 143.357 99.402C142.872 99.402 142.428 99.5 142.027 99.696C141.635 99.892 141.318 100.177 141.075 100.55C140.842 100.923 140.725 101.381 140.725 101.922V102.454H139.283V103.7H140.725V110ZM147.757 113.08C148.252 113.08 148.672 112.982 149.017 112.786C149.372 112.59 149.671 112.324 149.913 111.988C150.165 111.661 150.371 111.297 150.529 110.896L153.931 102.454H152.489L150.207 108.348L147.911 102.454H146.497L149.493 110.014L149.269 110.56C149.064 111.027 148.845 111.358 148.611 111.554C148.387 111.75 148.056 111.848 147.617 111.848C147.468 111.848 147.314 111.834 147.155 111.806C147.006 111.787 146.88 111.769 146.777 111.75V112.912C146.927 112.977 147.085 113.019 147.253 113.038C147.421 113.066 147.589 113.08 147.757 113.08ZM158.257 110.168C158.966 110.168 159.615 110 160.203 109.664C160.791 109.328 161.258 108.861 161.603 108.264C161.958 107.667 162.135 106.985 162.135 106.22C162.135 105.464 161.962 104.792 161.617 104.204C161.281 103.607 160.819 103.14 160.231 102.804C159.643 102.459 158.985 102.286 158.257 102.286C157.52 102.286 156.857 102.459 156.269 102.804C155.681 103.14 155.214 103.607 154.869 104.204C154.533 104.792 154.365 105.464 154.365 106.22C154.365 106.976 154.538 107.653 154.883 108.25C155.228 108.847 155.695 109.319 156.283 109.664C156.871 110 157.529 110.168 158.257 110.168ZM158.257 108.908C157.781 108.908 157.352 108.791 156.969 108.558C156.596 108.325 156.297 108.007 156.073 107.606C155.849 107.195 155.737 106.733 155.737 106.22C155.737 105.707 155.849 105.249 156.073 104.848C156.297 104.447 156.596 104.129 156.969 103.896C157.352 103.663 157.781 103.546 158.257 103.546C158.724 103.546 159.144 103.663 159.517 103.896C159.9 104.129 160.198 104.447 160.413 104.848C160.637 105.249 160.749 105.707 160.749 106.22C160.749 106.733 160.637 107.195 160.413 107.606C160.198 108.007 159.9 108.325 159.517 108.558C159.144 108.791 158.724 108.908 158.257 108.908ZM166.227 110.168C166.694 110.168 167.114 110.075 167.487 109.888C167.861 109.692 168.159 109.421 168.383 109.076V110H169.657V102.454H168.341V106.92C168.341 107.536 168.169 108.021 167.823 108.376C167.487 108.731 167.053 108.908 166.521 108.908C165.98 108.908 165.541 108.74 165.205 108.404C164.869 108.059 164.701 107.601 164.701 107.032V102.454H163.399V107.172C163.399 107.76 163.521 108.283 163.763 108.74C164.006 109.188 164.337 109.538 164.757 109.79C165.187 110.042 165.677 110.168 166.227 110.168ZM171.394 110H172.696V105.506C172.696 104.899 172.86 104.433 173.186 104.106C173.513 103.77 173.942 103.602 174.474 103.602H175.132V102.37H174.67C174.204 102.37 173.802 102.454 173.466 102.622C173.13 102.781 172.864 103.023 172.668 103.35V102.454H171.394V110ZM182.055 110.168C182.773 110.168 183.413 109.995 183.973 109.65C184.542 109.305 184.99 108.838 185.317 108.25C185.643 107.653 185.807 106.981 185.807 106.234C185.807 105.478 185.643 104.806 185.317 104.218C184.99 103.621 184.547 103.149 183.987 102.804C183.427 102.459 182.787 102.286 182.069 102.286C181.509 102.286 181.005 102.393 180.557 102.608C180.109 102.813 179.74 103.103 179.451 103.476V99.402H178.149V110H179.423V108.908C179.712 109.309 180.085 109.622 180.543 109.846C181.009 110.061 181.513 110.168 182.055 110.168ZM181.957 108.908C181.49 108.908 181.065 108.791 180.683 108.558C180.3 108.325 179.997 108.007 179.773 107.606C179.558 107.195 179.451 106.738 179.451 106.234C179.451 105.721 179.558 105.263 179.773 104.862C179.997 104.461 180.3 104.143 180.683 103.91C181.065 103.667 181.49 103.546 181.957 103.546C182.433 103.546 182.853 103.663 183.217 103.896C183.59 104.129 183.884 104.451 184.099 104.862C184.313 105.263 184.421 105.721 184.421 106.234C184.421 106.738 184.313 107.195 184.099 107.606C183.884 108.007 183.59 108.325 183.217 108.558C182.853 108.791 182.433 108.908 181.957 108.908ZM189.908 110.168C190.375 110.168 190.795 110.075 191.168 109.888C191.541 109.692 191.84 109.421 192.064 109.076V110H193.338V102.454H192.022V106.92C192.022 107.536 191.849 108.021 191.504 108.376C191.168 108.731 190.734 108.908 190.202 108.908C189.661 108.908 189.222 108.74 188.886 108.404C188.55 108.059 188.382 107.601 188.382 107.032V102.454H187.08V107.172C187.08 107.76 187.201 108.283 187.444 108.74C187.687 109.188 188.018 109.538 188.438 109.79C188.867 110.042 189.357 110.168 189.908 110.168ZM197.777 110.168C198.318 110.168 198.794 110.075 199.205 109.888C199.616 109.701 199.938 109.445 200.171 109.118C200.404 108.782 200.521 108.399 200.521 107.97C200.521 107.447 200.348 106.999 200.003 106.626C199.658 106.253 199.182 105.977 198.575 105.8L197.343 105.436C197.194 105.389 197.04 105.333 196.881 105.268C196.722 105.193 196.587 105.091 196.475 104.96C196.363 104.82 196.307 104.643 196.307 104.428C196.307 104.129 196.419 103.887 196.643 103.7C196.876 103.513 197.18 103.42 197.553 103.42C197.964 103.42 198.337 103.537 198.673 103.77C199.018 103.994 199.275 104.302 199.443 104.694L200.507 104.204C200.283 103.597 199.905 103.126 199.373 102.79C198.85 102.454 198.258 102.286 197.595 102.286C197.1 102.286 196.652 102.379 196.251 102.566C195.859 102.753 195.546 103.014 195.313 103.35C195.089 103.677 194.977 104.064 194.977 104.512C194.977 104.997 195.131 105.427 195.439 105.8C195.756 106.164 196.256 106.439 196.937 106.626L198.071 106.948C198.23 106.985 198.393 107.046 198.561 107.13C198.738 107.205 198.888 107.312 199.009 107.452C199.14 107.583 199.205 107.76 199.205 107.984C199.205 108.301 199.07 108.558 198.799 108.754C198.528 108.95 198.188 109.048 197.777 109.048C197.32 109.048 196.904 108.922 196.531 108.67C196.158 108.409 195.864 108.049 195.649 107.592L194.613 108.096C194.846 108.731 195.243 109.235 195.803 109.608C196.363 109.981 197.021 110.168 197.777 110.168ZM201.945 101.25H203.247V99.57H201.945V101.25ZM201.945 110H203.247V102.454H201.945V110ZM204.988 110H206.29V105.534C206.29 104.918 206.462 104.433 206.808 104.078C207.153 103.723 207.592 103.546 208.124 103.546C208.656 103.546 209.09 103.723 209.426 104.078C209.762 104.423 209.93 104.909 209.93 105.534V110H211.246V105.114C211.246 104.573 211.12 104.092 210.868 103.672C210.625 103.243 210.289 102.907 209.86 102.664C209.44 102.412 208.959 102.286 208.418 102.286C207.951 102.286 207.531 102.384 207.158 102.58C206.784 102.767 206.486 103.033 206.262 103.378V102.454H204.988V110ZM216.301 110.168C217.075 110.168 217.747 109.986 218.317 109.622C218.886 109.258 219.287 108.815 219.521 108.292L218.429 107.732C218.214 108.096 217.934 108.395 217.589 108.628C217.243 108.861 216.819 108.978 216.315 108.978C215.895 108.978 215.503 108.885 215.139 108.698C214.784 108.502 214.49 108.227 214.257 107.872C214.033 107.517 213.911 107.097 213.893 106.612H219.661C219.707 106.36 219.731 106.127 219.731 105.912C219.731 105.287 219.591 104.699 219.311 104.148C219.031 103.597 218.625 103.149 218.093 102.804C217.57 102.459 216.935 102.286 216.189 102.286C215.489 102.286 214.863 102.454 214.313 102.79C213.762 103.126 213.323 103.593 212.997 104.19C212.679 104.778 212.521 105.45 212.521 106.206C212.521 106.962 212.684 107.639 213.011 108.236C213.337 108.833 213.785 109.305 214.355 109.65C214.924 109.995 215.573 110.168 216.301 110.168ZM216.189 103.448C216.571 103.448 216.921 103.537 217.239 103.714C217.556 103.882 217.813 104.12 218.009 104.428C218.205 104.736 218.307 105.091 218.317 105.492H213.921C214.014 104.857 214.275 104.358 214.705 103.994C215.134 103.63 215.629 103.448 216.189 103.448ZM223.85 110.168C224.392 110.168 224.868 110.075 225.278 109.888C225.689 109.701 226.011 109.445 226.244 109.118C226.478 108.782 226.594 108.399 226.594 107.97C226.594 107.447 226.422 106.999 226.076 106.626C225.731 106.253 225.255 105.977 224.648 105.8L223.416 105.436C223.267 105.389 223.113 105.333 222.954 105.268C222.796 105.193 222.66 105.091 222.548 104.96C222.436 104.82 222.38 104.643 222.38 104.428C222.38 104.129 222.492 103.887 222.716 103.7C222.95 103.513 223.253 103.42 223.626 103.42C224.037 103.42 224.41 103.537 224.746 103.77C225.092 103.994 225.348 104.302 225.516 104.694L226.58 104.204C226.356 103.597 225.978 103.126 225.446 102.79C224.924 102.454 224.331 102.286 223.668 102.286C223.174 102.286 222.726 102.379 222.324 102.566C221.932 102.753 221.62 103.014 221.386 103.35C221.162 103.677 221.05 104.064 221.05 104.512C221.05 104.997 221.204 105.427 221.512 105.8C221.83 106.164 222.329 106.439 223.01 106.626L224.144 106.948C224.303 106.985 224.466 107.046 224.634 107.13C224.812 107.205 224.961 107.312 225.082 107.452C225.213 107.583 225.278 107.76 225.278 107.984C225.278 108.301 225.143 108.558 224.872 108.754C224.602 108.95 224.261 109.048 223.85 109.048C223.393 109.048 222.978 108.922 222.604 108.67C222.231 108.409 221.937 108.049 221.722 107.592L220.686 108.096C220.92 108.731 221.316 109.235 221.876 109.608C222.436 109.981 223.094 110.168 223.85 110.168ZM230.721 110.168C231.262 110.168 231.738 110.075 232.149 109.888C232.559 109.701 232.881 109.445 233.115 109.118C233.348 108.782 233.465 108.399 233.465 107.97C233.465 107.447 233.292 106.999 232.947 106.626C232.601 106.253 232.125 105.977 231.519 105.8L230.287 105.436C230.137 105.389 229.983 105.333 229.825 105.268C229.666 105.193 229.531 105.091 229.419 104.96C229.307 104.82 229.251 104.643 229.251 104.428C229.251 104.129 229.363 103.887 229.587 103.7C229.82 103.513 230.123 103.42 230.497 103.42C230.907 103.42 231.281 103.537 231.617 103.77C231.962 103.994 232.219 104.302 232.387 104.694L233.451 104.204C233.227 103.597 232.849 103.126 232.317 102.79C231.794 102.454 231.201 102.286 230.539 102.286C230.044 102.286 229.596 102.379 229.195 102.566C228.803 102.753 228.49 103.014 228.257 103.35C228.033 103.677 227.921 104.064 227.921 104.512C227.921 104.997 228.075 105.427 228.383 105.8C228.7 106.164 229.199 106.439 229.881 106.626L231.015 106.948C231.173 106.985 231.337 107.046 231.505 107.13C231.682 107.205 231.831 107.312 231.953 107.452C232.083 107.583 232.149 107.76 232.149 107.984C232.149 108.301 232.013 108.558 231.743 108.754C231.472 108.95 231.131 109.048 230.721 109.048C230.263 109.048 229.848 108.922 229.475 108.67C229.101 108.409 228.807 108.049 228.593 107.592L227.557 108.096C227.79 108.731 228.187 109.235 228.747 109.608C229.307 109.981 229.965 110.168 230.721 110.168ZM240.501 110.168C241.276 110.168 241.948 109.986 242.517 109.622C243.086 109.258 243.488 108.815 243.721 108.292L242.629 107.732C242.414 108.096 242.134 108.395 241.789 108.628C241.444 108.861 241.019 108.978 240.515 108.978C240.095 108.978 239.703 108.885 239.339 108.698C238.984 108.502 238.69 108.227 238.457 107.872C238.233 107.517 238.112 107.097 238.093 106.612H243.861C243.908 106.36 243.931 106.127 243.931 105.912C243.931 105.287 243.791 104.699 243.511 104.148C243.231 103.597 242.825 103.149 242.293 102.804C241.77 102.459 241.136 102.286 240.389 102.286C239.689 102.286 239.064 102.454 238.513 102.79C237.962 103.126 237.524 103.593 237.197 104.19C236.88 104.778 236.721 105.45 236.721 106.206C236.721 106.962 236.884 107.639 237.211 108.236C237.538 108.833 237.986 109.305 238.555 109.65C239.124 109.995 239.773 110.168 240.501 110.168ZM240.389 103.448C240.772 103.448 241.122 103.537 241.439 103.714C241.756 103.882 242.013 104.12 242.209 104.428C242.405 104.736 242.508 105.091 242.517 105.492H238.121C238.214 104.857 238.476 104.358 238.905 103.994C239.334 103.63 239.829 103.448 240.389 103.448ZM244.358 110H245.954L247.788 107.298L249.622 110H251.19L248.572 106.22L251.204 102.454H249.622L247.788 105.142L245.94 102.454H244.372L247.004 106.22L244.358 110ZM252.082 112.8H253.384V108.95C253.674 109.342 254.042 109.645 254.49 109.86C254.948 110.065 255.447 110.168 255.988 110.168C256.707 110.168 257.346 109.995 257.906 109.65C258.476 109.305 258.924 108.838 259.25 108.25C259.577 107.653 259.74 106.981 259.74 106.234C259.74 105.478 259.577 104.806 259.25 104.218C258.924 103.621 258.48 103.149 257.92 102.804C257.36 102.459 256.721 102.286 256.002 102.286C255.433 102.286 254.92 102.398 254.462 102.622C254.014 102.837 253.646 103.135 253.356 103.518V102.454H252.082V112.8ZM255.89 108.908C255.424 108.908 254.999 108.791 254.616 108.558C254.234 108.325 253.93 108.007 253.706 107.606C253.492 107.195 253.384 106.738 253.384 106.234C253.384 105.721 253.492 105.263 253.706 104.862C253.93 104.461 254.234 104.143 254.616 103.91C254.999 103.667 255.424 103.546 255.89 103.546C256.366 103.546 256.786 103.663 257.15 103.896C257.524 104.129 257.818 104.451 258.032 104.862C258.247 105.263 258.354 105.721 258.354 106.234C258.354 106.738 258.247 107.195 258.032 107.606C257.818 108.007 257.524 108.325 257.15 108.558C256.786 108.791 256.366 108.908 255.89 108.908ZM264.64 110.168C265.414 110.168 266.086 109.986 266.656 109.622C267.225 109.258 267.626 108.815 267.86 108.292L266.768 107.732C266.553 108.096 266.273 108.395 265.928 108.628C265.582 108.861 265.158 108.978 264.654 108.978C264.234 108.978 263.842 108.885 263.478 108.698C263.123 108.502 262.829 108.227 262.596 107.872C262.372 107.517 262.25 107.097 262.232 106.612H268C268.046 106.36 268.07 106.127 268.07 105.912C268.07 105.287 267.93 104.699 267.65 104.148C267.37 103.597 266.964 103.149 266.432 102.804C265.909 102.459 265.274 102.286 264.528 102.286C263.828 102.286 263.202 102.454 262.652 102.79C262.101 103.126 261.662 103.593 261.336 104.19C261.018 104.778 260.86 105.45 260.86 106.206C260.86 106.962 261.023 107.639 261.35 108.236C261.676 108.833 262.124 109.305 262.694 109.65C263.263 109.995 263.912 110.168 264.64 110.168ZM264.528 103.448C264.91 103.448 265.26 103.537 265.578 103.714C265.895 103.882 266.152 104.12 266.348 104.428C266.544 104.736 266.646 105.091 266.656 105.492H262.26C262.353 104.857 262.614 104.358 263.044 103.994C263.473 103.63 263.968 103.448 264.528 103.448ZM269.487 110H270.789V105.534C270.789 104.918 270.962 104.433 271.307 104.078C271.653 103.723 272.091 103.546 272.623 103.546C273.155 103.546 273.589 103.723 273.925 104.078C274.261 104.423 274.429 104.909 274.429 105.534V110H275.745V105.114C275.745 104.573 275.619 104.092 275.367 103.672C275.125 103.243 274.789 102.907 274.359 102.664C273.939 102.412 273.459 102.286 272.917 102.286C272.451 102.286 272.031 102.384 271.657 102.58C271.284 102.767 270.985 103.033 270.761 103.378V102.454H269.487V110ZM280.03 110.168C280.572 110.168 281.048 110.075 281.458 109.888C281.869 109.701 282.191 109.445 282.424 109.118C282.658 108.782 282.774 108.399 282.774 107.97C282.774 107.447 282.602 106.999 282.256 106.626C281.911 106.253 281.435 105.977 280.828 105.8L279.596 105.436C279.447 105.389 279.293 105.333 279.134 105.268C278.976 105.193 278.84 105.091 278.728 104.96C278.616 104.82 278.56 104.643 278.56 104.428C278.56 104.129 278.672 103.887 278.896 103.7C279.13 103.513 279.433 103.42 279.806 103.42C280.217 103.42 280.59 103.537 280.926 103.77C281.272 103.994 281.528 104.302 281.696 104.694L282.76 104.204C282.536 103.597 282.158 103.126 281.626 102.79C281.104 102.454 280.511 102.286 279.848 102.286C279.354 102.286 278.906 102.379 278.504 102.566C278.112 102.753 277.8 103.014 277.566 103.35C277.342 103.677 277.23 104.064 277.23 104.512C277.23 104.997 277.384 105.427 277.692 105.8C278.01 106.164 278.509 106.439 279.19 106.626L280.324 106.948C280.483 106.985 280.646 107.046 280.814 107.13C280.992 107.205 281.141 107.312 281.262 107.452C281.393 107.583 281.458 107.76 281.458 107.984C281.458 108.301 281.323 108.558 281.052 108.754C280.782 108.95 280.441 109.048 280.03 109.048C279.573 109.048 279.158 108.922 278.784 108.67C278.411 108.409 278.117 108.049 277.902 107.592L276.866 108.096C277.1 108.731 277.496 109.235 278.056 109.608C278.616 109.981 279.274 110.168 280.03 110.168ZM287.671 110.168C288.445 110.168 289.117 109.986 289.687 109.622C290.256 109.258 290.657 108.815 290.891 108.292L289.799 107.732C289.584 108.096 289.304 108.395 288.959 108.628C288.613 108.861 288.189 108.978 287.685 108.978C287.265 108.978 286.873 108.885 286.509 108.698C286.154 108.502 285.86 108.227 285.627 107.872C285.403 107.517 285.281 107.097 285.263 106.612H291.031C291.077 106.36 291.101 106.127 291.101 105.912C291.101 105.287 290.961 104.699 290.681 104.148C290.401 103.597 289.995 103.149 289.463 102.804C288.94 102.459 288.305 102.286 287.559 102.286C286.859 102.286 286.233 102.454 285.683 102.79C285.132 103.126 284.693 103.593 284.367 104.19C284.049 104.778 283.891 105.45 283.891 106.206C283.891 106.962 284.054 107.639 284.381 108.236C284.707 108.833 285.155 109.305 285.725 109.65C286.294 109.995 286.943 110.168 287.671 110.168ZM287.559 103.448C287.941 103.448 288.291 103.537 288.609 103.714C288.926 103.882 289.183 104.12 289.379 104.428C289.575 104.736 289.677 105.091 289.687 105.492H285.291C285.384 104.857 285.645 104.358 286.075 103.994C286.504 103.63 286.999 103.448 287.559 103.448ZM295.22 110.168C295.762 110.168 296.238 110.075 296.648 109.888C297.059 109.701 297.381 109.445 297.614 109.118C297.848 108.782 297.964 108.399 297.964 107.97C297.964 107.447 297.792 106.999 297.446 106.626C297.101 106.253 296.625 105.977 296.018 105.8L294.786 105.436C294.637 105.389 294.483 105.333 294.324 105.268C294.166 105.193 294.03 105.091 293.918 104.96C293.806 104.82 293.75 104.643 293.75 104.428C293.75 104.129 293.862 103.887 294.086 103.7C294.32 103.513 294.623 103.42 294.996 103.42C295.407 103.42 295.78 103.537 296.116 103.77C296.462 103.994 296.718 104.302 296.886 104.694L297.95 104.204C297.726 103.597 297.348 103.126 296.816 102.79C296.294 102.454 295.701 102.286 295.038 102.286C294.544 102.286 294.096 102.379 293.694 102.566C293.302 102.753 292.99 103.014 292.756 103.35C292.532 103.677 292.42 104.064 292.42 104.512C292.42 104.997 292.574 105.427 292.882 105.8C293.2 106.164 293.699 106.439 294.38 106.626L295.514 106.948C295.673 106.985 295.836 107.046 296.004 107.13C296.182 107.205 296.331 107.312 296.452 107.452C296.583 107.583 296.648 107.76 296.648 107.984C296.648 108.301 296.513 108.558 296.242 108.754C295.972 108.95 295.631 109.048 295.22 109.048C294.763 109.048 294.348 108.922 293.974 108.67C293.601 108.409 293.307 108.049 293.092 107.592L292.056 108.096C292.29 108.731 292.686 109.235 293.246 109.608C293.806 109.981 294.464 110.168 295.22 110.168ZM299.921 110H301.279V108.32H299.921V110Z" fill="white"/>
<path d="M55.162 182H58.578C59.6327 182 60.552 181.781 61.336 181.342C62.12 180.903 62.7267 180.292 63.156 179.508C63.5853 178.724 63.8 177.814 63.8 176.778C63.8 175.733 63.5853 174.823 63.156 174.048C62.7267 173.264 62.12 172.657 61.336 172.228C60.552 171.789 59.6327 171.57 58.578 171.57H55.162V182ZM56.534 180.74V172.83H58.592C59.3573 172.83 60.02 172.993 60.58 173.32C61.1493 173.637 61.588 174.09 61.896 174.678C62.2133 175.266 62.372 175.966 62.372 176.778C62.372 177.581 62.218 178.281 61.91 178.878C61.602 179.475 61.1633 179.937 60.594 180.264C60.034 180.581 59.3667 180.74 58.592 180.74H56.534ZM68.689 182.168C69.3983 182.168 70.047 182 70.635 181.664C71.223 181.328 71.6896 180.861 72.035 180.264C72.3896 179.667 72.567 178.985 72.567 178.22C72.567 177.464 72.3943 176.792 72.049 176.204C71.713 175.607 71.251 175.14 70.663 174.804C70.075 174.459 69.417 174.286 68.689 174.286C67.9516 174.286 67.289 174.459 66.701 174.804C66.113 175.14 65.6463 175.607 65.301 176.204C64.965 176.792 64.797 177.464 64.797 178.22C64.797 178.976 64.9696 179.653 65.315 180.25C65.6603 180.847 66.127 181.319 66.715 181.664C67.303 182 67.961 182.168 68.689 182.168ZM68.689 180.908C68.213 180.908 67.7836 180.791 67.401 180.558C67.0276 180.325 66.729 180.007 66.505 179.606C66.281 179.195 66.169 178.733 66.169 178.22C66.169 177.707 66.281 177.249 66.505 176.848C66.729 176.447 67.0276 176.129 67.401 175.896C67.7836 175.663 68.213 175.546 68.689 175.546C69.1556 175.546 69.5756 175.663 69.949 175.896C70.3316 176.129 70.6303 176.447 70.845 176.848C71.069 177.249 71.181 177.707 71.181 178.22C71.181 178.733 71.069 179.195 70.845 179.606C70.6303 180.007 70.3316 180.325 69.949 180.558C69.5756 180.791 69.1556 180.908 68.689 180.908ZM73.9851 182H75.2871V177.534C75.2871 176.918 75.4598 176.433 75.8051 176.078C76.1504 175.723 76.5891 175.546 77.1211 175.546C77.6531 175.546 78.0871 175.723 78.4231 176.078C78.7591 176.423 78.9271 176.909 78.9271 177.534V182H80.2431V177.114C80.2431 176.573 80.1171 176.092 79.8651 175.672C79.6224 175.243 79.2864 174.907 78.8571 174.664C78.4371 174.412 77.9564 174.286 77.4151 174.286C76.9484 174.286 76.5284 174.384 76.1551 174.58C75.7818 174.767 75.4831 175.033 75.2591 175.378V174.454H73.9851V182ZM85.2982 182.168C86.0729 182.168 86.7449 181.986 87.3142 181.622C87.8835 181.258 88.2849 180.815 88.5182 180.292L87.4262 179.732C87.2115 180.096 86.9315 180.395 86.5862 180.628C86.2409 180.861 85.8162 180.978 85.3122 180.978C84.8922 180.978 84.5002 180.885 84.1362 180.698C83.7815 180.502 83.4875 180.227 83.2542 179.872C83.0302 179.517 82.9089 179.097 82.8902 178.612H88.6582C88.7049 178.36 88.7282 178.127 88.7282 177.912C88.7282 177.287 88.5882 176.699 88.3082 176.148C88.0282 175.597 87.6222 175.149 87.0902 174.804C86.5675 174.459 85.9329 174.286 85.1862 174.286C84.4862 174.286 83.8609 174.454 83.3102 174.79C82.7595 175.126 82.3209 175.593 81.9942 176.19C81.6769 176.778 81.5182 177.45 81.5182 178.206C81.5182 178.962 81.6815 179.639 82.0082 180.236C82.3349 180.833 82.7829 181.305 83.3522 181.65C83.9215 181.995 84.5702 182.168 85.2982 182.168ZM85.1862 175.448C85.5689 175.448 85.9189 175.537 86.2362 175.714C86.5535 175.882 86.8102 176.12 87.0062 176.428C87.2022 176.736 87.3049 177.091 87.3142 177.492H82.9182C83.0115 176.857 83.2729 176.358 83.7022 175.994C84.1315 175.63 84.6262 175.448 85.1862 175.448ZM90.3698 183.946C91.4618 183.694 92.0078 182.882 92.0078 181.51V180.32H90.6498V182H91.2798C91.2518 182.719 90.9485 183.157 90.3698 183.316V183.946ZM96.1893 182H97.4913V171.402H96.1893V182ZM102.704 182.168C103.478 182.168 104.15 181.986 104.72 181.622C105.289 181.258 105.69 180.815 105.924 180.292L104.832 179.732C104.617 180.096 104.337 180.395 103.992 180.628C103.646 180.861 103.222 180.978 102.718 180.978C102.298 180.978 101.906 180.885 101.542 180.698C101.187 180.502 100.893 180.227 100.66 179.872C100.436 179.517 100.314 179.097 100.296 178.612H106.064C106.11 178.36 106.134 178.127 106.134 177.912C106.134 177.287 105.994 176.699 105.714 176.148C105.434 175.597 105.028 175.149 104.496 174.804C103.973 174.459 103.338 174.286 102.592 174.286C101.892 174.286 101.266 174.454 100.716 174.79C100.165 175.126 99.7263 175.593 99.3996 176.19C99.0823 176.778 98.9236 177.45 98.9236 178.206C98.9236 178.962 99.0869 179.639 99.4136 180.236C99.7403 180.833 100.188 181.305 100.758 181.65C101.327 181.995 101.976 182.168 102.704 182.168ZM102.592 175.448C102.974 175.448 103.324 175.537 103.642 175.714C103.959 175.882 104.216 176.12 104.412 176.428C104.608 176.736 104.71 177.091 104.72 177.492H100.324C100.417 176.857 100.678 176.358 101.108 175.994C101.537 175.63 102.032 175.448 102.592 175.448ZM110.617 182.084C110.72 182.084 110.846 182.075 110.995 182.056C111.145 182.047 111.28 182.028 111.401 182V180.852C111.317 180.861 111.229 180.871 111.135 180.88C111.042 180.889 110.958 180.894 110.883 180.894C110.426 180.894 110.099 180.782 109.903 180.558C109.717 180.325 109.623 180.017 109.623 179.634V175.7H111.317V174.454H109.623V172.718H108.321V173.334C108.321 173.679 108.223 173.955 108.027 174.16C107.831 174.356 107.565 174.454 107.229 174.454H106.949V175.7H108.321V179.676C108.321 180.441 108.517 181.034 108.909 181.454C109.311 181.874 109.88 182.084 110.617 182.084ZM113.046 175.056C113.587 174.925 113.993 174.664 114.264 174.272C114.544 173.871 114.684 173.367 114.684 172.76V171.57H113.326V173.25H113.956C113.928 173.549 113.839 173.801 113.69 174.006C113.55 174.211 113.335 174.351 113.046 174.426V175.056ZM119.428 182.168C119.969 182.168 120.445 182.075 120.856 181.888C121.266 181.701 121.588 181.445 121.822 181.118C122.055 180.782 122.172 180.399 122.172 179.97C122.172 179.447 121.999 178.999 121.654 178.626C121.308 178.253 120.832 177.977 120.226 177.8L118.994 177.436C118.844 177.389 118.69 177.333 118.532 177.268C118.373 177.193 118.238 177.091 118.126 176.96C118.014 176.82 117.958 176.643 117.958 176.428C117.958 176.129 118.07 175.887 118.294 175.7C118.527 175.513 118.83 175.42 119.204 175.42C119.614 175.42 119.988 175.537 120.324 175.77C120.669 175.994 120.926 176.302 121.094 176.694L122.158 176.204C121.934 175.597 121.556 175.126 121.024 174.79C120.501 174.454 119.908 174.286 119.246 174.286C118.751 174.286 118.303 174.379 117.902 174.566C117.51 174.753 117.197 175.014 116.964 175.35C116.74 175.677 116.628 176.064 116.628 176.512C116.628 176.997 116.782 177.427 117.09 177.8C117.407 178.164 117.906 178.439 118.588 178.626L119.722 178.948C119.88 178.985 120.044 179.046 120.212 179.13C120.389 179.205 120.538 179.312 120.66 179.452C120.79 179.583 120.856 179.76 120.856 179.984C120.856 180.301 120.72 180.558 120.45 180.754C120.179 180.95 119.838 181.048 119.428 181.048C118.97 181.048 118.555 180.922 118.182 180.67C117.808 180.409 117.514 180.049 117.3 179.592L116.264 180.096C116.497 180.731 116.894 181.235 117.454 181.608C118.014 181.981 118.672 182.168 119.428 182.168ZM129.236 182.168C129.731 182.168 130.193 182.079 130.622 181.902C131.061 181.725 131.439 181.482 131.756 181.174C132.073 180.866 132.311 180.521 132.47 180.138L131.308 179.55C131.131 179.961 130.86 180.292 130.496 180.544C130.141 180.787 129.721 180.908 129.236 180.908C128.779 180.908 128.363 180.791 127.99 180.558C127.626 180.325 127.337 180.007 127.122 179.606C126.907 179.195 126.8 178.738 126.8 178.234C126.8 177.711 126.907 177.249 127.122 176.848C127.337 176.447 127.626 176.129 127.99 175.896C128.363 175.663 128.779 175.546 129.236 175.546C129.712 175.546 130.132 175.672 130.496 175.924C130.86 176.167 131.131 176.484 131.308 176.876L132.47 176.316C132.311 175.924 132.069 175.574 131.742 175.266C131.425 174.958 131.051 174.72 130.622 174.552C130.193 174.375 129.731 174.286 129.236 174.286C128.499 174.286 127.841 174.459 127.262 174.804C126.693 175.14 126.245 175.607 125.918 176.204C125.591 176.792 125.428 177.464 125.428 178.22C125.428 178.967 125.591 179.639 125.918 180.236C126.245 180.833 126.693 181.305 127.262 181.65C127.841 181.995 128.499 182.168 129.236 182.168ZM137.475 182.168C138.185 182.168 138.833 182 139.421 181.664C140.009 181.328 140.476 180.861 140.821 180.264C141.176 179.667 141.353 178.985 141.353 178.22C141.353 177.464 141.181 176.792 140.835 176.204C140.499 175.607 140.037 175.14 139.449 174.804C138.861 174.459 138.203 174.286 137.475 174.286C136.738 174.286 136.075 174.459 135.487 174.804C134.899 175.14 134.433 175.607 134.087 176.204C133.751 176.792 133.583 177.464 133.583 178.22C133.583 178.976 133.756 179.653 134.101 180.25C134.447 180.847 134.913 181.319 135.501 181.664C136.089 182 136.747 182.168 137.475 182.168ZM137.475 180.908C136.999 180.908 136.57 180.791 136.187 180.558C135.814 180.325 135.515 180.007 135.291 179.606C135.067 179.195 134.955 178.733 134.955 178.22C134.955 177.707 135.067 177.249 135.291 176.848C135.515 176.447 135.814 176.129 136.187 175.896C136.57 175.663 136.999 175.546 137.475 175.546C137.942 175.546 138.362 175.663 138.735 175.896C139.118 176.129 139.417 176.447 139.631 176.848C139.855 177.249 139.967 177.707 139.967 178.22C139.967 178.733 139.855 179.195 139.631 179.606C139.417 180.007 139.118 180.325 138.735 180.558C138.362 180.791 137.942 180.908 137.475 180.908ZM142.772 182H144.074V177.534C144.074 176.918 144.246 176.433 144.592 176.078C144.937 175.723 145.376 175.546 145.908 175.546C146.44 175.546 146.874 175.723 147.21 176.078C147.546 176.423 147.714 176.909 147.714 177.534V182H149.03V177.114C149.03 176.573 148.904 176.092 148.652 175.672C148.409 175.243 148.073 174.907 147.644 174.664C147.224 174.412 146.743 174.286 146.202 174.286C145.735 174.286 145.315 174.384 144.942 174.58C144.568 174.767 144.27 175.033 144.046 175.378V174.454H142.772V182ZM153.679 182.084C153.781 182.084 153.907 182.075 154.057 182.056C154.206 182.047 154.341 182.028 154.463 182V180.852C154.379 180.861 154.29 180.871 154.197 180.88C154.103 180.889 154.019 180.894 153.945 180.894C153.487 180.894 153.161 180.782 152.965 180.558C152.778 180.325 152.685 180.017 152.685 179.634V175.7H154.379V174.454H152.685V172.718H151.383V173.334C151.383 173.679 151.285 173.955 151.089 174.16C150.893 174.356 150.627 174.454 150.291 174.454H150.011V175.7H151.383V179.676C151.383 180.441 151.579 181.034 151.971 181.454C152.372 181.874 152.941 182.084 153.679 182.084ZM155.883 173.25H157.185V171.57H155.883V173.25ZM155.883 182H157.185V174.454H155.883V182ZM158.926 182H160.228V177.534C160.228 176.918 160.4 176.433 160.746 176.078C161.091 175.723 161.53 175.546 162.062 175.546C162.594 175.546 163.028 175.723 163.364 176.078C163.7 176.423 163.868 176.909 163.868 177.534V182H165.184V177.114C165.184 176.573 165.058 176.092 164.806 175.672C164.563 175.243 164.227 174.907 163.798 174.664C163.378 174.412 162.897 174.286 162.356 174.286C161.889 174.286 161.469 174.384 161.096 174.58C160.722 174.767 160.424 175.033 160.2 175.378V174.454H158.926V182ZM169.441 182.168C169.907 182.168 170.327 182.075 170.701 181.888C171.074 181.692 171.373 181.421 171.597 181.076V182H172.871V174.454H171.555V178.92C171.555 179.536 171.382 180.021 171.037 180.376C170.701 180.731 170.267 180.908 169.735 180.908C169.193 180.908 168.755 180.74 168.419 180.404C168.083 180.059 167.915 179.601 167.915 179.032V174.454H166.613V179.172C166.613 179.76 166.734 180.283 166.977 180.74C167.219 181.188 167.551 181.538 167.971 181.79C168.4 182.042 168.89 182.168 169.441 182.168ZM178.08 182.168C178.855 182.168 179.527 181.986 180.096 181.622C180.665 181.258 181.067 180.815 181.3 180.292L180.208 179.732C179.993 180.096 179.713 180.395 179.368 180.628C179.023 180.861 178.598 180.978 178.094 180.978C177.674 180.978 177.282 180.885 176.918 180.698C176.563 180.502 176.269 180.227 176.036 179.872C175.812 179.517 175.691 179.097 175.672 178.612H181.44C181.487 178.36 181.51 178.127 181.51 177.912C181.51 177.287 181.37 176.699 181.09 176.148C180.81 175.597 180.404 175.149 179.872 174.804C179.349 174.459 178.715 174.286 177.968 174.286C177.268 174.286 176.643 174.454 176.092 174.79C175.541 175.126 175.103 175.593 174.776 176.19C174.459 176.778 174.3 177.45 174.3 178.206C174.3 178.962 174.463 179.639 174.79 180.236C175.117 180.833 175.565 181.305 176.134 181.65C176.703 181.995 177.352 182.168 178.08 182.168ZM177.968 175.448C178.351 175.448 178.701 175.537 179.018 175.714C179.335 175.882 179.592 176.12 179.788 176.428C179.984 176.736 180.087 177.091 180.096 177.492H175.7C175.793 176.857 176.055 176.358 176.484 175.994C176.913 175.63 177.408 175.448 177.968 175.448ZM188.133 182.084C188.236 182.084 188.362 182.075 188.511 182.056C188.661 182.047 188.796 182.028 188.917 182V180.852C188.833 180.861 188.745 180.871 188.651 180.88C188.558 180.889 188.474 180.894 188.399 180.894C187.942 180.894 187.615 180.782 187.419 180.558C187.233 180.325 187.139 180.017 187.139 179.634V175.7H188.833V174.454H187.139V172.718H185.837V173.334C185.837 173.679 185.739 173.955 185.543 174.16C185.347 174.356 185.081 174.454 184.745 174.454H184.465V175.7H185.837V179.676C185.837 180.441 186.033 181.034 186.425 181.454C186.827 181.874 187.396 182.084 188.133 182.084ZM190.338 182H191.64V177.534C191.64 176.918 191.813 176.433 192.158 176.078C192.513 175.723 192.952 175.546 193.474 175.546C193.997 175.546 194.426 175.723 194.762 176.078C195.108 176.423 195.28 176.909 195.28 177.534V182H196.596V177.114C196.596 176.573 196.47 176.092 196.218 175.672C195.976 175.243 195.64 174.907 195.21 174.664C194.79 174.412 194.31 174.286 193.768 174.286C193.311 174.286 192.896 174.379 192.522 174.566C192.158 174.743 191.864 175 191.64 175.336V171.402H190.338V182ZM201.651 182.168C202.426 182.168 203.098 181.986 203.667 181.622C204.237 181.258 204.638 180.815 204.871 180.292L203.779 179.732C203.565 180.096 203.285 180.395 202.939 180.628C202.594 180.861 202.169 180.978 201.665 180.978C201.245 180.978 200.853 180.885 200.489 180.698C200.135 180.502 199.841 180.227 199.607 179.872C199.383 179.517 199.262 179.097 199.243 178.612H205.011C205.058 178.36 205.081 178.127 205.081 177.912C205.081 177.287 204.941 176.699 204.661 176.148C204.381 175.597 203.975 175.149 203.443 174.804C202.921 174.459 202.286 174.286 201.539 174.286C200.839 174.286 200.214 174.454 199.663 174.79C199.113 175.126 198.674 175.593 198.347 176.19C198.03 176.778 197.871 177.45 197.871 178.206C197.871 178.962 198.035 179.639 198.361 180.236C198.688 180.833 199.136 181.305 199.705 181.65C200.275 181.995 200.923 182.168 201.651 182.168ZM201.539 175.448C201.922 175.448 202.272 175.537 202.589 175.714C202.907 175.882 203.163 176.12 203.359 176.428C203.555 176.736 203.658 177.091 203.667 177.492H199.271C199.365 176.857 199.626 176.358 200.055 175.994C200.485 175.63 200.979 175.448 201.539 175.448ZM210.375 182H211.621L213.413 176.316L215.205 182H216.451L219.041 174.454H217.613L215.793 179.984L214.029 174.454H212.797L211.033 179.984L209.227 174.454H207.785L210.375 182ZM223.373 182.168C224.082 182.168 224.731 182 225.319 181.664C225.907 181.328 226.373 180.861 226.719 180.264C227.073 179.667 227.251 178.985 227.251 178.22C227.251 177.464 227.078 176.792 226.733 176.204C226.397 175.607 225.935 175.14 225.347 174.804C224.759 174.459 224.101 174.286 223.373 174.286C222.635 174.286 221.973 174.459 221.385 174.804C220.797 175.14 220.33 175.607 219.985 176.204C219.649 176.792 219.481 177.464 219.481 178.22C219.481 178.976 219.653 179.653 219.999 180.25C220.344 180.847 220.811 181.319 221.399 181.664C221.987 182 222.645 182.168 223.373 182.168ZM223.373 180.908C222.897 180.908 222.467 180.791 222.085 180.558C221.711 180.325 221.413 180.007 221.189 179.606C220.965 179.195 220.853 178.733 220.853 178.22C220.853 177.707 220.965 177.249 221.189 176.848C221.413 176.447 221.711 176.129 222.085 175.896C222.467 175.663 222.897 175.546 223.373 175.546C223.839 175.546 224.259 175.663 224.633 175.896C225.015 176.129 225.314 176.447 225.529 176.848C225.753 177.249 225.865 177.707 225.865 178.22C225.865 178.733 225.753 179.195 225.529 179.606C225.314 180.007 225.015 180.325 224.633 180.558C224.259 180.791 223.839 180.908 223.373 180.908ZM228.669 182H229.971V177.506C229.971 176.899 230.134 176.433 230.461 176.106C230.787 175.77 231.217 175.602 231.749 175.602H232.407V174.37H231.945C231.478 174.37 231.077 174.454 230.741 174.622C230.405 174.781 230.139 175.023 229.943 175.35V174.454H228.669V182ZM233.283 182H234.585V179.732L235.873 178.374L238.379 182H239.919L236.825 177.492L239.723 174.454H238.057L234.585 177.996V171.402H233.283V182ZM241.342 182H242.7V180.32H241.342V182Z" fill="white"/>
<circle cx="26" cy="104" r="16" fill="#7C5CFC"/>
<path d="M21.9187 109.958H29.8387V108.358H24.4147L27.2947 105.286C28.0841 104.433 28.6654 103.702 29.0388 103.094C29.4227 102.476 29.6147 101.841 29.6147 101.19C29.6147 100.529 29.4548 99.9476 29.1348 99.4463C28.8254 98.9449 28.3881 98.5556 27.8228 98.2783C27.2574 97.9903 26.5961 97.8463 25.8387 97.8463C25.1881 97.8463 24.5854 97.9743 24.0307 98.2303C23.4761 98.4863 23.0067 98.8489 22.6227 99.3183C22.2387 99.7769 21.9774 100.321 21.8387 100.95L23.5027 101.43C23.6627 100.812 23.9507 100.342 24.3667 100.022C24.7827 99.6916 25.2787 99.5263 25.8547 99.5263C26.4201 99.5263 26.8734 99.6863 27.2147 100.006C27.5668 100.326 27.7428 100.769 27.7428 101.334C27.7428 101.686 27.6628 102.022 27.5027 102.342C27.3427 102.662 27.0761 103.036 26.7027 103.462C26.3294 103.878 25.8227 104.428 25.1827 105.11L21.9187 108.598V109.958Z" fill="white"/>
<circle cx="26" cy="176" r="16" fill="white"/>
<path d="M25.797 182.086C25.157 182.086 24.5543 181.968 23.989 181.734C23.4343 181.499 22.9543 181.168 22.549 180.742C22.1543 180.315 21.8717 179.814 21.701 179.238L23.301 178.63C23.5143 179.195 23.8397 179.632 24.277 179.942C24.7143 180.251 25.221 180.406 25.797 180.406C26.2663 180.406 26.6717 180.315 27.013 180.134C27.365 179.952 27.637 179.696 27.829 179.366C28.0317 179.035 28.133 178.635 28.133 178.166C28.133 177.707 28.0317 177.312 27.829 176.982C27.637 176.651 27.365 176.4 27.013 176.23C26.6717 176.059 26.2663 175.974 25.797 175.974C25.605 175.974 25.4077 175.99 25.205 176.022C25.013 176.054 24.8423 176.096 24.693 176.15L24.277 175.27L27.413 171.574H22.341V169.974H29.525V171.494L26.453 175.174L26.405 174.566C27.1197 174.576 27.749 174.736 28.293 175.046C28.837 175.344 29.2583 175.76 29.557 176.294C29.8663 176.816 30.021 177.424 30.021 178.118C30.021 178.864 29.8397 179.542 29.477 180.15C29.1143 180.747 28.613 181.222 27.973 181.574C27.3437 181.915 26.6183 182.086 25.797 182.086Z" fill="#1A202C"/>
</svg>
