<svg width="265" height="264" viewBox="0 0 265 264" fill="none" xmlns="http://www.w3.org/2000/svg">
<g clipPath="url(#clip0_130_4781)">
<rect x="30" y="29" width="235" height="235" rx="18.8" fill="#F3F5F7"/>
<path d="M67.6001 80.7001C67.6001 72.9129 73.9129 66.6001 81.7001 66.6001H265V264H67.6001V80.7001Z" fill="white"/>
<path d="M119.3 106.55C112.826 106.55 107.55 111.826 107.55 118.3C107.55 124.774 112.826 130.05 119.3 130.05C125.774 130.05 131.05 124.774 131.05 118.3C131.05 111.826 125.774 106.55 119.3 106.55ZM124.917 115.598L118.254 122.26C118.09 122.424 117.867 122.518 117.632 122.518C117.397 122.518 117.173 122.424 117.009 122.26L113.684 118.935C113.343 118.594 113.343 118.03 113.684 117.689C114.024 117.348 114.588 117.348 114.929 117.689L117.632 120.392L123.671 114.352C124.012 114.011 124.576 114.011 124.917 114.352C125.257 114.693 125.257 115.245 124.917 115.598Z" fill="#9CD323"/>
<rect x="147.5" y="104.2" width="117.5" height="5.875" rx="2.9375" fill="#C3D4E9"/>
<rect x="147.5" y="124.175" width="117.5" height="5.875" rx="2.9375" fill="#C3D4E9"/>
<rect x="147.5" y="144.15" width="117.5" height="5.875" rx="2.9375" fill="#C3D4E9"/>
<path d="M119.3 180.575C112.826 180.575 107.55 185.851 107.55 192.325C107.55 198.799 112.826 204.075 119.3 204.075C125.774 204.075 131.05 198.799 131.05 192.325C131.05 185.851 125.774 180.575 119.3 180.575ZM124.917 189.623L118.254 196.285C118.09 196.449 117.867 196.543 117.632 196.543C117.397 196.543 117.173 196.449 117.009 196.285L113.684 192.96C113.343 192.619 113.343 192.055 113.684 191.714C114.024 191.373 114.588 191.373 114.929 191.714L117.632 194.417L123.671 188.377C124.012 188.036 124.576 188.036 124.917 188.377C125.257 188.718 125.257 189.27 124.917 189.623Z" fill="#9CD323"/>
<rect x="147.5" y="178.225" width="117.5" height="5.875" rx="2.9375" fill="#C3D4E9"/>
<rect x="147.5" y="198.2" width="117.5" height="5.875" rx="2.9375" fill="#C3D4E9"/>
<rect x="147.5" y="218.175" width="117.5" height="5.875" rx="2.9375" fill="#C3D4E9"/>
</g>
<circle cx="30" cy="30" r="26.9333" fill="#7C5CFC" stroke="#0D121F" strokeWidth="5.86667"/>
<path d="M29.8121 40.0016C31.0167 40.0016 32.0805 39.7513 33.0036 39.2506C33.9422 38.7344 34.6775 38.0382 35.2094 37.1621C35.7413 36.2704 36.0073 35.2769 36.0073 34.1818C36.0073 32.7738 35.5927 31.6083 34.7636 30.6853C33.9344 29.7623 32.8393 29.2147 31.4782 29.0426L35.2798 24.4666V22.2373H24.7433V24.584H32.1822L27.5828 30.0048L28.1929 31.2954C28.4119 31.2172 28.6622 31.1546 28.9438 31.1077C29.2411 31.0608 29.5305 31.0373 29.8121 31.0373C30.829 31.0373 31.6503 31.3189 32.2761 31.8821C32.9175 32.4453 33.2382 33.2353 33.2382 34.2522C33.2382 35.2848 32.9175 36.0905 32.2761 36.6693C31.6503 37.2481 30.829 37.5376 29.8121 37.5376C28.9673 37.5376 28.2242 37.3107 27.5828 36.857C26.9413 36.3877 26.4642 35.7463 26.1513 34.9328L23.8046 35.8245C24.0549 36.6849 24.4695 37.4281 25.0484 38.0538C25.6429 38.664 26.3469 39.1411 27.1604 39.4853C27.9895 39.8295 28.8734 40.0016 29.8121 40.0016Z" fill="white"/>
<defs>
<clipPath id="clip0_130_4781">
<rect x="30" y="29" width="235" height="235" rx="18.8" fill="white"/>
</clipPath>
</defs>
</svg>
