<svg width="319" height="285" viewBox="0 0 319 285" fill="none" xmlns="http://www.w3.org/2000/svg">
<rect width="319" height="285" rx="7.88018" fill="#FAFAFA"/>
<g opacity="0.4" clipPath="url(#clip0_138_6116)">
<path d="M300.76 125.426H21.0139" stroke="#B2B6B8" strokeWidth="0.656682" stroke-dasharray="6.57 6.57"/>
<path d="M300.76 158.917H21.0139" stroke="#B2B6B8" strokeWidth="0.656682" stroke-dasharray="6.57 6.57"/>
<path d="M300.76 192.408H21.0139" stroke="#B2B6B8" strokeWidth="0.656682" stroke-dasharray="6.57 6.57"/>
<path d="M300.76 225.898H21.0139" stroke="#B2B6B8" strokeWidth="0.656682" stroke-dasharray="6.57 6.57"/>
<path d="M300.76 259.39H21.0139" stroke="#B2B6B8" strokeWidth="0.656682" stroke-dasharray="6.57 6.57"/>
</g>
<path d="M27.8697 84.5252H29.8791V82.3975C30.9193 82.303 31.8334 82.0272 32.6214 81.5701C33.4094 81.0973 34.0241 80.4984 34.4654 79.7734C34.9067 79.0485 35.1273 78.221 35.1273 77.2912C35.1273 74.9429 33.7247 73.3196 30.9193 72.4212L29.8791 72.0903V67.2912C31.0927 67.701 31.9516 68.5521 32.4559 69.8444L35.1037 68.6624C34.7097 67.5434 34.0477 66.6056 33.1179 65.8492C32.2038 65.0927 31.1242 64.6041 29.8791 64.3834V62.1849H27.8697V64.2889C26.8295 64.3677 25.9075 64.6356 25.1037 65.0927C24.3157 65.5339 23.7011 66.125 23.2598 66.8657C22.8185 67.6064 22.5978 68.4496 22.5978 69.3952C22.5978 70.5457 22.9446 71.5465 23.638 72.3976C24.3315 73.2329 25.3638 73.8712 26.7349 74.3125L27.8697 74.6671V79.4425C27.1605 79.2533 26.5222 78.8987 25.9548 78.3786C25.3874 77.8428 24.9382 77.1809 24.6073 76.3928L21.9359 77.5512C22.3614 78.8436 23.1022 79.9232 24.1581 80.79C25.2141 81.641 26.4512 82.169 27.8697 82.3739V84.5252ZM27.6806 71.4047C27.0501 71.1998 26.5694 70.9161 26.2385 70.5536C25.9233 70.1754 25.7657 69.742 25.7657 69.2534C25.7657 68.686 25.9548 68.2132 26.333 67.835C26.7113 67.4567 27.2235 67.2203 27.8697 67.1257V71.4756L27.6806 71.4047ZM30.1155 75.3999C30.7302 75.6048 31.1872 75.8727 31.4867 76.2037C31.8019 76.5347 31.9595 76.9602 31.9595 77.4803C31.9595 78.0319 31.7704 78.4968 31.3921 78.8751C31.0139 79.2376 30.5095 79.474 29.8791 79.5843V75.329L30.1155 75.3999ZM43.0814 82.4448C44.358 82.4448 45.4613 82.2084 46.3911 81.7356C47.3367 81.247 48.0617 80.6009 48.5661 79.7971C49.0862 78.9775 49.3462 78.0792 49.3462 77.1021C49.3462 76.1249 49.1177 75.2817 48.6606 74.5725C48.2193 73.8475 47.5732 73.2565 46.7221 72.7995C47.321 72.4055 47.7859 71.8854 48.1169 71.2392C48.4479 70.5773 48.6133 69.8523 48.6133 69.0643C48.6133 68.1344 48.3769 67.307 47.9041 66.582C47.4313 65.857 46.7773 65.2897 45.942 64.8799C45.1067 64.4701 44.1532 64.2652 43.0814 64.2652C41.994 64.2652 41.0326 64.478 40.1973 64.9035C39.362 65.3133 38.7079 65.8807 38.2351 66.6056C37.7623 67.3149 37.5259 68.1344 37.5259 69.0643C37.5259 69.8365 37.6914 70.5615 38.0224 71.2392C38.3533 71.9169 38.8261 72.437 39.4408 72.7995C37.6914 73.7136 36.8167 75.1399 36.8167 77.0784C36.8167 78.0556 37.0689 78.9539 37.5732 79.7734C38.0933 80.593 38.8183 81.247 39.7481 81.7356C40.6938 82.2084 41.8049 82.4448 43.0814 82.4448ZM43.0814 71.5465C42.388 71.5465 41.8206 71.3338 41.3793 70.9082C40.9538 70.4669 40.741 69.9153 40.741 69.2534C40.741 68.6072 40.9538 68.0714 41.3793 67.6458C41.8206 67.2045 42.388 66.9839 43.0814 66.9839C43.7749 66.9839 44.3344 67.2045 44.7599 67.6458C45.1855 68.0714 45.3982 68.6072 45.3982 69.2534C45.3982 69.9153 45.1855 70.4669 44.7599 70.9082C44.3344 71.3338 43.7749 71.5465 43.0814 71.5465ZM43.0814 79.7262C42.1673 79.7262 41.4345 79.474 40.8829 78.9697C40.3313 78.4653 40.0555 77.8034 40.0555 76.9839C40.0555 76.1643 40.3313 75.5103 40.8829 75.0217C41.4345 74.5174 42.1673 74.2652 43.0814 74.2652C43.9956 74.2652 44.7284 74.5174 45.28 75.0217C45.8474 75.5103 46.1311 76.1643 46.1311 76.9839C46.1311 77.8034 45.8474 78.4653 45.28 78.9697C44.7284 79.474 43.9956 79.7262 43.0814 79.7262ZM56.86 82.4448C58.0736 82.4448 59.1531 82.1848 60.0988 81.6647C61.0444 81.1288 61.7851 80.4117 62.321 79.5134C62.8726 78.5993 63.1484 77.5749 63.1484 76.4401C63.1484 75.3211 62.912 74.3282 62.4392 73.4614C61.9664 72.5788 61.2966 71.8854 60.4297 71.381C59.5787 70.8767 58.57 70.6245 57.4037 70.6245C56.2848 70.6245 55.3628 70.8531 54.6378 71.3101L55.1815 67.2676H62.4865V64.5489H52.8884L51.4936 74.3361L54.1177 74.9271C54.3384 74.4228 54.693 74.0367 55.1815 73.7687C55.6859 73.5008 56.2454 73.3668 56.86 73.3668C57.7584 73.3668 58.4912 73.6505 59.0586 74.2179C59.626 74.7853 59.9096 75.526 59.9096 76.4401C59.9096 77.3542 59.626 78.1028 59.0586 78.686C58.4912 79.2533 57.7584 79.537 56.86 79.537C56.135 79.537 55.4731 79.34 54.8742 78.946C54.2753 78.552 53.8419 77.961 53.574 77.173L50.7844 78.1659C51.005 79.0485 51.4148 79.8128 52.0137 80.459C52.6284 81.1052 53.3533 81.6016 54.1886 81.9484C55.0397 82.2793 55.9302 82.4448 56.86 82.4448ZM66.109 85.8491C68.5046 85.3447 69.7024 83.6899 69.7024 80.8845V78.8515H66.5818V82.1611H67.9766C67.8348 83.3274 67.2122 84.0445 66.109 84.3124V85.8491ZM72.5019 82.1611H84.3222V79.4425H76.6863L80.8234 75.0926C81.9424 73.9263 82.7619 72.894 83.282 71.9957C83.8179 71.0974 84.0858 70.1675 84.0858 69.2061C84.0858 68.229 83.8415 67.37 83.3529 66.6293C82.8801 65.8886 82.2103 65.3133 81.3435 64.9035C80.4924 64.478 79.4995 64.2652 78.3648 64.2652C77.4192 64.2652 76.5208 64.4544 75.6698 64.8326C74.8345 65.1951 74.1253 65.7231 73.5421 66.4165C72.959 67.0942 72.5729 67.898 72.3837 68.8279L75.197 69.7026C75.4491 68.8673 75.851 68.2368 76.4026 67.8113C76.9542 67.37 77.6083 67.1494 78.3648 67.1494C79.0898 67.1494 79.6808 67.3621 80.1378 67.7877C80.6106 68.2132 80.847 68.7963 80.847 69.5371C80.847 69.9784 80.7446 70.4118 80.5397 70.8373C80.3348 71.2628 79.9723 71.775 79.4523 72.3739C78.9322 72.9728 78.2072 73.7609 77.2773 74.738L72.5019 79.7262V82.1611ZM88.9009 82.1611H92.116V64.5489H85.4967V67.2912H88.9009V82.1611ZM97.7264 82.1611H100.942V64.5489H94.3222V67.2912H97.7264V82.1611ZM105.37 82.1611H108.49V78.8515H105.37V82.1611ZM119.056 82.4448C120.475 82.4448 121.712 82.0666 122.768 81.3101C123.824 80.5378 124.643 79.474 125.226 78.1186C125.825 76.7474 126.125 75.1556 126.125 73.3432C126.125 71.5308 125.825 69.9468 125.226 68.5915C124.643 67.2203 123.816 66.1565 122.744 65.4C121.688 64.6435 120.451 64.2652 119.032 64.2652C117.646 64.2652 116.424 64.6435 115.368 65.4C114.312 66.1565 113.485 67.2124 112.886 68.5678C112.303 69.9232 112.011 71.515 112.011 73.3432C112.011 75.1556 112.303 76.7474 112.886 78.1186C113.485 79.4898 114.312 80.5536 115.368 81.3101C116.44 82.0666 117.669 82.4448 119.056 82.4448ZM119.056 79.5134C117.858 79.5134 116.921 78.9618 116.243 77.8586C115.565 76.7553 115.226 75.2502 115.226 73.3432C115.226 71.4204 115.557 69.9153 116.219 68.8279C116.897 67.7404 117.835 67.1967 119.032 67.1967C120.246 67.1967 121.192 67.7483 121.869 68.8515C122.563 69.939 122.909 71.4362 122.909 73.3432C122.909 75.2502 122.571 76.7553 121.893 77.8586C121.215 78.9618 120.27 79.5134 119.056 79.5134ZM135.085 82.4448C136.503 82.4448 137.74 82.0666 138.796 81.3101C139.852 80.5378 140.672 79.474 141.255 78.1186C141.854 76.7474 142.153 75.1556 142.153 73.3432C142.153 71.5308 141.854 69.9468 141.255 68.5915C140.672 67.2203 139.844 66.1565 138.772 65.4C137.717 64.6435 136.479 64.2652 135.061 64.2652C133.674 64.2652 132.453 64.6435 131.397 65.4C130.341 66.1565 129.513 67.2124 128.914 68.5678C128.331 69.9232 128.04 71.515 128.04 73.3432C128.04 75.1556 128.331 76.7474 128.914 78.1186C129.513 79.4898 130.341 80.5536 131.397 81.3101C132.468 82.0666 133.698 82.4448 135.085 82.4448ZM135.085 79.5134C133.887 79.5134 132.949 78.9618 132.271 77.8586C131.594 76.7553 131.255 75.2502 131.255 73.3432C131.255 71.4204 131.586 69.9153 132.248 68.8279C132.925 67.7404 133.863 67.1967 135.061 67.1967C136.274 67.1967 137.22 67.7483 137.898 68.8515C138.591 69.939 138.938 71.4362 138.938 73.3432C138.938 75.2502 138.599 76.7553 137.921 77.8586C137.244 78.9618 136.298 79.5134 135.085 79.5134Z" fill="#1A202C"/>
<path d="M168.648 72.9845L174.263 72.4932L174.755 78.1089" stroke="#659711" strokeWidth="1.64171" strokeMiterlimit="10" strokeLinecap="round" strokeLinejoin="round"/>
<path d="M167.087 81.0454L174.191 72.5791" stroke="#659711" strokeWidth="1.64171" strokeMiterlimit="10" strokeLinecap="round" strokeLinejoin="round"/>
<path d="M188.371 81.7621C189.028 81.7621 189.61 81.622 190.118 81.3418C190.634 81.0529 191.037 80.6632 191.326 80.1729C191.615 79.6738 191.759 79.1091 191.759 78.4787C191.759 77.8833 191.624 77.3536 191.352 76.8895C191.09 76.4255 190.726 76.0577 190.262 75.7863C189.798 75.5149 189.268 75.3791 188.673 75.3791C188.533 75.3791 188.402 75.3879 188.279 75.4054L191.076 71.8199H188.949L186.217 75.366C185.884 75.8038 185.626 76.2022 185.442 76.5612C185.258 76.9202 185.131 77.2573 185.061 77.5725C185 77.8877 184.969 78.2029 184.969 78.5181C184.969 79.1397 185.114 79.6957 185.403 80.1861C185.692 80.6764 186.09 81.0616 186.598 81.3418C187.114 81.622 187.705 81.7621 188.371 81.7621ZM188.371 80.1467C187.916 80.1467 187.53 79.9934 187.215 79.687C186.909 79.3805 186.755 78.9865 186.755 78.505C186.755 78.0146 186.909 77.6206 187.215 77.3229C187.53 77.0165 187.916 76.8632 188.371 76.8632C188.826 76.8632 189.207 77.0165 189.514 77.3229C189.82 77.6206 189.973 78.0146 189.973 78.505C189.973 78.9865 189.816 79.3805 189.5 79.687C189.194 79.9934 188.817 80.1467 188.371 80.1467ZM195.812 81.7621C196.486 81.7621 197.086 81.6176 197.611 81.3287C198.137 81.031 198.548 80.6326 198.846 80.1335C199.152 79.6257 199.305 79.0566 199.305 78.4262C199.305 77.8045 199.174 77.2529 198.911 76.7713C198.649 76.281 198.277 75.8957 197.795 75.6156C197.322 75.3354 196.762 75.1953 196.114 75.1953C195.492 75.1953 194.98 75.3222 194.577 75.5762L194.879 73.3303H198.938V71.8199H193.605L192.831 77.2573L194.288 77.5856C194.411 77.3054 194.608 77.0909 194.879 76.942C195.16 76.7932 195.47 76.7188 195.812 76.7188C196.311 76.7188 196.718 76.8764 197.033 77.1916C197.349 77.5068 197.506 77.9183 197.506 78.4262C197.506 78.934 197.349 79.3499 197.033 79.6738C196.718 79.9891 196.311 80.1467 195.812 80.1467C195.409 80.1467 195.041 80.0372 194.709 79.8183C194.376 79.5994 194.135 79.2711 193.986 78.8333L192.437 79.3849C192.559 79.8752 192.787 80.2999 193.12 80.6589C193.461 81.0179 193.864 81.2937 194.328 81.4863C194.801 81.6702 195.295 81.7621 195.812 81.7621ZM200.95 83.6533C202.281 83.3732 202.947 82.4538 202.947 80.8953V79.7658H201.213V81.6045H201.988C201.909 82.2524 201.563 82.6508 200.95 82.7997V83.6533ZM205.708 81.6045H207.494V71.8199H203.817V73.3434H205.708V81.6045ZM213.825 76.7844C214.307 76.7844 214.74 76.6706 215.126 76.443C215.511 76.2066 215.817 75.8957 216.045 75.5105C216.273 75.1252 216.386 74.6962 216.386 74.2234C216.386 73.7506 216.273 73.3215 216.045 72.9363C215.817 72.5423 215.511 72.2315 215.126 72.0038C214.74 71.7762 214.307 71.6623 213.825 71.6623C213.344 71.6623 212.906 71.7762 212.512 72.0038C212.118 72.2315 211.807 72.5423 211.58 72.9363C211.352 73.3215 211.238 73.7506 211.238 74.2234C211.238 74.6962 211.352 75.1252 211.58 75.5105C211.807 75.8957 212.118 76.2066 212.512 76.443C212.906 76.6706 213.344 76.7844 213.825 76.7844ZM212.289 81.6045H214.128L222.06 71.8199H220.222L212.289 81.6045ZM213.825 75.4579C213.449 75.4579 213.151 75.331 212.932 75.0771C212.722 74.8232 212.617 74.5386 212.617 74.2234C212.617 73.9082 212.722 73.6236 212.932 73.3697C213.151 73.107 213.449 72.9757 213.825 72.9757C214.202 72.9757 214.491 73.107 214.692 73.3697C214.902 73.6236 215.007 73.9082 215.007 74.2234C215.007 74.5386 214.902 74.8232 214.692 75.0771C214.491 75.331 214.202 75.4579 213.825 75.4579ZM220.484 81.7621C220.966 81.7621 221.399 81.6483 221.784 81.4206C222.178 81.1842 222.489 80.8734 222.717 80.4881C222.945 80.1029 223.058 79.6738 223.058 79.201C223.058 78.7282 222.945 78.2992 222.717 77.9139C222.489 77.5199 222.178 77.2091 221.784 76.9815C221.399 76.7538 220.966 76.64 220.484 76.64C220.003 76.64 219.565 76.7538 219.171 76.9815C218.786 77.2091 218.479 77.5199 218.251 77.9139C218.024 78.2992 217.91 78.7282 217.91 79.201C217.91 79.6738 218.024 80.1029 218.251 80.4881C218.479 80.8734 218.786 81.1842 219.171 81.4206C219.565 81.6483 220.003 81.7621 220.484 81.7621ZM220.484 80.4356C220.108 80.4356 219.814 80.3086 219.604 80.0547C219.394 79.8008 219.289 79.5162 219.289 79.201C219.289 78.8858 219.394 78.6013 219.604 78.3473C219.814 78.0847 220.108 77.9533 220.484 77.9533C220.861 77.9533 221.154 78.0847 221.364 78.3473C221.574 78.6013 221.679 78.8858 221.679 79.201C221.679 79.5162 221.574 79.8008 221.364 80.0547C221.154 80.3086 220.861 80.4356 220.484 80.4356Z" fill="#659711"/>
<path d="M285.657 29.5503C284.934 29.5503 284.343 30.1413 284.343 30.8637C284.343 31.586 284.934 32.177 285.657 32.177C286.379 32.177 286.97 31.586 286.97 30.8637C286.97 30.1413 286.379 29.5503 285.657 29.5503Z" stroke="#90A3BF" strokeWidth="0.985023"/>
<path d="M294.85 29.5503C294.128 29.5503 293.537 30.1413 293.537 30.8637C293.537 31.586 294.128 32.177 294.85 32.177C295.573 32.177 296.164 31.586 296.164 30.8637C296.164 30.1413 295.573 29.5503 294.85 29.5503Z" stroke="#90A3BF" strokeWidth="0.985023"/>
<path d="M290.254 29.5503C289.531 29.5503 288.94 30.1413 288.94 30.8637C288.94 31.586 289.531 32.177 290.254 32.177C290.976 32.177 291.567 31.586 291.567 30.8637C291.567 30.1413 290.976 29.5503 290.254 29.5503Z" stroke="#90A3BF" strokeWidth="0.985023"/>
<path d="M22.0252 36.0137H26.1623C27.2042 36.0137 28.0229 35.7554 28.6183 35.2388C29.2224 34.7134 29.5245 33.9867 29.5245 33.0586C29.5245 32.5945 29.4238 32.1611 29.2224 31.7584C29.0211 31.3556 28.6927 31.0141 28.2374 30.7339C28.5351 30.5063 28.754 30.2349 28.8941 29.9197C29.0429 29.5957 29.1174 29.2498 29.1174 28.8821C29.1174 28.0678 28.8503 27.4243 28.3162 26.9515C27.7909 26.4699 27.0685 26.2291 26.1492 26.2291H22.0252V36.0137ZM23.575 30.1298V27.5687H26.1886C26.6088 27.5687 26.9459 27.6826 27.1999 27.9102C27.4538 28.1291 27.5807 28.4312 27.5807 28.8164C27.5807 29.2017 27.4538 29.5169 27.1999 29.7621C26.9459 30.0072 26.6088 30.1298 26.1886 30.1298H23.575ZM23.575 34.6346V31.4957H26.2805C26.7971 31.4957 27.2086 31.6402 27.5151 31.9291C27.8215 32.2093 27.9747 32.5902 27.9747 33.0717C27.9747 33.5533 27.8215 33.9342 27.5151 34.2144C27.2086 34.4945 26.7971 34.6346 26.2805 34.6346H23.575ZM32.8392 36.1713C33.3295 36.1713 33.7717 36.0881 34.1657 35.9217C34.5597 35.7466 34.8881 35.5015 35.1507 35.1863V36.0137H36.5692V31.233C36.5692 30.7427 36.4466 30.3137 36.2014 29.9459C35.9563 29.5694 35.6192 29.2761 35.1901 29.066C34.7611 28.8558 34.2664 28.7508 33.706 28.7508C33.2595 28.7508 32.8348 28.8296 32.4321 28.9872C32.0381 29.136 31.6922 29.3418 31.3945 29.6045C31.1056 29.8671 30.8911 30.1736 30.751 30.5238L31.9855 31.1411C32.1256 30.8084 32.3401 30.5413 32.6291 30.3399C32.9268 30.1386 33.2726 30.0379 33.6666 30.0379C34.0957 30.0379 34.4371 30.1517 34.6911 30.3793C34.9537 30.5982 35.0851 30.8828 35.0851 31.233V31.5088L32.8261 31.8766C32.003 32.0167 31.3945 32.2881 31.0005 32.6909C30.6153 33.0849 30.4226 33.5664 30.4226 34.1356C30.4226 34.7485 30.6459 35.2432 31.0924 35.6197C31.539 35.9874 32.1212 36.1713 32.8392 36.1713ZM31.9724 34.083C31.9724 33.8028 32.0643 33.5708 32.2482 33.3869C32.4321 33.2031 32.721 33.0805 33.115 33.0192L35.0851 32.6777V33.0586C35.0851 33.4176 34.9975 33.7459 34.8224 34.0436C34.656 34.3413 34.424 34.5777 34.1263 34.7528C33.8286 34.9192 33.4784 35.0024 33.0756 35.0024C32.7517 35.0024 32.4846 34.9192 32.2745 34.7528C32.0731 34.5777 31.9724 34.3545 31.9724 34.083ZM38.0418 36.0137H39.5259V26.0715H38.0418V36.0137ZM43.126 36.1713C43.6164 36.1713 44.0585 36.0881 44.4525 35.9217C44.8465 35.7466 45.1749 35.5015 45.4376 35.1863V36.0137H46.856V31.233C46.856 30.7427 46.7334 30.3137 46.4883 29.9459C46.2431 29.5694 45.906 29.2761 45.477 29.066C45.0479 28.8558 44.5532 28.7508 43.9929 28.7508C43.5463 28.7508 43.1217 28.8296 42.7189 28.9872C42.3249 29.136 41.979 29.3418 41.6813 29.6045C41.3924 29.8671 41.1779 30.1736 41.0378 30.5238L42.2724 31.1411C42.4124 30.8084 42.627 30.5413 42.9159 30.3399C43.2136 30.1386 43.5595 30.0379 43.9535 30.0379C44.3825 30.0379 44.724 30.1517 44.9779 30.3793C45.2406 30.5982 45.3719 30.8828 45.3719 31.233V31.5088L43.1129 31.8766C42.2899 32.0167 41.6813 32.2881 41.2873 32.6909C40.9021 33.0849 40.7095 33.5664 40.7095 34.1356C40.7095 34.7485 40.9327 35.2432 41.3793 35.6197C41.8258 35.9874 42.4081 36.1713 43.126 36.1713ZM42.2592 34.083C42.2592 33.8028 42.3512 33.5708 42.535 33.3869C42.7189 33.2031 43.0078 33.0805 43.4018 33.0192L45.3719 32.6777V33.0586C45.3719 33.4176 45.2843 33.7459 45.1092 34.0436C44.9429 34.3413 44.7108 34.5777 44.4131 34.7528C44.1154 34.9192 43.7652 35.0024 43.3624 35.0024C43.0385 35.0024 42.7714 34.9192 42.5613 34.7528C42.3599 34.5777 42.2592 34.3545 42.2592 34.083ZM48.3286 36.0137H49.8127V31.824C49.8127 31.2987 49.9616 30.8872 50.2592 30.5895C50.5569 30.283 50.9334 30.1298 51.3887 30.1298C51.8528 30.1298 52.2293 30.283 52.5182 30.5895C52.8159 30.8872 52.9648 31.2987 52.9648 31.824V36.0137H54.4357V31.4169C54.4357 30.8916 54.3175 30.4319 54.0811 30.0379C53.8535 29.6351 53.5383 29.3199 53.1355 29.0922C52.7328 28.8646 52.2731 28.7508 51.7565 28.7508C51.3187 28.7508 50.9247 28.8383 50.5745 29.0134C50.2242 29.1886 49.9484 29.4425 49.747 29.7752V28.9084H48.3286V36.0137ZM59.1368 36.1713C59.6271 36.1713 60.0824 36.0837 60.5027 35.9086C60.9229 35.7335 61.2863 35.4971 61.5928 35.1994C61.908 34.8929 62.1356 34.5515 62.2757 34.175L60.9755 33.5577C60.8179 33.9342 60.5771 34.2363 60.2531 34.4639C59.9379 34.6828 59.5658 34.7922 59.1368 34.7922C58.734 34.7922 58.3706 34.6916 58.0467 34.4902C57.7315 34.2888 57.4819 34.013 57.2981 33.6628C57.1142 33.3038 57.0223 32.901 57.0223 32.4545C57.0223 31.9992 57.1142 31.6008 57.2981 31.2593C57.4819 30.9091 57.7315 30.6333 58.0467 30.4319C58.3706 30.2305 58.734 30.1298 59.1368 30.1298C59.5658 30.1298 59.9423 30.2436 60.2663 30.4713C60.5902 30.6902 60.8266 30.9835 60.9755 31.3512L62.2757 30.7471C62.1269 30.3531 61.8948 30.0072 61.5796 29.7095C61.2732 29.4031 60.9098 29.1667 60.4895 29.0003C60.0693 28.8339 59.6183 28.7508 59.1368 28.7508C58.4276 28.7508 57.7971 28.9127 57.2455 29.2367C56.6939 29.5519 56.2605 29.9897 55.9453 30.5501C55.6301 31.1017 55.4725 31.7321 55.4725 32.4413C55.4725 33.1505 55.6301 33.7853 55.9453 34.3457C56.2605 34.9061 56.6939 35.3526 57.2455 35.6853C57.7971 36.0093 58.4276 36.1713 59.1368 36.1713ZM66.7995 36.1713C67.5263 36.1713 68.1567 36.0049 68.6908 35.6722C69.2336 35.3395 69.6145 34.9192 69.8334 34.4114L68.6251 33.8204C68.45 34.118 68.2092 34.3676 67.9028 34.569C67.6051 34.7616 67.2417 34.8579 66.8127 34.8579C66.2523 34.8579 65.7751 34.6828 65.3811 34.3326C64.9871 33.9736 64.7682 33.492 64.7244 32.8879H70.0041C70.0304 32.7828 70.0479 32.669 70.0567 32.5464C70.0654 32.4238 70.0698 32.3056 70.0698 32.1918C70.0698 31.5789 69.9341 31.0141 69.6627 30.4975C69.4 29.9722 69.0147 29.5519 68.5069 29.2367C68.0078 28.9127 67.3993 28.7508 66.6813 28.7508C66.0159 28.7508 65.4161 28.9127 64.882 29.2367C64.3567 29.5519 63.9408 29.9897 63.6343 30.5501C63.3279 31.1017 63.1746 31.7321 63.1746 32.4413C63.1746 33.1418 63.3279 33.7766 63.6343 34.3457C63.9495 34.9061 64.3786 35.3526 64.9214 35.6853C65.4643 36.0093 66.0903 36.1713 66.7995 36.1713ZM66.6813 29.9985C67.1804 29.9985 67.6007 30.1561 67.9422 30.4713C68.2836 30.7865 68.4675 31.198 68.4938 31.7058H64.7507C64.8382 31.163 65.0615 30.7427 65.4205 30.445C65.7795 30.1473 66.1998 29.9985 66.6813 29.9985ZM76.861 36.1713C77.5177 36.1713 78.0956 36.0531 78.5947 35.8167C79.1025 35.5803 79.4965 35.2519 79.7767 34.8316C80.0569 34.4026 80.197 33.9167 80.197 33.3738C80.197 32.0867 79.4133 31.198 77.846 30.7077L76.1387 30.1692C75.7272 30.0466 75.4207 29.8628 75.2193 29.6176C75.0179 29.3724 74.9172 29.0922 74.9172 28.777C74.9172 28.3655 75.0661 28.0372 75.3638 27.792C75.6702 27.5469 76.0643 27.4243 76.5458 27.4243C77.0887 27.4243 77.5615 27.5644 77.9643 27.8445C78.367 28.1247 78.6647 28.5231 78.8573 29.0397L80.1444 28.475C79.9868 28.0022 79.7329 27.5863 79.3827 27.2273C79.0412 26.8683 78.6297 26.5881 78.1481 26.3867C77.6666 26.1766 77.1325 26.0715 76.5458 26.0715C75.9329 26.0715 75.3857 26.1897 74.9041 26.4261C74.4313 26.6625 74.0592 26.9909 73.7878 27.4111C73.5163 27.8227 73.3806 28.3042 73.3806 28.8558C73.3806 29.4863 73.5732 30.0379 73.9585 30.5107C74.3437 30.9747 74.9041 31.3206 75.6396 31.5482L77.4783 32.1261C77.8636 32.2487 78.1569 32.4151 78.3583 32.6252C78.5684 32.8353 78.6735 33.1199 78.6735 33.4789C78.6735 33.8816 78.5115 34.2056 78.1875 34.4508C77.8723 34.6872 77.452 34.8054 76.9267 34.8054C76.3313 34.8054 75.8016 34.6434 75.3375 34.3194C74.8822 33.9955 74.5407 33.5314 74.3131 32.9273L72.9997 33.4789C73.1749 34.0042 73.4463 34.4683 73.814 34.871C74.1818 35.2738 74.6239 35.5934 75.1405 35.8298C75.6659 36.0575 76.2394 36.1713 76.861 36.1713ZM84.6028 36.0925C84.7254 36.0925 84.8611 36.0837 85.0099 36.0662C85.1588 36.0487 85.2901 36.0312 85.4039 36.0137V34.7397C85.2376 34.766 85.0756 34.7791 84.918 34.7791C84.489 34.7791 84.1825 34.6784 83.9986 34.477C83.8235 34.2669 83.736 33.9823 83.736 33.6233V30.248H85.3514V28.9084H83.736V27.2798H82.2519V27.8314C82.2519 28.1641 82.1599 28.4268 81.9761 28.6194C81.7922 28.8121 81.5339 28.9084 81.2012 28.9084H81.0042V30.248H82.2519V33.689C82.2519 34.4508 82.4576 35.0418 82.8692 35.4621C83.2807 35.8823 83.8586 36.0925 84.6028 36.0925ZM88.6531 36.1713C89.1434 36.1713 89.5856 36.0881 89.9796 35.9217C90.3736 35.7466 90.7019 35.5015 90.9646 35.1863V36.0137H92.383V31.233C92.383 30.7427 92.2605 30.3137 92.0153 29.9459C91.7701 29.5694 91.433 29.2761 91.004 29.066C90.575 28.8558 90.0803 28.7508 89.5199 28.7508C89.0734 28.7508 88.6487 28.8296 88.2459 28.9872C87.8519 29.136 87.5061 29.3418 87.2084 29.6045C86.9194 29.8671 86.7049 30.1736 86.5648 30.5238L87.7994 31.1411C87.9395 30.8084 88.154 30.5413 88.4429 30.3399C88.7406 30.1386 89.0865 30.0379 89.4805 30.0379C89.9095 30.0379 90.251 30.1517 90.5049 30.3793C90.7676 30.5982 90.8989 30.8828 90.8989 31.233V31.5088L88.64 31.8766C87.8169 32.0167 87.2084 32.2881 86.8144 32.6909C86.4291 33.0849 86.2365 33.5664 86.2365 34.1356C86.2365 34.7485 86.4598 35.2432 86.9063 35.6197C87.3529 35.9874 87.9351 36.1713 88.6531 36.1713ZM87.7863 34.083C87.7863 33.8028 87.8782 33.5708 88.0621 33.3869C88.2459 33.2031 88.5349 33.0805 88.9289 33.0192L90.8989 32.6777V33.0586C90.8989 33.4176 90.8114 33.7459 90.6363 34.0436C90.4699 34.3413 90.2379 34.5777 89.9402 34.7528C89.6425 34.9192 89.2923 35.0024 88.8895 35.0024C88.5655 35.0024 88.2985 34.9192 88.0883 34.7528C87.887 34.5777 87.7863 34.3545 87.7863 34.083ZM96.8007 36.0925C96.9232 36.0925 97.059 36.0837 97.2078 36.0662C97.3567 36.0487 97.488 36.0312 97.6018 36.0137V34.7397C97.4355 34.766 97.2735 34.7791 97.1159 34.7791C96.6868 34.7791 96.3804 34.6784 96.1965 34.477C96.0214 34.2669 95.9338 33.9823 95.9338 33.6233V30.248H97.5493V28.9084H95.9338V27.2798H94.4497V27.8314C94.4497 28.1641 94.3578 28.4268 94.1739 28.6194C93.9901 28.8121 93.7318 28.9084 93.3991 28.9084H93.202V30.248H94.4497V33.689C94.4497 34.4508 94.6555 35.0418 95.067 35.4621C95.4785 35.8823 96.0564 36.0925 96.8007 36.0925ZM98.7874 27.9365H100.272V26.2291H98.7874V27.9365ZM98.7874 36.0137H100.272V28.9084H98.7874V36.0137ZM104.371 36.1713C104.896 36.1713 105.356 36.0837 105.75 35.9086C106.153 35.7247 106.463 35.4752 106.682 35.16C106.901 34.836 107.011 34.4639 107.011 34.0436C107.011 33.5533 106.853 33.133 106.538 32.7828C106.223 32.4238 105.772 32.1611 105.185 31.9948L104.029 31.6533C103.81 31.5833 103.605 31.4869 103.412 31.3644C103.219 31.2418 103.123 31.0579 103.123 30.8127C103.123 30.5588 103.219 30.3575 103.412 30.2086C103.605 30.0598 103.863 29.9853 104.187 29.9853C104.563 29.9853 104.9 30.086 105.198 30.2874C105.505 30.4888 105.728 30.7602 105.868 31.1017L107.011 30.5632C106.8 29.9941 106.442 29.5519 105.934 29.2367C105.426 28.9127 104.848 28.7508 104.2 28.7508C103.718 28.7508 103.285 28.8427 102.9 29.0266C102.515 29.2017 102.212 29.4469 101.994 29.7621C101.775 30.0773 101.665 30.4494 101.665 30.8784C101.665 31.36 101.814 31.7759 102.112 32.1261C102.418 32.4763 102.878 32.739 103.491 32.9141L104.607 33.2293C104.835 33.2906 105.049 33.3869 105.251 33.5183C105.452 33.6409 105.553 33.8291 105.553 34.083C105.553 34.3545 105.443 34.569 105.224 34.7266C105.006 34.8842 104.721 34.963 104.371 34.963C103.959 34.963 103.583 34.8448 103.241 34.6084C102.909 34.372 102.646 34.0524 102.453 33.6496L101.311 34.1881C101.53 34.7922 101.91 35.2738 102.453 35.6328C103.005 35.9918 103.644 36.1713 104.371 36.1713ZM111.275 36.0925C111.398 36.0925 111.534 36.0837 111.683 36.0662C111.831 36.0487 111.963 36.0312 112.077 36.0137V34.7397C111.91 34.766 111.748 34.7791 111.591 34.7791C111.162 34.7791 110.855 34.6784 110.671 34.477C110.496 34.2669 110.409 33.9823 110.409 33.6233V30.248H112.024V28.9084H110.409V27.2798H108.924V27.8314C108.924 28.1641 108.833 28.4268 108.649 28.6194C108.465 28.8121 108.206 28.9084 107.874 28.9084H107.677V30.248H108.924V33.689C108.924 34.4508 109.13 35.0418 109.542 35.4621C109.953 35.8823 110.531 36.0925 111.275 36.0925ZM113.262 27.9365H114.746V26.2291H113.262V27.9365ZM113.262 36.0137H114.746V28.9084H113.262V36.0137ZM119.594 36.1713C120.084 36.1713 120.54 36.0837 120.96 35.9086C121.38 35.7335 121.744 35.4971 122.05 35.1994C122.365 34.8929 122.593 34.5515 122.733 34.175L121.433 33.5577C121.275 33.9342 121.034 34.2363 120.71 34.4639C120.395 34.6828 120.023 34.7922 119.594 34.7922C119.191 34.7922 118.828 34.6916 118.504 34.4902C118.189 34.2888 117.939 34.013 117.755 33.6628C117.572 33.3038 117.48 32.901 117.48 32.4545C117.48 31.9992 117.572 31.6008 117.755 31.2593C117.939 30.9091 118.189 30.6333 118.504 30.4319C118.828 30.2305 119.191 30.1298 119.594 30.1298C120.023 30.1298 120.4 30.2436 120.724 30.4713C121.048 30.6902 121.284 30.9835 121.433 31.3512L122.733 30.7471C122.584 30.3531 122.352 30.0072 122.037 29.7095C121.731 29.4031 121.367 29.1667 120.947 29.0003C120.527 28.8339 120.076 28.7508 119.594 28.7508C118.885 28.7508 118.254 28.9127 117.703 29.2367C117.151 29.5519 116.718 29.9897 116.403 30.5501C116.087 31.1017 115.93 31.7321 115.93 32.4413C115.93 33.1505 116.087 33.7853 116.403 34.3457C116.718 34.9061 117.151 35.3526 117.703 35.6853C118.254 36.0093 118.885 36.1713 119.594 36.1713ZM126.548 36.1713C127.073 36.1713 127.533 36.0837 127.927 35.9086C128.329 35.7247 128.64 35.4752 128.859 35.16C129.078 34.836 129.188 34.4639 129.188 34.0436C129.188 33.5533 129.03 33.133 128.715 32.7828C128.399 32.4238 127.949 32.1611 127.362 31.9948L126.206 31.6533C125.987 31.5833 125.782 31.4869 125.589 31.3644C125.396 31.2418 125.3 31.0579 125.3 30.8127C125.3 30.5588 125.396 30.3575 125.589 30.2086C125.782 30.0598 126.04 29.9853 126.364 29.9853C126.74 29.9853 127.077 30.086 127.375 30.2874C127.682 30.4888 127.905 30.7602 128.045 31.1017L129.188 30.5632C128.977 29.9941 128.618 29.5519 128.111 29.2367C127.603 28.9127 127.025 28.7508 126.377 28.7508C125.895 28.7508 125.462 28.8427 125.077 29.0266C124.691 29.2017 124.389 29.4469 124.17 29.7621C123.952 30.0773 123.842 30.4494 123.842 30.8784C123.842 31.36 123.991 31.7759 124.289 32.1261C124.595 32.4763 125.055 32.739 125.668 32.9141L126.784 33.2293C127.012 33.2906 127.226 33.3869 127.428 33.5183C127.629 33.6409 127.73 33.8291 127.73 34.083C127.73 34.3545 127.62 34.569 127.401 34.7266C127.182 34.8842 126.898 34.963 126.548 34.963C126.136 34.963 125.76 34.8448 125.418 34.6084C125.085 34.372 124.823 34.0524 124.63 33.6496L123.488 34.1881C123.706 34.7922 124.087 35.2738 124.63 35.6328C125.182 35.9918 125.821 36.1713 126.548 36.1713Z" fill="#90A3BF"/>
<g clipPath="url(#clip1_138_6116)">
<path d="M23.9772 186.029L22.7856 186.558C21.7082 187.037 21.0139 188.106 21.0139 189.285V317.118C21.0139 318.765 22.3496 320.101 23.9972 320.101H417.788C419.436 320.101 420.771 318.765 420.771 317.118V173.784C420.771 173.383 420.685 172.986 420.519 172.621C419.403 170.166 415.804 170.541 415.219 173.174L414.306 177.284C413.707 179.982 410.077 180.484 408.767 178.051L408.191 176.982C407.671 176.015 406.662 175.413 405.565 175.413H399.268C397.884 175.413 396.681 174.46 396.364 173.113L394.224 164.018C394.032 163.2 393.503 162.501 392.769 162.093L389.316 160.175C388.087 159.492 386.548 159.761 385.622 160.819L385.418 161.053C383.9 162.788 381.071 162.219 380.342 160.032L377.612 151.84C377.547 151.645 377.502 151.444 377.478 151.239L375.396 133.188C375.318 132.519 375.017 131.896 374.542 131.42L372.29 129.169C370.65 127.529 367.849 128.305 367.286 130.555L366.475 133.8C366.066 135.434 364.074 136.058 362.807 134.949C361.448 133.76 359.312 134.573 359.088 136.364L355.629 164.04C355.219 167.318 350.576 167.599 349.774 164.394L348.427 159.005C348.066 156.026 343.716 156.116 343.478 159.107L342.768 168.03C342.481 171.643 337.211 171.713 336.828 168.109L336.631 166.263C336.544 165.439 336.118 164.689 335.455 164.192L333.511 162.734L331.754 161.27C330.542 160.26 328.691 160.935 328.414 162.488C327.985 164.891 324.471 164.677 324.337 162.239L322.072 121.022C321.952 118.833 318.953 118.319 318.11 120.342C317.94 120.749 317.645 121.091 317.267 121.317L314.466 122.998C312.58 124.129 310.159 122.9 309.96 120.71L306.539 83.0802C306.303 80.4788 303.074 79.416 301.339 81.3684L300.583 82.2186C300.171 82.6824 299.913 83.2631 299.847 83.88L297.065 109.608C297 110.206 296.756 110.771 296.364 111.229L293.849 114.163C293.034 115.114 291.71 115.455 290.537 115.015L289.879 114.768C288.134 114.114 286.222 115.202 285.895 117.037L285.061 121.708C284.505 124.82 280.124 125.043 279.255 122.003L278.703 120.071C278.461 119.222 277.854 118.523 277.047 118.165L272.499 116.144C271.925 115.888 271.464 115.432 271.204 114.859C270.17 112.583 266.822 112.977 266.345 115.432L263.128 131.979C262.855 133.381 261.627 134.393 260.199 134.393H254.546C253.177 134.393 251.984 135.325 251.652 136.653L250.262 142.214C250.096 142.877 249.5 143.343 248.816 143.343C248.175 143.343 247.605 143.753 247.402 144.362L246.532 146.971C245.66 149.588 242.009 149.721 240.948 147.175L240.445 145.968C240.338 145.711 240.195 145.47 240.021 145.252L237.766 142.433C237.46 142.051 237.253 141.6 237.163 141.119L235.14 130.329C235.089 130.056 235 129.792 234.876 129.544L233.071 125.934C232.909 125.609 232.807 125.258 232.771 124.897L231.082 108.007C230.858 105.768 228.331 104.574 226.459 105.822L224.973 106.812C224.274 107.278 223.804 108.017 223.678 108.847L220.395 130.514C220.241 131.535 219.57 132.403 218.621 132.809L217.736 133.189C216.195 133.849 214.413 133.111 213.791 131.555L212.238 127.674C211.431 125.656 208.762 125.233 207.37 126.903C206.951 127.406 206.372 127.751 205.729 127.879L198.117 129.402C196.642 129.697 195.178 128.847 194.702 127.42L191.999 119.312C191.872 118.928 191.667 118.575 191.399 118.273L190.128 116.844C188.438 114.942 185.297 115.893 184.944 118.412L181.243 144.846C180.947 146.963 178.587 148.09 176.754 146.991L169.99 142.932C168.053 141.77 165.578 143.098 165.475 145.355L162.795 204.328C162.748 205.362 162.168 206.297 161.263 206.8L156.52 209.435C156.181 209.623 155.882 209.876 155.64 210.179L150.272 216.888C150.118 217.081 149.988 217.292 149.886 217.517L146.485 225C146.369 225.254 146.29 225.522 146.249 225.798L143.705 242.973C143.488 244.436 142.233 245.519 140.754 245.519H138.474C136.982 245.519 135.719 246.621 135.518 248.1L134.293 257.082C133.991 259.295 131.455 260.404 129.626 259.123L127.124 257.372C126.513 256.944 126.084 256.303 125.922 255.575L124.282 248.192C123.79 245.981 121.11 245.102 119.405 246.594L117.886 247.923C117.454 248.302 117.14 248.797 116.982 249.349L114.929 256.536C114.362 258.519 111.519 258.424 111.087 256.406C110.609 254.177 107.362 254.387 107.175 256.659L104.304 291.586C104.1 294.071 101.118 295.224 99.2954 293.523L93.3727 287.995C92.8803 287.535 92.5579 286.923 92.4579 286.257L90.5708 273.676C90.446 272.843 89.9755 272.103 89.2754 271.636L89.1987 271.585C88.5208 271.133 88.0573 270.423 87.9157 269.621L86.1884 259.833C86.009 258.817 85.3169 257.965 84.3585 257.582L81.1712 256.307C79.7407 255.735 78.1382 256.581 77.804 258.085C77.2293 260.671 73.5535 260.702 72.9351 258.126L71.1463 250.672C71.0393 250.226 70.8308 249.811 70.5372 249.459L68.149 246.593C67.5822 245.913 66.7426 245.519 65.8572 245.519H65.5069C64.7157 245.519 63.9569 245.205 63.3975 244.646L62.2203 243.469C61.238 242.486 59.7077 242.312 58.5297 243.048L55.5655 244.901C54.9291 245.299 54.466 245.922 54.2685 246.646L54.1002 247.263C53.239 250.42 48.6569 250.088 48.2607 246.839L46.5763 233.027C46.4494 231.986 45.785 231.088 44.8266 230.662L41.0702 228.993C40.1854 228.6 39.5464 227.801 39.3565 226.852L38.5301 222.72C38.3194 221.666 37.3943 220.908 36.3198 220.908C35.2304 220.908 34.297 220.128 34.1021 219.057L33.1395 213.763C33.028 213.149 32.4939 212.704 31.8706 212.704C31.2106 212.704 30.6571 212.205 30.588 211.549L28.1557 188.443C27.9437 186.428 25.8284 185.206 23.9772 186.029Z" fill="url(#paint0_linear_138_6116)"/>
<path d="M21.0139 187.346L23.9772 186.029C25.8284 185.206 27.9437 186.428 28.1557 188.443L30.588 211.549C30.6571 212.205 31.2106 212.704 31.8706 212.704V212.704C32.4939 212.704 33.028 213.149 33.1395 213.763L34.1021 219.057C34.297 220.128 35.2304 220.908 36.3198 220.908V220.908C37.3943 220.908 38.3194 221.666 38.5301 222.72L39.3565 226.852C39.5464 227.801 40.1854 228.599 41.0702 228.993L44.8266 230.662C45.785 231.088 46.4494 231.986 46.5763 233.027L48.2607 246.839C48.6569 250.088 53.239 250.42 54.1002 247.263L54.2685 246.646C54.466 245.922 54.9291 245.299 55.5655 244.901L58.5297 243.048C59.7077 242.312 61.238 242.486 62.2203 243.469L63.3975 244.646C63.9569 245.205 64.7157 245.519 65.5069 245.519H65.8572C66.7426 245.519 67.5822 245.913 68.149 246.593L70.5372 249.459C70.8308 249.811 71.0393 250.226 71.1463 250.672L72.9351 258.126C73.5535 260.702 77.2293 260.671 77.804 258.085V258.085C78.1383 256.581 79.7407 255.735 81.1712 256.307L84.3585 257.582C85.3169 257.965 86.009 258.817 86.1884 259.833L87.9157 269.621C88.0573 270.423 88.5208 271.133 89.1987 271.585L89.2754 271.636C89.9755 272.103 90.446 272.843 90.5708 273.676L92.4579 286.257C92.5579 286.923 92.8803 287.535 93.3727 287.995L99.2954 293.523C101.118 295.224 104.1 294.071 104.304 291.586L107.175 256.659C107.362 254.387 110.609 254.177 111.087 256.406V256.406C111.519 258.424 114.362 258.519 114.929 256.536L116.982 249.349C117.14 248.797 117.454 248.302 117.886 247.923L119.405 246.594C121.11 245.102 123.79 245.981 124.282 248.192L125.922 255.575C126.084 256.303 126.513 256.944 127.124 257.372L129.626 259.123C131.455 260.404 133.991 259.295 134.293 257.082L135.518 248.1C135.719 246.621 136.982 245.519 138.474 245.519H140.754C142.233 245.519 143.488 244.436 143.705 242.973L146.249 225.798C146.29 225.522 146.369 225.254 146.485 225L149.886 217.517C149.988 217.292 150.118 217.081 150.272 216.888L155.64 210.179C155.882 209.876 156.181 209.623 156.52 209.435L161.263 206.8C162.168 206.297 162.748 205.362 162.795 204.328L165.475 145.355C165.578 143.098 168.053 141.77 169.99 142.932L176.754 146.991C178.587 148.09 180.947 146.963 181.243 144.846L184.944 118.412C185.297 115.893 188.438 114.942 190.128 116.844L191.399 118.273C191.667 118.575 191.872 118.928 191.999 119.312L194.702 127.42C195.178 128.847 196.642 129.697 198.117 129.402L205.729 127.879C206.372 127.751 206.951 127.406 207.37 126.903V126.903C208.762 125.233 211.431 125.656 212.238 127.674L213.791 131.555C214.413 133.111 216.195 133.849 217.736 133.189L218.621 132.809C219.57 132.403 220.241 131.535 220.395 130.514L223.678 108.847C223.804 108.017 224.274 107.278 224.973 106.812L226.459 105.822C228.331 104.574 230.858 105.768 231.082 108.007L232.771 124.897C232.807 125.258 232.909 125.609 233.071 125.934L234.876 129.544C235 129.792 235.089 130.056 235.14 130.329L237.163 141.119C237.253 141.6 237.46 142.051 237.766 142.433L240.021 145.252C240.195 145.47 240.338 145.711 240.445 145.968L240.948 147.175C242.009 149.721 245.66 149.588 246.532 146.971L247.402 144.362C247.605 143.753 248.175 143.343 248.816 143.343V143.343C249.5 143.343 250.096 142.877 250.262 142.214L251.652 136.653C251.984 135.325 253.177 134.393 254.546 134.393H260.199C261.627 134.393 262.855 133.381 263.128 131.979L266.345 115.432C266.822 112.977 270.17 112.583 271.204 114.859V114.859C271.464 115.432 271.925 115.888 272.499 116.144L277.047 118.165C277.854 118.523 278.461 119.222 278.703 120.071L279.255 122.003C280.124 125.043 284.505 124.82 285.061 121.708L285.895 117.037C286.222 115.202 288.134 114.114 289.879 114.768L290.537 115.015C291.71 115.455 293.034 115.114 293.849 114.163L296.364 111.229C296.756 110.771 297 110.206 297.065 109.608L299.847 83.88C299.913 83.2631 300.171 82.6824 300.583 82.2186L301.339 81.3684C303.074 79.416 306.303 80.4788 306.539 83.0802L309.96 120.71C310.159 122.9 312.58 124.129 314.466 122.998L317.267 121.317C317.645 121.091 317.94 120.749 318.11 120.342V120.342C318.953 118.319 321.952 118.833 322.072 121.022L324.337 162.239C324.471 164.677 327.985 164.891 328.414 162.488V162.488C328.691 160.935 330.542 160.26 331.754 161.27L333.511 162.734L335.455 164.192C336.118 164.689 336.544 165.439 336.631 166.263L336.828 168.109C337.211 171.713 342.481 171.643 342.768 168.03L343.478 159.107C343.716 156.116 348.066 156.026 348.427 159.005V159.005L349.774 164.394C350.576 167.599 355.219 167.318 355.629 164.04L359.088 136.364C359.312 134.573 361.448 133.76 362.807 134.949V134.949C364.074 136.058 366.066 135.434 366.475 133.8L367.286 130.555C367.849 128.305 370.65 127.529 372.29 129.169L374.541 131.42C375.017 131.896 375.318 132.519 375.396 133.188L377.478 151.239C377.502 151.444 377.547 151.645 377.612 151.84L380.342 160.032C381.071 162.219 383.9 162.788 385.418 161.053L385.622 160.819C386.548 159.761 388.087 159.492 389.316 160.175L392.769 162.093C393.503 162.501 394.032 163.2 394.224 164.018L396.364 173.113C396.681 174.46 397.884 175.413 399.268 175.413H405.565C406.662 175.413 407.671 176.015 408.191 176.982L408.767 178.051C410.077 180.484 413.706 179.982 414.306 177.284L415.106 173.682C415.728 170.886 419.586 170.568 420.771 173.175V173.175" stroke="#659711" strokeWidth="1.97005"/>
</g>
<defs>
<linearGradient id="paint0_linear_138_6116" x1="195.035" y1="-826.106" x2="220.893" y2="337.255" gradientUnits="userSpaceOnUse">
<stop stop-color="#659711"/>
<stop offset="1" stop-color="#659711" stop-opacity="0"/>
</linearGradient>
<clipPath id="clip0_138_6116">
<rect width="277.12" height="133.963" fill="white" transform="translate(21.0139 125.426)"/>
</clipPath>
<clipPath id="clip1_138_6116">
<rect width="277.12" height="187.811" fill="white" transform="translate(21.0139 76.1753)"/>
</clipPath>
</defs>
</svg>
