<svg width="319" height="284" viewBox="0 0 319 284" fill="none" xmlns="http://www.w3.org/2000/svg">
<rect width="319" height="284" rx="7.87654" fill="#FAFAFA"/>
<g opacity="0.4" clip-path="url(#clip0_138_6087)">
<path d="M300.621 125.368H21.0042" stroke="#B2B6B8" stroke-width="0.656379" stroke-dasharray="6.56 6.56"/>
<path d="M300.622 158.843H21.0044" stroke="#B2B6B8" stroke-width="0.656379" stroke-dasharray="6.56 6.56"/>
<path d="M300.622 192.319H21.0044" stroke="#B2B6B8" stroke-width="0.656379" stroke-dasharray="6.56 6.56"/>
<path d="M300.622 225.794H21.0044" stroke="#B2B6B8" stroke-width="0.656379" stroke-dasharray="6.56 6.56"/>
<path d="M300.622 259.27H21.0044" stroke="#B2B6B8" stroke-width="0.656379" stroke-dasharray="6.56 6.56"/>
</g>
<path d="M27.8567 84.4987H29.8653V82.372C30.905 82.2775 31.8186 82.0018 32.6063 81.545C33.394 81.0724 34.0083 80.4738 34.4494 79.7491C34.8905 79.0245 35.111 78.1975 35.111 77.268C35.111 74.9208 33.709 73.2983 30.905 72.4003L29.8653 72.0695V67.2727C31.0783 67.6823 31.9368 68.533 32.4409 69.8247L35.0874 68.6432C34.6936 67.5248 34.032 66.5874 33.1025 65.8313C32.1888 65.0751 31.1098 64.5868 29.8653 64.3663V62.1687H27.8567V64.2717C26.817 64.3505 25.8955 64.6183 25.0921 65.0751C24.3044 65.5162 23.6901 66.107 23.249 66.8474C22.8079 67.5878 22.5873 68.4306 22.5873 69.3757C22.5873 70.5257 22.9339 71.526 23.627 72.3767C24.3202 73.2116 25.352 73.8496 26.7225 74.2907L27.8567 74.6451V79.4183C27.1479 79.2293 26.5099 78.8749 25.9427 78.355C25.3756 77.8194 24.9267 77.1578 24.5959 76.3701L21.9257 77.528C22.351 78.8197 23.0914 79.8988 24.1469 80.7652C25.2023 81.6159 26.439 82.1436 27.8567 82.3484V84.4987ZM27.6677 71.3843C27.0376 71.1795 26.5571 70.8959 26.2263 70.5336C25.9112 70.1555 25.7537 69.7223 25.7537 69.234C25.7537 68.6669 25.9427 68.1943 26.3208 67.8162C26.6989 67.4381 27.2109 67.2018 27.8567 67.1073V71.4551L27.6677 71.3843ZM30.1016 75.3777C30.7159 75.5825 31.1728 75.8503 31.4721 76.1811C31.7871 76.5119 31.9447 76.9372 31.9447 77.4571C31.9447 78.0084 31.7556 78.4731 31.3776 78.8512C30.9995 79.2135 30.4954 79.4498 29.8653 79.5601V75.3068L30.1016 75.3777ZM36.6815 82.1357H48.4963V79.4183H40.8639L44.9991 75.0705C46.1176 73.9048 46.9367 72.8729 47.4566 71.975C47.9922 71.0771 48.26 70.1476 48.26 69.1867C48.26 68.21 48.0158 67.3515 47.5275 66.6111C47.0549 65.8707 46.3854 65.2957 45.519 64.8861C44.6683 64.4608 43.6759 64.2481 42.5416 64.2481C41.5965 64.2481 40.6985 64.4371 39.8479 64.8152C39.0129 65.1775 38.3041 65.7053 37.7212 66.3984C37.1383 67.0758 36.7524 67.8792 36.5633 68.8086L39.3753 69.6829C39.6273 68.848 40.029 68.2179 40.5804 67.7926C41.1317 67.3515 41.7855 67.1309 42.5416 67.1309C43.2663 67.1309 43.857 67.3436 44.3139 67.7689C44.7865 68.1943 45.0227 68.7771 45.0227 69.5175C45.0227 69.9586 44.9204 70.3918 44.7156 70.8171C44.5108 71.2425 44.1485 71.7545 43.6286 72.3531C43.1087 72.9517 42.3841 73.7393 41.4547 74.716L36.6815 79.7019V82.1357ZM56.003 82.4193C57.2159 82.4193 58.295 82.1594 59.2402 81.6395C60.1854 81.1039 60.9258 80.3871 61.4614 79.4892C62.0128 78.5755 62.2884 77.5516 62.2884 76.4174C62.2884 75.2989 62.0521 74.3065 61.5796 73.44C61.107 72.5579 60.4375 71.8647 59.571 71.3606C58.7204 70.8565 57.7122 70.6045 56.5464 70.6045C55.428 70.6045 54.5064 70.8329 53.7818 71.2897L54.3253 67.2491H61.6268V64.5317H52.0332L50.639 74.3143L53.2619 74.9051C53.4825 74.401 53.8369 74.015 54.3253 73.7472C54.8294 73.4794 55.3886 73.3455 56.003 73.3455C56.9009 73.3455 57.6334 73.6291 58.2005 74.1962C58.7676 74.7633 59.0512 75.5037 59.0512 76.4174C59.0512 77.3311 58.7676 78.0793 58.2005 78.6622C57.6334 79.2293 56.9009 79.5129 56.003 79.5129C55.2783 79.5129 54.6167 79.3159 54.0181 78.9221C53.4195 78.5283 52.9862 77.9375 52.7184 77.1499L49.9301 78.1423C50.1507 79.0245 50.5603 79.7885 51.1589 80.4344C51.7733 81.0803 52.4979 81.5765 53.3328 81.9231C54.1835 82.2539 55.0735 82.4193 56.003 82.4193ZM65.2477 85.822C67.6421 85.3179 68.8394 83.6638 68.8394 80.8597V78.8276H65.7203V82.1357H67.1144C66.9726 83.3015 66.3504 84.0182 65.2477 84.286V85.822ZM72.252 82.1357H75.7965L82.9562 67.2491V64.5317H71.2832V67.2491H79.5772L72.252 82.1357ZM90.5081 82.4193C91.7841 82.4193 92.8868 82.183 93.8163 81.7104C94.7615 81.2221 95.4861 80.5762 95.9902 79.7728C96.5101 78.9536 96.77 78.0557 96.77 77.079C96.77 76.1023 96.5416 75.2595 96.0847 74.5506C95.6436 73.826 94.9978 73.2352 94.1471 72.7784C94.7457 72.3846 95.2104 71.8647 95.5412 71.2189C95.8721 70.5572 96.0375 69.8326 96.0375 69.0449C96.0375 68.1155 95.8012 67.2885 95.3286 66.5638C94.856 65.8392 94.2022 65.2721 93.3673 64.8625C92.5324 64.4529 91.5793 64.2481 90.5081 64.2481C89.4212 64.2481 88.4602 64.4608 87.6253 64.8861C86.7904 65.2957 86.1366 65.8628 85.6641 66.5874C85.1915 67.2963 84.9552 68.1155 84.9552 69.0449C84.9552 69.8168 85.1206 70.5415 85.4514 71.2189C85.7822 71.8962 86.2548 72.4161 86.8692 72.7784C85.1206 73.6921 84.2463 75.1177 84.2463 77.0554C84.2463 78.0321 84.4983 78.93 85.0024 79.7491C85.5223 80.5683 86.2469 81.2221 87.1764 81.7104C88.1215 82.183 89.2321 82.4193 90.5081 82.4193ZM90.5081 71.526C89.815 71.526 89.2479 71.3134 88.8068 70.888C88.3815 70.447 88.1688 69.8956 88.1688 69.234C88.1688 68.5881 88.3815 68.0525 88.8068 67.6271C89.2479 67.1861 89.815 66.9655 90.5081 66.9655C91.2013 66.9655 91.7605 67.1861 92.1858 67.6271C92.6112 68.0525 92.8238 68.5881 92.8238 69.234C92.8238 69.8956 92.6112 70.447 92.1858 70.888C91.7605 71.3134 91.2013 71.526 90.5081 71.526ZM90.5081 79.7019C89.5944 79.7019 88.8619 79.4498 88.3106 78.9457C87.7592 78.4416 87.4835 77.78 87.4835 76.9609C87.4835 76.1417 87.7592 75.4879 88.3106 74.9996C88.8619 74.4955 89.5944 74.2434 90.5081 74.2434C91.4218 74.2434 92.1543 74.4955 92.7057 74.9996C93.2728 75.4879 93.5564 76.1417 93.5564 76.9609C93.5564 77.78 93.2728 78.4416 92.7057 78.9457C92.1543 79.4498 91.4218 79.7019 90.5081 79.7019ZM105.627 82.4193C107.045 82.4193 108.282 82.0412 109.337 81.2851C110.393 80.5132 111.212 79.4498 111.795 78.0951C112.393 76.7246 112.692 75.1335 112.692 73.3219C112.692 71.5103 112.393 69.9271 111.795 68.5723C111.212 67.2018 110.385 66.1385 109.313 65.3823C108.258 64.6262 107.021 64.2481 105.604 64.2481C104.217 64.2481 102.996 64.6262 101.941 65.3823C100.886 66.1385 100.058 67.1939 99.4599 68.5487C98.877 69.9035 98.5856 71.4945 98.5856 73.3219C98.5856 75.1335 98.877 76.7246 99.4599 78.0951C100.058 79.4656 100.886 80.5289 101.941 81.2851C103.012 82.0412 104.241 82.4193 105.627 82.4193ZM105.627 79.4892C104.43 79.4892 103.493 78.9379 102.815 77.8351C102.138 76.7324 101.799 75.228 101.799 73.3219C101.799 71.4 102.13 69.8956 102.792 68.8086C103.469 67.7217 104.406 67.1782 105.604 67.1782C106.817 67.1782 107.762 67.7295 108.439 68.8323C109.132 69.9192 109.479 71.4158 109.479 73.3219C109.479 75.228 109.14 76.7324 108.463 77.8351C107.785 78.9379 106.84 79.4892 105.627 79.4892ZM116.19 82.1357H119.309V78.8276H116.19V82.1357ZM129.87 82.4193C131.288 82.4193 132.524 82.0412 133.58 81.2851C134.635 80.5132 135.454 79.4498 136.037 78.0951C136.636 76.7246 136.935 75.1335 136.935 73.3219C136.935 71.5103 136.636 69.9271 136.037 68.5723C135.454 67.2018 134.627 66.1385 133.556 65.3823C132.501 64.6262 131.264 64.2481 129.846 64.2481C128.46 64.2481 127.239 64.6262 126.184 65.3823C125.128 66.1385 124.301 67.1939 123.702 68.5487C123.12 69.9035 122.828 71.4945 122.828 73.3219C122.828 75.1335 123.12 76.7246 123.702 78.0951C124.301 79.4656 125.128 80.5289 126.184 81.2851C127.255 82.0412 128.483 82.4193 129.87 82.4193ZM129.87 79.4892C128.672 79.4892 127.735 78.9379 127.058 77.8351C126.38 76.7324 126.042 75.228 126.042 73.3219C126.042 71.4 126.373 69.8956 127.034 68.8086C127.712 67.7217 128.649 67.1782 129.846 67.1782C131.059 67.1782 132.004 67.7295 132.682 68.8323C133.375 69.9192 133.721 71.4158 133.721 73.3219C133.721 75.228 133.383 76.7324 132.705 77.8351C132.028 78.9379 131.083 79.4892 129.87 79.4892ZM145.891 82.4193C147.309 82.4193 148.545 82.0412 149.601 81.2851C150.656 80.5132 151.475 79.4498 152.058 78.0951C152.657 76.7246 152.956 75.1335 152.956 73.3219C152.956 71.5103 152.657 69.9271 152.058 68.5723C151.475 67.2018 150.648 66.1385 149.577 65.3823C148.522 64.6262 147.285 64.2481 145.867 64.2481C144.481 64.2481 143.26 64.6262 142.205 65.3823C141.149 66.1385 140.322 67.1939 139.723 68.5487C139.141 69.9035 138.849 71.4945 138.849 73.3219C138.849 75.1335 139.141 76.7246 139.723 78.0951C140.322 79.4656 141.149 80.5289 142.205 81.2851C143.276 82.0412 144.505 82.4193 145.891 82.4193ZM145.891 79.4892C144.694 79.4892 143.756 78.9379 143.079 77.8351C142.402 76.7324 142.063 75.228 142.063 73.3219C142.063 71.4 142.394 69.8956 143.055 68.8086C143.733 67.7217 144.67 67.1782 145.867 67.1782C147.08 67.1782 148.025 67.7295 148.703 68.8323C149.396 69.9192 149.742 71.4158 149.742 73.3219C149.742 75.228 149.404 76.7324 148.726 77.8351C148.049 78.9379 147.104 79.4892 145.891 79.4892Z" fill="#1A202C"/>
<path d="M185.834 75.3951L185.343 81.0082L179.729 80.5171" stroke="#DB2719" stroke-width="1.64095" stroke-miterlimit="10" stroke-linecap="round" stroke-linejoin="round"/>
<path d="M178.17 72.4604L185.271 80.9228" stroke="#DB2719" stroke-width="1.64095" stroke-miterlimit="10" stroke-linecap="round" stroke-linejoin="round"/>
<path d="M200.441 81.5742H202.2V79.4213H203.631V77.9248H202.2V71.7942H200.336L195.951 77.9248V79.4213H200.441V81.5742ZM200.441 77.9248H197.71L200.441 73.9996V77.9248ZM207.573 81.7317C208.247 81.7317 208.847 81.5873 209.372 81.2985C209.897 81.001 210.308 80.6028 210.606 80.1039C210.912 79.5963 211.065 79.0275 211.065 78.3973C211.065 77.776 210.934 77.2246 210.671 76.7433C210.409 76.2532 210.037 75.8681 209.555 75.588C209.083 75.308 208.523 75.168 207.875 75.168C207.254 75.168 206.742 75.2949 206.339 75.5487L206.641 73.3038H210.698V71.7942H205.368L204.593 77.229L206.05 77.5572C206.173 77.2771 206.37 77.0627 206.641 76.9139C206.921 76.7652 207.232 76.6908 207.573 76.6908C208.072 76.6908 208.479 76.8483 208.794 77.1634C209.109 77.4784 209.267 77.8897 209.267 78.3973C209.267 78.9049 209.109 79.3207 208.794 79.6445C208.479 79.9595 208.072 80.1171 207.573 80.1171C207.171 80.1171 206.803 80.0077 206.47 79.7889C206.138 79.5701 205.897 79.2419 205.748 78.8043L204.199 79.3557C204.322 79.8458 204.549 80.2702 204.882 80.629C205.223 80.9879 205.626 81.2635 206.09 81.4561C206.562 81.6399 207.057 81.7317 207.573 81.7317ZM212.709 83.6221C214.039 83.3421 214.705 82.4231 214.705 80.8653V79.7364H212.972V81.5742H213.746C213.667 82.2218 213.322 82.62 212.709 82.7688V83.6221ZM219.62 81.7317C220.276 81.7317 220.858 81.5917 221.366 81.3117C221.882 81.0229 222.285 80.6334 222.573 80.1433C222.862 79.6445 223.007 79.08 223.007 78.4499C223.007 77.8547 222.871 77.3253 222.6 76.8614C222.337 76.3976 221.974 76.03 221.51 75.7587C221.046 75.4874 220.517 75.3517 219.922 75.3517C219.782 75.3517 219.65 75.3605 219.528 75.378L222.324 71.7942H220.197L217.467 75.3386C217.134 75.7762 216.876 76.1744 216.692 76.5332C216.509 76.8921 216.382 77.229 216.312 77.5441C216.25 77.8591 216.22 78.1742 216.22 78.4892C216.22 79.1106 216.364 79.6663 216.653 80.1564C216.942 80.6465 217.34 81.0316 217.848 81.3117C218.364 81.5917 218.955 81.7317 219.62 81.7317ZM219.62 80.1171C219.165 80.1171 218.78 79.9639 218.465 79.6576C218.158 79.3513 218.005 78.9575 218.005 78.4761C218.005 77.986 218.158 77.5922 218.465 77.2946C218.78 76.9883 219.165 76.8352 219.62 76.8352C220.075 76.8352 220.456 76.9883 220.762 77.2946C221.068 77.5922 221.221 77.986 221.221 78.4761C221.221 78.9575 221.064 79.3513 220.749 79.6576C220.442 79.9639 220.066 80.1171 219.62 80.1171ZM228.642 76.7564C229.124 76.7564 229.557 76.6426 229.942 76.4151C230.327 76.1788 230.633 75.8681 230.861 75.483C231.088 75.0979 231.202 74.6691 231.202 74.1965C231.202 73.7239 231.088 73.2951 230.861 72.91C230.633 72.5162 230.327 72.2055 229.942 71.978C229.557 71.7504 229.124 71.6366 228.642 71.6366C228.161 71.6366 227.723 71.7504 227.33 71.978C226.936 72.2055 226.625 72.5162 226.397 72.91C226.17 73.2951 226.056 73.7239 226.056 74.1965C226.056 74.6691 226.17 75.0979 226.397 75.483C226.625 75.8681 226.936 76.1788 227.33 76.4151C227.723 76.6426 228.161 76.7564 228.642 76.7564ZM227.106 81.5742H228.944L236.873 71.7942H235.035L227.106 81.5742ZM228.642 75.4305C228.266 75.4305 227.968 75.3036 227.75 75.0498C227.54 74.796 227.435 74.5116 227.435 74.1965C227.435 73.8815 227.54 73.597 227.75 73.3432C227.968 73.0807 228.266 72.9494 228.642 72.9494C229.019 72.9494 229.307 73.0807 229.509 73.3432C229.719 73.597 229.824 73.8815 229.824 74.1965C229.824 74.5116 229.719 74.796 229.509 75.0498C229.307 75.3036 229.019 75.4305 228.642 75.4305ZM235.298 81.7317C235.779 81.7317 236.213 81.618 236.598 81.3904C236.991 81.1541 237.302 80.8435 237.53 80.4584C237.757 80.0733 237.871 79.6445 237.871 79.1719C237.871 78.6993 237.757 78.2704 237.53 77.8854C237.302 77.4915 236.991 77.1809 236.598 76.9533C236.213 76.7258 235.779 76.612 235.298 76.612C234.817 76.612 234.379 76.7258 233.985 76.9533C233.6 77.1809 233.294 77.4915 233.066 77.8854C232.839 78.2704 232.725 78.6993 232.725 79.1719C232.725 79.6445 232.839 80.0733 233.066 80.4584C233.294 80.8435 233.6 81.1541 233.985 81.3904C234.379 81.618 234.817 81.7317 235.298 81.7317ZM235.298 80.4059C234.922 80.4059 234.628 80.279 234.418 80.0252C234.208 79.7714 234.103 79.4869 234.103 79.1719C234.103 78.8568 234.208 78.5724 234.418 78.3186C234.628 78.056 234.922 77.9248 235.298 77.9248C235.674 77.9248 235.967 78.056 236.178 78.3186C236.388 78.5724 236.493 78.8568 236.493 79.1719C236.493 79.4869 236.388 79.7714 236.178 80.0252C235.967 80.279 235.674 80.4059 235.298 80.4059Z" fill="#DB2719"/>
<path d="M285.525 29.5371C284.803 29.5371 284.212 30.1279 284.212 30.8499C284.212 31.5719 284.803 32.1626 285.525 32.1626C286.247 32.1626 286.838 31.5719 286.838 30.8499C286.838 30.1279 286.247 29.5371 285.525 29.5371Z" stroke="#90A3BF" stroke-width="0.984568"/>
<path d="M294.714 29.5371C293.992 29.5371 293.402 30.1279 293.402 30.8499C293.402 31.5719 293.992 32.1626 294.714 32.1626C295.436 32.1626 296.027 31.5719 296.027 30.8499C296.027 30.1279 295.436 29.5371 294.714 29.5371Z" stroke="#90A3BF" stroke-width="0.984568"/>
<path d="M290.12 29.5371C289.398 29.5371 288.807 30.1279 288.807 30.8499C288.807 31.5719 289.398 32.1626 290.12 32.1626C290.842 32.1626 291.432 31.5719 291.432 30.8499C291.432 30.1279 290.842 29.5371 290.12 29.5371Z" stroke="#90A3BF" stroke-width="0.984568"/>
<path d="M22.015 36.0039H26.1502C27.1916 36.0039 28.0099 35.7457 28.605 35.2294C29.2089 34.7043 29.5108 33.9779 29.5108 33.0502C29.5108 32.5864 29.4102 32.1532 29.2089 31.7506C29.0076 31.348 28.6794 31.0067 28.2243 30.7266C28.5219 30.4991 28.7407 30.2278 28.8807 29.9127C29.0295 29.5889 29.1039 29.2432 29.1039 28.8756C29.1039 28.0617 28.8369 27.4185 28.3031 26.9459C27.778 26.4645 27.056 26.2239 26.137 26.2239H22.015V36.0039ZM23.564 30.1228V27.5629H26.1764C26.5965 27.5629 26.9334 27.6766 27.1872 27.9042C27.441 28.123 27.5679 28.4249 27.5679 28.81C27.5679 29.1951 27.441 29.5101 27.1872 29.7552C26.9334 30.0002 26.5965 30.1228 26.1764 30.1228H23.564ZM23.564 34.6255V31.488H26.2683C26.7847 31.488 27.196 31.6324 27.5023 31.9212C27.8086 32.2013 27.9618 32.582 27.9618 33.0633C27.9618 33.5447 27.8086 33.9254 27.5023 34.2054C27.196 34.4855 26.7847 34.6255 26.2683 34.6255H23.564ZM32.824 36.1614C33.3141 36.1614 33.756 36.0783 34.1499 35.912C34.5437 35.737 34.8719 35.4919 35.1344 35.1769V36.0039H36.5522V31.2255C36.5522 30.7354 36.4297 30.3065 36.1847 29.939C35.9396 29.5626 35.6027 29.2695 35.1738 29.0594C34.745 28.8494 34.2505 28.7444 33.6904 28.7444C33.2441 28.7444 32.8196 28.8231 32.417 28.9807C32.0232 29.1294 31.6775 29.3351 31.38 29.5977C31.0912 29.8602 30.8767 30.1665 30.7367 30.5166L31.9707 31.1336C32.1107 30.801 32.3251 30.5341 32.614 30.3328C32.9115 30.1315 33.2572 30.0309 33.651 30.0309C34.0799 30.0309 34.4212 30.1446 34.675 30.3722C34.9375 30.591 35.0688 30.8754 35.0688 31.2255V31.5011L32.8109 31.8687C31.9882 32.0087 31.38 32.2801 30.9861 32.6826C30.6011 33.0765 30.4085 33.5578 30.4085 34.1267C30.4085 34.7393 30.6317 35.2338 31.078 35.6101C31.5244 35.9777 32.1064 36.1614 32.824 36.1614ZM31.9576 34.0742C31.9576 33.7941 32.0495 33.5622 32.2333 33.3784C32.417 33.1946 32.7058 33.0721 33.0997 33.0108L35.0688 32.6695V33.0502C35.0688 33.409 34.9813 33.7372 34.8063 34.0348C34.64 34.3323 34.4081 34.5686 34.1105 34.7437C33.8129 34.9099 33.4629 34.9931 33.0603 34.9931C32.7365 34.9931 32.4695 34.9099 32.2595 34.7437C32.0582 34.5686 31.9576 34.3455 31.9576 34.0742ZM38.0242 36.0039H39.5076V26.0663H38.0242V36.0039ZM43.1061 36.1614C43.5962 36.1614 44.0381 36.0783 44.4319 35.912C44.8258 35.737 45.154 35.4919 45.4165 35.1769V36.0039H46.8343V31.2255C46.8343 30.7354 46.7118 30.3065 46.4667 29.939C46.2217 29.5626 45.8847 29.2695 45.4559 29.0594C45.0271 28.8494 44.5326 28.7444 43.9725 28.7444C43.5261 28.7444 43.1017 28.8231 42.6991 28.9807C42.3053 29.1294 41.9596 29.3351 41.662 29.5977C41.3732 29.8602 41.1588 30.1665 41.0188 30.5166L42.2528 31.1336C42.3928 30.801 42.6072 30.5341 42.896 30.3328C43.1936 30.1315 43.5393 30.0309 43.9331 30.0309C44.3619 30.0309 44.7032 30.1446 44.957 30.3722C45.2196 30.591 45.3509 30.8754 45.3509 31.2255V31.5011L43.0929 31.8687C42.2703 32.0087 41.662 32.2801 41.2682 32.6826C40.8831 33.0765 40.6906 33.5578 40.6906 34.1267C40.6906 34.7393 40.9138 35.2338 41.3601 35.6101C41.8064 35.9777 42.3884 36.1614 43.1061 36.1614ZM42.2396 34.0742C42.2396 33.7941 42.3315 33.5622 42.5153 33.3784C42.6991 33.1946 42.9879 33.0721 43.3817 33.0108L45.3509 32.6695V33.0502C45.3509 33.409 45.2634 33.7372 45.0883 34.0348C44.922 34.3323 44.6901 34.5686 44.3926 34.7437C44.095 34.9099 43.7449 34.9931 43.3424 34.9931C43.0185 34.9931 42.7516 34.9099 42.5416 34.7437C42.3403 34.5686 42.2396 34.3455 42.2396 34.0742ZM48.3062 36.0039H49.7896V31.8162C49.7896 31.2911 49.9384 30.8798 50.236 30.5822C50.5335 30.2759 50.9099 30.1228 51.3649 30.1228C51.8288 30.1228 52.2051 30.2759 52.4939 30.5822C52.7915 30.8798 52.9403 31.2911 52.9403 31.8162V36.0039H54.4105V31.4093C54.4105 30.8842 54.2924 30.4247 54.0561 30.0309C53.8286 29.6283 53.5135 29.3132 53.1109 29.0857C52.7083 28.8581 52.2489 28.7444 51.7325 28.7444C51.2949 28.7444 50.9011 28.8319 50.551 29.0069C50.201 29.1819 49.9253 29.4357 49.724 29.7683V28.9019H48.3062V36.0039ZM59.1094 36.1614C59.5995 36.1614 60.0546 36.0739 60.4747 35.8989C60.8947 35.7239 61.2579 35.4876 61.5642 35.19C61.8793 34.8837 62.1069 34.5424 62.2469 34.166L60.9473 33.5491C60.7897 33.9254 60.549 34.2273 60.2252 34.4549C59.9102 34.6736 59.5382 34.783 59.1094 34.783C58.7068 34.783 58.3436 34.6824 58.0198 34.4811C57.7047 34.2798 57.4553 34.0041 57.2715 33.6541C57.0877 33.2953 56.9959 32.8927 56.9959 32.4463C56.9959 31.9912 57.0877 31.593 57.2715 31.2517C57.4553 30.9017 57.7047 30.626 58.0198 30.4247C58.3436 30.2234 58.7068 30.1228 59.1094 30.1228C59.5382 30.1228 59.9146 30.2365 60.2384 30.4641C60.5622 30.6829 60.7985 30.976 60.9473 31.3436L62.2469 30.7397C62.0981 30.3459 61.8662 30.0002 61.5511 29.7027C61.2448 29.3964 60.8816 29.1601 60.4615 28.9938C60.0415 28.8275 59.5907 28.7444 59.1094 28.7444C58.4005 28.7444 57.7704 28.9063 57.219 29.2301C56.6677 29.5451 56.2345 29.9827 55.9194 30.5428C55.6043 31.0942 55.4468 31.7243 55.4468 32.4332C55.4468 33.1421 55.6043 33.7766 55.9194 34.3367C56.2345 34.8968 56.6677 35.3432 57.219 35.6757C57.7704 35.9995 58.4005 36.1614 59.1094 36.1614ZM66.7686 36.1614C67.495 36.1614 68.1251 35.9952 68.659 35.6626C69.2016 35.33 69.5823 34.9099 69.8011 34.4023L68.5933 33.8116C68.4183 34.1092 68.1776 34.3586 67.8713 34.5599C67.5738 34.7524 67.2106 34.8487 66.7817 34.8487C66.2216 34.8487 65.7447 34.6736 65.3508 34.3236C64.957 33.9648 64.7382 33.4834 64.6945 32.8795H69.9717C69.998 32.7745 70.0155 32.6608 70.0243 32.5382C70.033 32.4157 70.0374 32.2976 70.0374 32.1838C70.0374 31.5712 69.9017 31.0067 69.6304 30.4903C69.3679 29.9652 68.9828 29.5451 68.4752 29.2301C67.9764 28.9063 67.3681 28.7444 66.6505 28.7444C65.9853 28.7444 65.3858 28.9063 64.852 29.2301C64.3269 29.5451 63.9112 29.9827 63.6049 30.5428C63.2986 31.0942 63.1454 31.7243 63.1454 32.4332C63.1454 33.1333 63.2986 33.7678 63.6049 34.3367C63.9199 34.8968 64.3488 35.3432 64.8914 35.6757C65.434 35.9995 66.0597 36.1614 66.7686 36.1614ZM66.6505 29.9915C67.1493 29.9915 67.5694 30.149 67.9107 30.4641C68.252 30.7791 68.4358 31.1905 68.4621 31.6981H64.7207C64.8082 31.1555 65.0314 30.7354 65.3902 30.4378C65.749 30.1403 66.1691 29.9915 66.6505 29.9915ZM76.8255 36.1614C77.4818 36.1614 78.0595 36.0433 78.5583 35.807C79.0659 35.5707 79.4597 35.2425 79.7398 34.8224C80.0198 34.3936 80.1599 33.9079 80.1599 33.3653C80.1599 32.0788 79.3766 31.1905 77.81 30.7004L76.1034 30.1621C75.6921 30.0396 75.3858 29.8558 75.1845 29.6108C74.9832 29.3657 74.8826 29.0857 74.8826 28.7706C74.8826 28.3593 75.0314 28.0311 75.3289 27.786C75.6352 27.541 76.0291 27.4185 76.5104 27.4185C77.053 27.4185 77.5256 27.5585 77.9282 27.8386C78.3308 28.1186 78.6283 28.5168 78.8209 29.0332L80.1074 28.4687C79.9498 27.9961 79.696 27.5804 79.346 27.2216C79.0046 26.8627 78.5933 26.5827 78.112 26.3814C77.6306 26.1714 77.0968 26.0663 76.5104 26.0663C75.8978 26.0663 75.3508 26.1845 74.8695 26.4208C74.3969 26.6571 74.0249 26.9853 73.7536 27.4053C73.4823 27.8167 73.3467 28.298 73.3467 28.8494C73.3467 29.4795 73.5392 30.0309 73.9243 30.5035C74.3093 30.9673 74.8695 31.313 75.6046 31.5405L77.4425 32.1181C77.8275 32.2407 78.1207 32.407 78.322 32.617C78.532 32.827 78.6371 33.1115 78.6371 33.4703C78.6371 33.8729 78.4752 34.1967 78.1513 34.4417C77.8363 34.678 77.4162 34.7962 76.8911 34.7962C76.296 34.7962 75.7665 34.6343 75.3027 34.3104C74.8476 33.9866 74.5063 33.5228 74.2787 32.9189L72.966 33.4703C73.141 33.9954 73.4123 34.4592 73.7799 34.8618C74.1474 35.2644 74.5894 35.5838 75.1058 35.8201C75.6309 36.0477 76.2041 36.1614 76.8255 36.1614ZM84.5637 36.0827C84.6862 36.0827 84.8218 36.0739 84.9706 36.0564C85.1194 36.0389 85.2507 36.0214 85.3644 36.0039V34.7305C85.1982 34.7568 85.0362 34.7699 84.8787 34.7699C84.4499 34.7699 84.1436 34.6693 83.9598 34.468C83.7848 34.2579 83.6972 33.9735 83.6972 33.6147V30.2409H85.3119V28.9019H83.6972V27.2741H82.2138V27.8254C82.2138 28.158 82.1219 28.4205 81.9381 28.6131C81.7544 28.8056 81.4962 28.9019 81.1636 28.9019H80.9667V30.2409H82.2138V33.6803C82.2138 34.4417 82.4195 35.0325 82.8308 35.4525C83.2421 35.8726 83.8198 36.0827 84.5637 36.0827ZM88.6121 36.1614C89.1022 36.1614 89.5441 36.0783 89.938 35.912C90.3318 35.737 90.66 35.4919 90.9225 35.1769V36.0039H92.3403V31.2255C92.3403 30.7354 92.2178 30.3065 91.9727 29.939C91.7277 29.5626 91.3907 29.2695 90.9619 29.0594C90.5331 28.8494 90.0386 28.7444 89.4785 28.7444C89.0322 28.7444 88.6077 28.8231 88.2051 28.9807C87.8113 29.1294 87.4656 29.3351 87.168 29.5977C86.8792 29.8602 86.6648 30.1665 86.5248 30.5166L87.7588 31.1336C87.8988 30.801 88.1132 30.5341 88.402 30.3328C88.6996 30.1315 89.0453 30.0309 89.4391 30.0309C89.8679 30.0309 90.2093 30.1446 90.4631 30.3722C90.7256 30.591 90.8569 30.8754 90.8569 31.2255V31.5011L88.5989 31.8687C87.7763 32.0087 87.168 32.2801 86.7742 32.6826C86.3891 33.0765 86.1966 33.5578 86.1966 34.1267C86.1966 34.7393 86.4198 35.2338 86.8661 35.6101C87.3124 35.9777 87.8944 36.1614 88.6121 36.1614ZM87.7457 34.0742C87.7457 33.7941 87.8375 33.5622 88.0213 33.3784C88.2051 33.1946 88.4939 33.0721 88.8878 33.0108L90.8569 32.6695V33.0502C90.8569 33.409 90.7694 33.7372 90.5943 34.0348C90.4281 34.3323 90.1961 34.5686 89.8986 34.7437C89.601 34.9099 89.251 34.9931 88.8484 34.9931C88.5246 34.9931 88.2576 34.9099 88.0476 34.7437C87.8463 34.5686 87.7457 34.3455 87.7457 34.0742ZM96.7559 36.0827C96.8784 36.0827 97.0141 36.0739 97.1628 36.0564C97.3116 36.0389 97.4429 36.0214 97.5567 36.0039V34.7305C97.3904 34.7568 97.2285 34.7699 97.071 34.7699C96.6421 34.7699 96.3358 34.6693 96.152 34.468C95.977 34.2579 95.8895 33.9735 95.8895 33.6147V30.2409H97.5042V28.9019H95.8895V27.2741H94.4061V27.8254C94.4061 28.158 94.3142 28.4205 94.1304 28.6131C93.9466 28.8056 93.6884 28.9019 93.3558 28.9019H93.1589V30.2409H94.4061V33.6803C94.4061 34.4417 94.6117 35.0325 95.0231 35.4525C95.4344 35.8726 96.012 36.0827 96.7559 36.0827ZM98.7417 27.9304H100.225V26.2239H98.7417V27.9304ZM98.7417 36.0039H100.225V28.9019H98.7417V36.0039ZM104.323 36.1614C104.848 36.1614 105.307 36.0739 105.701 35.8989C106.103 35.7151 106.414 35.4657 106.633 35.1506C106.852 34.8268 106.961 34.4549 106.961 34.0348C106.961 33.5447 106.804 33.1246 106.489 32.7745C106.173 32.4157 105.723 32.1532 105.136 31.9869L103.981 31.6456C103.762 31.5755 103.557 31.4793 103.364 31.3567C103.172 31.2342 103.075 31.0504 103.075 30.8054C103.075 30.5516 103.172 30.3503 103.364 30.2015C103.557 30.0527 103.815 29.9783 104.139 29.9783C104.515 29.9783 104.852 30.079 105.15 30.2803C105.456 30.4816 105.679 30.7529 105.819 31.0942L106.961 30.556C106.751 29.9871 106.392 29.5451 105.885 29.2301C105.377 28.9063 104.799 28.7444 104.152 28.7444C103.67 28.7444 103.237 28.8363 102.852 29.02C102.467 29.1951 102.165 29.4401 101.946 29.7552C101.728 30.0702 101.618 30.4422 101.618 30.871C101.618 31.3524 101.767 31.7681 102.065 32.1181C102.371 32.4682 102.83 32.7308 103.443 32.9058L104.559 33.2209C104.786 33.2821 105.001 33.3784 105.202 33.5097C105.403 33.6322 105.504 33.8204 105.504 34.0742C105.504 34.3455 105.395 34.5599 105.176 34.7174C104.957 34.8749 104.673 34.9537 104.323 34.9537C103.911 34.9537 103.535 34.8356 103.194 34.5993C102.861 34.363 102.598 34.0435 102.406 33.6409L101.264 34.1792C101.483 34.783 101.863 35.2644 102.406 35.6232C102.957 35.982 103.596 36.1614 104.323 36.1614ZM111.224 36.0827C111.346 36.0827 111.482 36.0739 111.631 36.0564C111.78 36.0389 111.911 36.0214 112.025 36.0039V34.7305C111.858 34.7568 111.697 34.7699 111.539 34.7699C111.11 34.7699 110.804 34.6693 110.62 34.468C110.445 34.2579 110.357 33.9735 110.357 33.6147V30.2409H111.972V28.9019H110.357V27.2741H108.874V27.8254C108.874 28.158 108.782 28.4205 108.598 28.6131C108.415 28.8056 108.156 28.9019 107.824 28.9019H107.627V30.2409H108.874V33.6803C108.874 34.4417 109.08 35.0325 109.491 35.4525C109.902 35.8726 110.48 36.0827 111.224 36.0827ZM113.21 27.9304H114.693V26.2239H113.21V27.9304ZM113.21 36.0039H114.693V28.9019H113.21V36.0039ZM119.539 36.1614C120.029 36.1614 120.484 36.0739 120.904 35.8989C121.324 35.7239 121.687 35.4876 121.994 35.19C122.309 34.8837 122.536 34.5424 122.676 34.166L121.377 33.5491C121.219 33.9254 120.978 34.2273 120.655 34.4549C120.34 34.6736 119.968 34.783 119.539 34.783C119.136 34.783 118.773 34.6824 118.449 34.4811C118.134 34.2798 117.885 34.0041 117.701 33.6541C117.517 33.2953 117.425 32.8927 117.425 32.4463C117.425 31.9912 117.517 31.593 117.701 31.2517C117.885 30.9017 118.134 30.626 118.449 30.4247C118.773 30.2234 119.136 30.1228 119.539 30.1228C119.968 30.1228 120.344 30.2365 120.668 30.4641C120.992 30.6829 121.228 30.976 121.377 31.3436L122.676 30.7397C122.528 30.3459 122.296 30.0002 121.981 29.7027C121.674 29.3964 121.311 29.1601 120.891 28.9938C120.471 28.8275 120.02 28.7444 119.539 28.7444C118.83 28.7444 118.2 28.9063 117.648 29.2301C117.097 29.5451 116.664 29.9827 116.349 30.5428C116.034 31.0942 115.876 31.7243 115.876 32.4332C115.876 33.1421 116.034 33.7766 116.349 34.3367C116.664 34.8968 117.097 35.3432 117.648 35.6757C118.2 35.9995 118.83 36.1614 119.539 36.1614ZM126.489 36.1614C127.014 36.1614 127.474 36.0739 127.868 35.8989C128.27 35.7151 128.581 35.4657 128.8 35.1506C129.018 34.8268 129.128 34.4549 129.128 34.0348C129.128 33.5447 128.97 33.1246 128.655 32.7745C128.34 32.4157 127.889 32.1532 127.303 31.9869L126.148 31.6456C125.929 31.5755 125.723 31.4793 125.531 31.3567C125.338 31.2342 125.242 31.0504 125.242 30.8054C125.242 30.5516 125.338 30.3503 125.531 30.2015C125.723 30.0527 125.982 29.9783 126.305 29.9783C126.682 29.9783 127.019 30.079 127.316 30.2803C127.622 30.4816 127.846 30.7529 127.986 31.0942L129.128 30.556C128.918 29.9871 128.559 29.5451 128.051 29.2301C127.544 28.9063 126.966 28.7444 126.318 28.7444C125.837 28.7444 125.404 28.8363 125.019 29.02C124.634 29.1951 124.332 29.4401 124.113 29.7552C123.894 30.0702 123.785 30.4422 123.785 30.871C123.785 31.3524 123.934 31.7681 124.231 32.1181C124.537 32.4682 124.997 32.7308 125.61 32.9058L126.725 33.2209C126.953 33.2821 127.167 33.3784 127.369 33.5097C127.57 33.6322 127.671 33.8204 127.671 34.0742C127.671 34.3455 127.561 34.5599 127.342 34.7174C127.124 34.8749 126.839 34.9537 126.489 34.9537C126.078 34.9537 125.701 34.8356 125.36 34.5993C125.028 34.363 124.765 34.0435 124.573 33.6409L123.43 34.1792C123.649 34.783 124.03 35.2644 124.573 35.6232C125.124 35.982 125.763 36.1614 126.489 36.1614Z" fill="#90A3BF"/>
<g clip-path="url(#clip1_138_6087)">
<path d="M415.151 225.326L416.342 225.855C417.419 226.334 418.113 227.402 418.113 228.58V356.354C418.113 358.001 416.778 359.336 415.131 359.336H21.5223C19.8754 359.336 18.5404 358.001 18.5404 356.354V213.086C18.5404 212.686 18.6262 212.289 18.7921 211.924C19.9077 209.47 23.5049 209.845 24.0898 212.477L25.0026 216.585C25.6019 219.282 29.2292 219.784 30.5389 217.352L31.1145 216.283C31.6346 215.317 32.6429 214.715 33.7399 214.715H40.0338C41.4175 214.715 42.6195 213.763 42.9364 212.416L45.0754 203.325C45.2677 202.508 45.7958 201.809 46.5299 201.401L49.9807 199.484C51.2092 198.802 52.7475 199.07 53.6729 200.127L53.8777 200.361C55.3951 202.095 58.222 201.527 58.9507 199.341L61.6798 191.153C61.7449 190.958 61.7896 190.756 61.8132 190.552L63.8951 172.509C63.9722 171.841 64.273 171.218 64.7488 170.743L66.9994 168.492C68.6383 166.853 71.4386 167.629 72.0007 169.877L72.8116 173.121C73.2199 174.754 75.2112 175.378 76.4783 174.269C77.8366 173.081 79.9711 173.893 80.1949 175.684L83.6528 203.347C84.0623 206.624 88.7037 206.904 89.5045 203.701L90.8511 198.314C91.212 195.337 95.5602 195.427 95.798 198.416L96.5074 207.335C96.7947 210.947 102.062 211.017 102.445 207.414L102.641 205.569C102.729 204.746 103.155 203.996 103.817 203.499L105.761 202.042L107.516 200.578C108.728 199.569 110.578 200.243 110.855 201.796C111.284 204.197 114.796 203.983 114.93 201.547L117.194 160.349C117.314 158.161 120.312 157.647 121.155 159.669C121.324 160.076 121.619 160.417 121.997 160.644L124.796 162.324C126.682 163.455 129.101 162.226 129.3 160.037L132.72 122.425C132.956 119.825 136.183 118.762 137.918 120.714L138.673 121.564C139.085 122.027 139.343 122.607 139.409 123.224L142.189 148.94C142.254 149.538 142.498 150.103 142.89 150.56L145.404 153.493C146.219 154.444 147.542 154.784 148.715 154.344L149.372 154.098C151.117 153.444 153.027 154.532 153.355 156.366L154.188 161.034C154.744 164.146 159.123 164.368 159.991 161.329L160.543 159.399C160.785 158.549 161.392 157.852 162.199 157.493L166.744 155.473C167.318 155.218 167.778 154.761 168.038 154.189C169.072 151.914 172.418 152.308 172.895 154.762L176.111 171.301C176.384 172.702 177.611 173.714 179.038 173.714H184.689C186.057 173.714 187.25 174.645 187.582 175.972L188.971 181.531C189.137 182.194 189.733 182.659 190.416 182.659C191.057 182.659 191.626 183.07 191.829 183.678L192.699 186.286C193.57 188.902 197.22 189.035 198.28 186.49L198.783 185.284C198.89 185.026 199.033 184.785 199.207 184.568L201.461 181.75C201.767 181.368 201.973 180.917 202.064 180.437L204.086 169.651C204.137 169.379 204.226 169.115 204.35 168.867L206.154 165.259C206.316 164.934 206.418 164.583 206.454 164.222L208.142 147.34C208.366 145.102 210.892 143.908 212.763 145.156L214.248 146.146C214.947 146.611 215.417 147.35 215.542 148.18L218.824 169.837C218.978 170.857 219.649 171.724 220.597 172.131L221.482 172.51C223.022 173.17 224.803 172.432 225.425 170.877L226.977 166.998C227.784 164.981 230.452 164.558 231.843 166.227C232.262 166.73 232.841 167.074 233.483 167.203L241.092 168.725C242.566 169.02 244.03 168.17 244.505 166.744L247.207 158.639C247.334 158.256 247.538 157.903 247.807 157.601L249.077 156.173C250.766 154.272 253.906 155.222 254.259 157.74L257.958 184.162C258.254 186.278 260.613 187.405 262.445 186.305L269.206 182.249C271.142 181.087 273.616 182.415 273.719 184.671L276.398 243.616C276.445 244.65 277.024 245.585 277.929 246.087L282.669 248.721C283.008 248.909 283.307 249.162 283.55 249.465L288.914 256.171C289.068 256.363 289.198 256.575 289.3 256.799L292.7 264.279C292.815 264.533 292.895 264.801 292.935 265.076L295.479 282.244C295.695 283.706 296.95 284.789 298.428 284.789H300.708C302.199 284.789 303.461 285.89 303.662 287.368L304.886 296.346C305.188 298.558 307.723 299.666 309.551 298.386L312.052 296.636C312.663 296.208 313.091 295.567 313.253 294.84L314.893 287.461C315.384 285.25 318.063 284.372 319.767 285.863L321.285 287.192C321.717 287.57 322.031 288.064 322.189 288.617L324.241 295.8C324.808 297.783 327.65 297.687 328.082 295.671C328.559 293.442 331.805 293.652 331.992 295.924L334.861 330.834C335.065 333.318 338.046 334.471 339.868 332.77L345.788 327.245C346.28 326.785 346.602 326.173 346.702 325.507L348.588 312.932C348.713 312.1 349.183 311.36 349.883 310.893L349.96 310.842C350.637 310.39 351.101 309.681 351.242 308.879L352.969 299.096C353.148 298.08 353.84 297.229 354.798 296.846L357.984 295.571C359.413 294.999 361.015 295.845 361.349 297.348C361.924 299.934 365.598 299.965 366.216 297.389L368.004 289.939C368.111 289.494 368.319 289.079 368.613 288.726L371 285.862C371.566 285.182 372.405 284.789 373.29 284.789H373.641C374.431 284.789 375.19 284.475 375.749 283.916L376.926 282.739C377.908 281.757 379.437 281.583 380.615 282.319L383.577 284.171C384.214 284.568 384.676 285.191 384.874 285.915L385.042 286.531C385.903 289.688 390.483 289.355 390.879 286.108L392.562 272.302C392.689 271.262 393.353 270.364 394.311 269.939L398.066 268.27C398.95 267.877 399.589 267.079 399.779 266.13L400.605 262C400.816 260.946 401.74 260.188 402.814 260.188C403.903 260.188 404.836 259.41 405.031 258.338L405.993 253.047C406.104 252.434 406.638 251.988 407.261 251.988C407.921 251.988 408.474 251.49 408.543 250.834L410.975 227.738C411.186 225.725 413.301 224.503 415.151 225.326Z" fill="url(#paint0_linear_138_6087)"/>
<path d="M418.113 226.642L415.151 225.326C413.301 224.503 411.186 225.725 410.975 227.738L408.543 250.834C408.474 251.49 407.921 251.988 407.261 251.988V251.988C406.638 251.988 406.104 252.434 405.993 253.047L405.031 258.338C404.836 259.41 403.903 260.188 402.814 260.188V260.188C401.74 260.188 400.816 260.946 400.605 262L399.779 266.13C399.589 267.079 398.95 267.877 398.066 268.27L394.311 269.939C393.353 270.364 392.689 271.262 392.562 272.302L390.879 286.108C390.483 289.355 385.903 289.688 385.042 286.531L384.874 285.915C384.676 285.191 384.214 284.568 383.577 284.171L380.615 282.319C379.437 281.583 377.908 281.757 376.926 282.739L375.749 283.916C375.19 284.475 374.431 284.789 373.641 284.789H373.29C372.405 284.789 371.566 285.182 371 285.862L368.613 288.726C368.319 289.079 368.111 289.494 368.004 289.939L366.216 297.389C365.598 299.965 361.924 299.934 361.349 297.348V297.348C361.015 295.845 359.413 294.999 357.984 295.571L354.798 296.846C353.84 297.229 353.148 298.08 352.969 299.096L351.242 308.879C351.101 309.681 350.637 310.39 349.96 310.842L349.883 310.893C349.183 311.36 348.713 312.1 348.588 312.932L346.702 325.507C346.602 326.173 346.28 326.785 345.788 327.245L339.868 332.77C338.046 334.471 335.065 333.318 334.861 330.834L331.992 295.924C331.805 293.652 328.559 293.442 328.082 295.671V295.671C327.65 297.687 324.808 297.783 324.241 295.8L322.189 288.617C322.031 288.064 321.717 287.57 321.285 287.192L319.767 285.863C318.063 284.372 315.384 285.25 314.893 287.461L313.253 294.84C313.091 295.567 312.663 296.208 312.052 296.636L309.551 298.386C307.723 299.666 305.188 298.558 304.886 296.346L303.662 287.368C303.461 285.89 302.199 284.789 300.708 284.789H298.428C296.95 284.789 295.695 283.706 295.479 282.244L292.935 265.076C292.895 264.801 292.815 264.533 292.7 264.279L289.3 256.8C289.198 256.575 289.068 256.363 288.914 256.171L283.55 249.465C283.307 249.162 283.008 248.909 282.669 248.721L277.929 246.087C277.024 245.585 276.445 244.65 276.398 243.616L273.719 184.671C273.616 182.415 271.142 181.087 269.206 182.249L262.445 186.305C260.613 187.405 258.254 186.278 257.958 184.162L254.259 157.74C253.906 155.222 250.766 154.272 249.077 156.173L247.807 157.601C247.538 157.903 247.334 158.256 247.207 158.639L244.505 166.744C244.03 168.17 242.566 169.02 241.092 168.725L233.483 167.203C232.841 167.074 232.262 166.73 231.843 166.227V166.227C230.452 164.558 227.784 164.981 226.977 166.998L225.425 170.877C224.803 172.432 223.022 173.17 221.482 172.51L220.597 172.131C219.649 171.724 218.978 170.857 218.824 169.837L215.542 148.18C215.417 147.35 214.947 146.611 214.248 146.146L212.763 145.156C210.892 143.908 208.366 145.102 208.142 147.34L206.454 164.222C206.418 164.583 206.316 164.934 206.154 165.259L204.35 168.867C204.226 169.115 204.137 169.379 204.086 169.651L202.064 180.437C201.973 180.917 201.767 181.368 201.461 181.75L199.207 184.568C199.033 184.785 198.89 185.026 198.783 185.284L198.28 186.49C197.22 189.035 193.57 188.902 192.699 186.286L191.829 183.678C191.626 183.07 191.057 182.659 190.416 182.659V182.659C189.733 182.659 189.137 182.194 188.971 181.531L187.582 175.972C187.25 174.645 186.057 173.714 184.689 173.714H179.038C177.611 173.714 176.384 172.702 176.111 171.301L172.895 154.762C172.418 152.308 169.072 151.914 168.038 154.189V154.189C167.778 154.761 167.318 155.218 166.744 155.473L162.199 157.493C161.392 157.852 160.785 158.549 160.543 159.399L159.991 161.329C159.123 164.368 154.744 164.146 154.188 161.034L153.355 156.366C153.027 154.532 151.117 153.444 149.372 154.098L148.715 154.344C147.542 154.784 146.219 154.444 145.404 153.493L142.89 150.56C142.498 150.103 142.254 149.538 142.189 148.94L139.409 123.224C139.343 122.607 139.085 122.027 138.673 121.564L137.918 120.714C136.183 118.762 132.956 119.825 132.72 122.425L129.3 160.037C129.101 162.226 126.682 163.455 124.796 162.324L121.997 160.644C121.619 160.417 121.324 160.076 121.155 159.669V159.669C120.312 157.647 117.314 158.161 117.194 160.349L114.93 201.547C114.796 203.983 111.284 204.197 110.855 201.796V201.796C110.578 200.243 108.728 199.569 107.517 200.578L105.761 202.042L103.817 203.499C103.155 203.996 102.729 204.746 102.641 205.569L102.445 207.414C102.062 211.017 96.7947 210.947 96.5074 207.335L95.798 198.416C95.5602 195.427 91.212 195.337 90.8511 198.314V198.314L89.5045 203.701C88.7037 206.904 84.0624 206.624 83.6528 203.347L80.1949 175.684C79.9711 173.893 77.8366 173.081 76.4783 174.269V174.269C75.2112 175.378 73.22 174.754 72.8116 173.121L72.0007 169.877C71.4386 167.629 68.6383 166.853 66.9994 168.492L64.7488 170.743C64.2731 171.218 63.9722 171.841 63.8951 172.509L61.8132 190.552C61.7896 190.756 61.7449 190.958 61.6798 191.153L58.9507 199.341C58.222 201.527 55.3951 202.095 53.8777 200.361L53.673 200.127C52.7475 199.07 51.2092 198.802 49.9807 199.484L46.5299 201.401C45.7958 201.809 45.2677 202.508 45.0754 203.325L42.9364 212.416C42.6195 213.763 41.4175 214.715 40.0338 214.715H33.74C32.643 214.715 31.6346 215.317 31.1145 216.283L30.5389 217.352C29.2292 219.784 25.6019 219.282 25.0026 216.585L24.2026 212.985C23.5815 210.19 19.7251 209.872 18.5404 212.478V212.478" stroke="#FF4423" stroke-width="1.96914"/>
</g>
<defs>
<linearGradient id="paint0_linear_138_6087" x1="244.173" y1="-786.342" x2="218.327" y2="376.482" gradientUnits="userSpaceOnUse">
<stop stop-color="#FF4423" stop-opacity="0.6"/>
<stop offset="1" stop-color="#FF4423" stop-opacity="0"/>
</linearGradient>
<clipPath id="clip0_138_6087">
<rect width="276.992" height="133.901" fill="white" transform="translate(21.0042 125.368)"/>
</clipPath>
<clipPath id="clip1_138_6087">
<rect width="276.992" height="187.724" fill="white" transform="matrix(-1 0 0 1 297.996 76.1401)"/>
</clipPath>
</defs>
</svg>
